<?xml version="1.0" encoding="UTF-8" standalone="no"?>
<svg
   viewBox="0 0 186.125 161.25"
   version="1.1"
   xml:space="preserve"
   id="svg18"
   xmlns="http://www.w3.org/2000/svg"
   xmlns:svg="http://www.w3.org/2000/svg"
   xmlns:rdf="http://www.w3.org/1999/02/22-rdf-syntax-ns#"
   xmlns:cc="http://creativecommons.org/ns#"
   xmlns:dc="http://purl.org/dc/elements/1.1/"><defs
     id="defs18" /><title
     id="title1">Alpine Linux logo</title><metadata
     id="metadata1"><rdf:RDF><cc:Work
         rdf:about=""><dc:format>image/svg+xml</dc:format><dc:type
           rdf:resource="http://purl.org/dc/dcmitype/StillImage" /><dc:title /></cc:Work></rdf:RDF></metadata><g
     transform="matrix(1.25,0,0,-1.25,-267.55,591.55875)"
     id="g18"><g
       transform="translate(687,398)"
       style="fill:#0d597f"
       id="g1"><path
         d="m 0,0 c -3.74,6.41 -3.73,19.4 0.023,26.2 1.64,2.97 6.62,9.56 28.4,9.56 4.47,0 7.74,-0.229 10.1,-0.554 5.28,-0.71 9.3,-2.51 9.3,-7.42 0,-6.49 -9.56,-6.55 -9.56,-6.55 h -20.3 c -8.61,0 -9.27,-11.9 -9.27,-11.9 h 29.5 c 10.4,0 21.1,4.65 21.1,18.3 0,9.05 -5.21,15.1 -13.7,17.5 -8.5,2.33 -11.8,2.21 -23.4,2 -9.27,-0.166 -14.6,-2.2 -18,-3.26 -5.91,-1.86 -11.2,-5.32 -14.8,-11.8 -5.82,-10.5 -5.76,-27.9 0.115,-38 6.28,-10.8 17.1,-16.5 30.1,-16.6 h 39.7 l 10e-4,11.9 h -39.7 c -11.4,-0.034 -17.1,6.25 -19.7,10.7"
         style="fill:#0d597f"
         id="path1" /></g><g
       transform="translate(442,443)"
       style="fill:#0d597f"
       id="g2"><path
         d="m 0,0 c -10.5,5.82 -27.9,5.76 -38,-0.115 -14.4,-8.39 -19.8,-24.8 -14.6,-43.9 2.69,-9.79 9.96,-17 21,-20.9 7.82,-2.72 15,-2.8 15.3,-2.8 l -0.015,12 c -0.207,0.001 -20.8,0.305 -24.8,14.8 -5.16,18.8 3.47,27 9.07,30.3 6.41,3.74 19.4,3.73 26.2,-0.023 7.21,-3.98 7.73,-12.3 7.73,-25.5 v -24.4 c 0,-8.61 12,-9.17 12,-9.17 v 33.5 c 0,12.6 0,28.3 -13.9,36"
         style="fill:#0d597f"
         id="path2" /></g><g
       transform="translate(598,375)"
       style="fill:#0d597f"
       id="g3"><path
         d="m 0,0 v 37.4 c 0.011,13 5.78,23.8 16.6,30.1 10.1,5.88 27.5,5.93 38,0.115 13.9,-7.7 13.9,-23.4 13.9,-36 v -33.5 c 0,0 -12,0.563 -12,9.17 v 24.3 c 0,13.2 -0.521,21.5 -7.73,25.5 -6.79,3.75 -19.7,3.76 -26.2,0.023 -4.41,-2.57 -10.7,-8.25 -10.7,-19.7 v -37.4 z"
         style="fill:#0d597f"
         id="path3" /></g><g
       transform="translate(580,375)"
       style="fill:#0d597f"
       id="g4"><path
         d="m 0,0 v 56.7 c 0,0 11.9,-0.658 11.9,-9.27 v -47.5 z"
         style="fill:#0d597f"
         id="path4" /></g><g
       transform="translate(592,444)"
       style="fill:#0d597f"
       id="g5"><path
         d="m 0,0 v -11.2 c 0,0 -11.9,0.658 -11.9,9.27 V 0 Z"
         style="fill:#0d597f"
         id="path5" /></g><g
       transform="translate(519,443)"
       style="fill:#0d597f"
       id="g6"><path
         d="m 0,0 c 10.5,5.82 27.9,5.76 38,-0.115 14.4,-8.39 19.8,-24.8 14.6,-43.9 -2.69,-9.79 -9.96,-17 -21,-20.9 -7.82,-2.72 -15,-2.45 -15.3,-2.45 l 0.01,11.9 c 0.207,0.001 20.8,0.052 24.8,14.6 5.16,18.8 -3.47,27 -9.07,30.3 -6.41,3.74 -19.4,3.73 -26.2,-0.023 -7.21,-3.98 -7.73,-12.3 -7.73,-25.5 v -12.6 c 0,-8.61 -12,-9.17 -12,-9.17 v 21.8 c 0,12.6 0,28.3 13.9,36"
         style="fill:#0d597f"
         id="path6" /></g><g
       transform="translate(517,345)"
       style="fill:#0d597f"
       id="g7"><path
         d="m 0,0 v 39.7 c 0,0 -11.9,-0.658 -11.9,-9.27 V 0.03 Z"
         style="fill:#0d597f"
         id="path7" /></g><g
       transform="translate(473,474)"
       style="fill:#0d597f"
       id="g8"><path
         d="m 0,0 v -41.5 c 0,0 -11.9,0.658 -11.9,9.27 v 32.3 z"
         style="fill:#0d597f"
         id="path8" /></g><g
       transform="translate(475,402)"
       style="fill:#0d597f"
       id="g9"><path
         d="m 0,0 c -1.04,3.78 -1.52,7.13 -1.58,10.1 l -0.034,10.3 c 0,8.61 -11.9,9.17 -11.9,9.17 v -19.4 c 0.037,-4.24 0.68,-8.71 1.95,-13.3 2.69,-9.79 9.97,-17 21,-20.9 7.82,-2.72 15,-2.74 15.3,-2.74 l 0.006,11.9 c -0.207,10e-4 -20.8,0.305 -24.8,14.8"
         style="fill:#0d597f"
         id="path9" /></g><g
       transform="translate(268,393)"
       style="fill:#0d597f"
       id="g10"><path
         d="M 0,0 V 15.7 L -11.3,4.4 c 1.22,-0.847 2.36,-1.54 3.44,-2.11 1.08,-0.567 2.09,-1 3.03,-1.34 C -3.889,0.616 -3.02,0.388 -2.21,0.24 -1.406,0.093 -0.67,0.027 0,0.018 m 57.8,1.3 c 0.02,-0.017 0.13,-0.11 0.333,-0.239 0.204,-0.13 0.502,-0.297 0.898,-0.462 0.395,-0.164 0.889,-0.327 1.48,-0.448 0.596,-0.122 1.29,-0.202 2.1,-0.202 0.671,0 1.41,0.059 2.22,0.2 0.812,0.142 1.69,0.367 2.64,0.699 0.953,0.333 1.98,0.773 3.07,1.34 1.09,0.572 2.26,1.28 3.5,2.14 l -8.57,8.4 -28.4,28.5 -12.5,-12.5 -16.8,17.3 -42.2,-41.7 c 1.24,-0.86 2.4,-1.56 3.49,-2.14 1.09,-0.571 2.12,-1.01 3.07,-1.34 0.951,-0.332 1.83,-0.557 2.64,-0.698 0.81,-0.142 1.55,-0.201 2.22,-0.201 0.804,0 1.5,0.08 2.1,0.202 0.596,0.121 1.09,0.284 1.48,0.449 0.396,0.164 0.693,0.331 0.897,0.461 0.204,0.13 0.314,0.223 0.334,0.24 l 19.1,19.1 6.81,6.53 18.9,-18.9 6.59,-6.78 c 0.02,-0.017 0.13,-0.11 0.334,-0.239 0.204,-0.13 0.501,-0.297 0.897,-0.462 0.396,-0.164 0.89,-0.327 1.48,-0.448 0.596,-0.122 1.3,-0.202 2.1,-0.202 0.67,0 1.41,0.059 2.22,0.2 0.811,0.142 1.69,0.367 2.64,0.699 0.952,0.333 1.98,0.773 3.07,1.34 1.09,0.572 2.26,1.28 3.5,2.14 l -15.1,14.8 2.82,2.82 13.1,-13.1 7.64,-7.57 m -0.163,79 37.2,-64.5 -37.2,-64.5 h -74.5 l -37.2,64.5 37.2,64.5 z"
         style="fill:#0d597f"
         id="path10" /></g><g
       transform="translate(303,412)"
       style="fill:#0d597f"
       id="g11"><path
         d="m 0,0 -9.91,9.9 0.705,0.709 9.98,-9.87 z"
         style="fill:#0d597f"
         id="path11" /></g><g
       transform="translate(528,353)"
       style="fill:#0d597f"
       id="g12"><path
         d="M 0,0 V 22.2 H -2 V 0 c 0,-4.3 3.35,-8.88 12.8,-8.88 H 26 v 2 H 10.8 C 0.82,-6.88 0,-1.61 0,0"
         style="fill:#0d597f"
         id="path12" /></g><path
       d="m 561,344 h 2 v 22.8 h -2 z"
       style="fill:#0d597f"
       id="path13" /><path
       d="m 561,368 h 2 v 2.99 h -2 z"
       style="fill:#0d597f"
       id="path14" /><g
       transform="translate(665,367)"
       style="fill:#0d597f"
       id="g15"><path
         d="M 0,0 H -2.63 L -11.1,-9.89 -19.58,0 h -2.63 l 9.8,-11.4 -9.73,-11.4 h 2.62 l 8.42,9.83 8.42,-9.83 h 2.65 l -9.75,11.4 z"
         style="fill:#0d597f"
         id="path15" /></g><g
       transform="translate(634,353)"
       style="fill:#0d597f"
       id="g16"><path
         d="M 0,0 C 0,-0.691 -0.366,-6.76 -13.1,-6.76 -25.7,-6.76 -26,-0.69 -26,0 v 14 h -2 V 0 c 0,-0.896 0.419,-8.76 14.9,-8.76 C 1.5,-8.76 2,-0.9 2,0 V 14 H 0 Z"
         style="fill:#0d597f"
         id="path16" /></g><g
       transform="translate(585,367)"
       style="fill:#0d597f"
       id="g17"><path
         d="m 0,0 c -14.6,0 -15.1,-7.86 -15.1,-8.76 v -14 h 2 v 14 c 0,0.692 0.367,6.76 13.1,6.76 12.6,0 12.9,-6.07 12.9,-6.76 v -14 h 2 v 14 C 14.9,-7.863 14.481,0 0,0"
         style="fill:#0d597f"
         id="path17" /></g></g></svg>
