<svg id="MainLayer" xmlns="http://www.w3.org/2000/svg" viewBox="0 0 2000 1808"><defs><style>.cls-1{fill:#5c2d91;}</style></defs><g id="Blazor2020"><path class="cls-1" d="M2148,352a12.76,12.76,0,0,0-4.55-4.39,12.44,12.44,0,0,0-12.25,0,12.93,12.93,0,0,0-4.55,4.39,708.81,708.81,0,0,1-492.78,406.43,9.1,9.1,0,0,1-10.09-13.23,661.43,661.43,0,0,0,102.28-295.84,9.39,9.39,0,0,0-1.29-5.6,9.28,9.28,0,0,0-10-4.34,9,9,0,0,0-4.95,2.82,659.43,659.43,0,0,1-486.54,214.87H988.92A738.42,738.42,0,0,0,553.16,801C362.61,943.32,250,1173.48,250,1405.07c0,214.53,71.31,391.17,211.36,532.39A728.53,728.53,0,0,0,991.9,2152.89a1036.49,1036.49,0,0,0,807.51-330.29c2-3-1-7.2-4-5.11a1316.67,1316.67,0,0,1-706.23,210.74,964.11,964.11,0,0,1-97.3-3A624.86,624.86,0,0,1,383,1408.08,617.31,617.31,0,0,1,539.71,994.54C750,759,1104.13,720.18,1360.4,904.64a617.15,617.15,0,0,1,242.52,369.79A659.88,659.88,0,0,1,1621,1435.51c6.32,131.43-93.34,243.91-224.56,253.45-71.9,3.41-154.64-34.2-189-97.21-72.19,92.51-178.61,122.63-280.59,106.58a304.07,304.07,0,0,1-119.36-46c-140.45-92.07-179.68-280.57-87.63-421,56.58-86.36,162.58-137.49,256.35-137.38h174.66a127.66,127.66,0,0,1,126.63,127.77V1430c0,75,40.94,130.48,112.92,130.57,76.92.1,110-73.07,110-155.09,0-134-52.35-255-145.5-345.5-193.81-188.18-502-193-700,5a497.46,497.46,0,0,0-145.42,346.68c10.37,239.89,186.84,440,423.52,480.18A841.24,841.24,0,0,0,1099.28,1902,1159.48,1159.48,0,0,0,2236.14,925,898.67,898.67,0,0,0,2148,352Z" transform="translate(-250 -346)"/><path class="cls-1" d="M976,1215.5c-100.79,0-182.51,81.94-182.53,182.61A182.3,182.3,0,0,0,940.41,1577c98.85,19.64,194.93-44.48,214.59-143.22a182.52,182.52,0,0,0,3.5-35.59V1228A13.16,13.16,0,0,0,1146,1215.5Z" transform="translate(-250 -346)"/></g></svg>