<svg id="Ebene_1" data-name="Ebene 1" xmlns="http://www.w3.org/2000/svg" viewBox="0 0 600 458"><path d="M349.00006,0h251V458h-600V0h337c-8.829,2.69019-17.42749,5.855-24.95984,11.41907-1.15228.8512-2.759,1.0946-4.16406,1.59512C284.756,21.24972,261.60968,29.4128,238.533,37.76824A90.81651,90.81651,0,0,0,224.03034,44.303c-21.71247,12.539-38.68067,30.45076-53.85285,49.92825-9.57306,12.28958-17.48126,25.88156-26.0509,38.94536-5.55243,8.46423-11.53656,16.719-16.26184,25.63241a133.70034,133.70034,0,0,1-18.813,27.43927C99.44922,196.868,88.7804,205.955,74.9173,210.606c-2.19849.73755-4.32233,1.70624-6.45777,2.62146C47.32391,222.2863,30.00909,237.50658,10.51892,249.222a12.50878,12.50878,0,0,0-3.62665,3.40772c-3.09582,4.35713-6.21991,8.74287-3.71667,14.61085,2.54254,5.96008,6.936,8.01618,13.36236,8.02741,30.982.05407,61.96747.25006,92.94233.86779,8.56622.1709,17.40588.901,25.57885,3.25421,13.05689,3.7594,23.7818,11.14441,27.70044,25.36268,3.529,12.80438,7.21259,25.57244,10.418,38.45849,6.17639,24.83,3.00812,48.277-10.23907,70.47315-6.6247,11.1-9.50452,23.66735-11.10889,36.46875-.39746,3.17144.34589,6.21978,3.81,6.2929,3.50342.07392,3.88544-3.14325,4.29224-6.17291a41.36545,41.36545,0,0,1,2.77386-11.48724c4.09039-9.03772,8.678-17.85352,13.17242-26.70441,9.59656-18.89856,11.1297-39.51111,10.03571-59.8418-1.16455-21.64178-5.06836-43.20935-15.95337-62.684a34.08267,34.08267,0,0,1-2.71789-5.86041c-1.50953-4.577-1.83271-9.10467,1.46087-13.21026A4.96532,4.96532,0,0,0,169.827,268.321c1.65-10.72345,1.23022-20.59058-7.97437-28.63074a124.01005,124.01005,0,0,1-27.49975-33.33673c-4.47675-8.08917-4.76032-14.3432,1.43383-21.97754,9.56556-11.78952,12.34369-11.29093,22.50281-.78125,6.35022,6.5694,12.00073,13.8161,17.95044,20.77154,12.66431,14.80506,29.61841,17.84632,47.81928,17.38587a4.28864,4.28864,0,0,0,2.6491-1.22968c5.53113-5.61029,12.05506-10.48425,12.79047-19.4049.37836-4.59,3.01306-5.82642,7.29913-4.19867,1.82044.69134,3.60376,1.85736,5.465,1.99749,7.13245.53693,14.28693.84473,21.43854,1.04236,5.13244.14185,9.9461-.86981,13.277-5.334,5.25091-7.03753,10.78363-13.89178,15.606-21.213,3.48243-5.28714,2.47589-11.87507-2.58593-15.514a65.96409,65.96409,0,0,0-16.43067-8.8162c-21.498-7.50527-42.05243,7.362-42.09,29.98114-.0058,3.49079-.10859,6.99671-.44892,10.468-.45923,4.684-3.50909,7.275-8.21918,7.299-3.49969.01783-6.99957.00385-10.49938.00348-17.04816-.00165-26.14783-7.53686-29.39344-24.329a29.29262,29.29262,0,0,0-9.09588-16.79132q-8.91933-8.00016-18.094-15.71466c-4.5628-3.85981-5.022-7.53675-1.056-12.24137a51.57252,51.57252,0,0,1,5.60614-5.641c5.49536-4.77543,11.08777-9.43927,16.64179-14.14727,3.62408,1.72914,7.153,4.67009,10.88984,4.9635,11.88215.93289,23.84327.83223,35.77076,1.22545,6.968.22972,14.01818.05455,20.87719,1.08622,15.85558,2.38488,31.66954,4.10711,47.36547-.37519,18.32361-5.23263,35.16461-3.33841,50.16375,9.15555-.49481,10.11841-3.28979,20.05609-.50244,30.42035,1.87122,6.958,2.41272,14.40912,2.58454,21.66241.45306,19.13562-6.22876,36.86463-11.71918,54.78821-4.58264,14.96027-10.13422,29.653-18.85,42.64337A167.29977,167.29977,0,0,1,283.69077,315.206c-9.0951,6.70251-18.41211,13.10437-27.6482,19.61468-4.14825,2.924-4.8529,7.18335-3.70361,11.52008,1.12335,4.23859,4.827,6.00232,8.97461,5.5686a67.64,67.64,0,0,0,14.47034-2.73919c4.174-1.403,7.93121-4.05921,11.8518-6.2002,9.89575-5.40381,19.97064-10.51166,29.62476-16.3183,15.07623-9.06775,29.95154-18.48016,44.70978-28.0581,3.47-2.252,6.13269-5.7478,9.16681-8.67139a6.75181,6.75181,0,0,1,.58013,2.24848c-.94134,8.59588-2.109,17.16912-2.92321,25.77618-.97632,10.32074-2.365,20.51587-8.212,29.40936-15.5426,23.64087-25.40735,50.113-37.565,75.4336-1.9339,4.02765-1.8244,9.03637-2.917,14.9956,3.86926-1.57171,5.96954-2.455,8.09161-3.28229,28.34955-11.051,56.64282-22.25,85.07776-33.077,15.372-5.85315,30.707-12.11762,46.55261-16.34509,30.17261-8.04975,60.70813-14.73523,91.075-22.0622,12.4187-2.9964,24.79029-6.1878,37.18323-9.29053,3.73157,1.931,7.57776.81379,9.09375-2.28265,1.16992-2.38959.74793-6.82727-.81836-9.04834A169.01256,169.01256,0,0,0,581.078,324.034c-10.01916-10.62476-20.09314-21.22974-30.68115-31.27722-10.99414-10.43286-12.78674-22.99549-10.75842-37.04859,1.09863-7.61181,1.62341-15.60229-2.67517-22.33673-7.85742-12.31012-16.38611-24.19324-24.69177-36.21509-3.67511-5.31952-7.93561-10.28436-11.163-15.85473-13.72711-23.69293-25.399-48.72806-43.54779-69.55481-8.80359-10.1026-5.95-30.31867,7.43854-36.12647,4.34216-1.88356,8.38324-5.501,13.97156-3.331a40.80014,40.80014,0,0,0,11.32208,2.76114c6.0849.48687,12.22589-1.07755,14.89837-6.90473,2.74024-5.97491,2.00336-12.97314-2.65124-17.74392a110.10759,110.10759,0,0,0-19.819-16.396C465.72876,23.317,446.79181,17.91033,426.83423,16.2904c-6.62592-.53782-13.31268-.39853-19.97235-.4332-13.972-.07269-27.26813-1.90091-39.30756-10.22678C363.31738,2.7004,357.214,2.47454,351.96857.994,350.96527.71093,349.98877.33376,349.00006,0Z" transform="translate(-0.00006 0)" fill="#fff"/><path d="M349.00006,0c.98871.33377,1.96521.71094,2.9682.99408,5.24536,1.48062,11.34876,1.70645,15.58551,4.63638,12.03949,8.32587,25.33557,10.15412,39.30756,10.22678,6.65961.03464,13.34643-.10464,19.97235.4332,19.95752,1.61993,38.89453,7.02661,55.88678,17.71548a110.10808,110.10808,0,0,1,19.819,16.396c4.6546,4.77078,5.39148,11.769,2.65125,17.74392-2.67243,5.82718-8.81348,7.39164-14.89838,6.90474a40.80014,40.80014,0,0,1-11.32208-2.76114c-5.58826-2.17-9.6294,1.44735-13.97156,3.331-13.38849,5.8078-16.24207,26.02387-7.43854,36.12646,18.14874,20.82676,29.82068,45.86188,43.54779,69.55481,3.22742,5.57044,7.48792,10.53528,11.163,15.85474,8.30572,12.02179,16.83429,23.905,24.69171,36.21509,4.29846,6.73443,3.7738,14.72491,2.67517,22.33673-2.02832,14.05308-.23572,26.61574,10.75842,37.0486,10.58814,10.04748,20.662,20.65252,30.68115,31.27722A169.01032,169.01032,0,0,1,596.355,342.39734c1.56629,2.221,1.98828,6.65875.81836,9.04834-1.516,3.09644-5.36218,4.21362-9.09289,2.28308-1.703-1.55609-3.55335-2.98151-5.08619-4.69134-7.85156-8.75824-15.74658-17.48328-23.37451-26.43445-4.83545-5.67426-9.08777-11.8429-13.85986-17.57471-6.06152-7.28039-12.778-14.05072-18.41345-21.63434a24.06,24.06,0,0,1-4.16-12.25177c-.57727-8.9469.07068-17.96588-.12915-26.94763-.072-3.24127-.36377-6.8974-1.89843-9.60217a114.1937,114.1937,0,0,0-12.20948-18.191c-7.907-9.20868-16.2312-17.945-21.75787-28.99884-7.94171-15.88388-16.36163-31.52935-24.63147-47.24817-4.12512-7.84066-11.57794-8.72744-17.39557-2.04684a23.23735,23.23735,0,0,0-3.84546,5.79755c-2.5841,5.92807-4.894,11.976-7.29431,17.98373-4.86072,12.16612-9.28589,24.52879-14.68341,36.45158-5.33368,11.78144-11.49493,23.19989-17.56134,34.63532-10.10169,19.042-20.41748,37.97034-30.64313,56.94653-3.03406,2.92359-5.69678,6.41937-9.16675,8.67139-14.75824,9.57788-29.63354,18.99036-44.70977,28.0581-9.65412,5.80664-19.729,10.91449-29.62476,16.3183-3.92059,2.141-7.6778,4.79718-11.85181,6.2002a67.63981,67.63981,0,0,1-14.47033,2.73919c-4.14759.43366-7.85126-1.33-8.97461-5.5686-1.14931-4.33673-.44464-8.59613,3.70361-11.52008,9.23608-6.51031,18.5531-12.91217,27.64819-19.61468a167.29981,167.29981,0,0,0,39.80817-41.66755c8.71582-12.99041,14.2674-27.6831,18.85-42.64337,5.49035-17.92358,12.17224-35.65265,11.71917-54.78821-.17175-7.25329-.71331-14.7044-2.58453-21.66241-2.78729-10.36426.00769-20.30194.5025-30.42062,3.5163-.91016,7.05329-1.74747,10.54535-2.74269,14.41834-4.10913,25.58057-12.91284,35.43872-23.92853,7.41913-8.29013,15.276-16.22624,23.36566-23.86718,7.15076-6.75408,16.04816-10.36524,25.60682-12.69488,3.16473-.77131,7.20941-2.61445,8.595-5.18433,5.69946-10.57087,3.1134-19.93637-8.37806-24.37857a93.44318,93.44318,0,0,0-30.11291-6.02985c-12.82532-.42243-25.73047,1.62253-38.60425,2.56061a8.87688,8.87688,0,0,1-3.43976-.27524,142.95763,142.95763,0,0,1-14.488-5.32275c-12.05854-5.6708-24.18763-6.56094-36.709-1.75885-6.19726,2.37668-12.347,5.07781-18.75836,6.65821A361.25452,361.25452,0,0,0,246.773,47.11492c-18.23169,7.96347-32.06574,21.158-46.07972,34.42146-5.80078,5.49008-10.20959,11.73245-11.539,19.86258-.36816,2.25152-1.47021,4.383-2.23553,6.56964-5.554,4.708-11.14636,9.37182-16.64179,14.14728a51.57075,51.57075,0,0,0-5.60614,5.641c-3.966,4.70461-3.50677,8.38155,1.056,12.24135q9.148,7.73855,18.094,15.71466a29.29268,29.29268,0,0,1,9.09588,16.79132c3.24561,16.79218,12.34528,24.3274,29.39344,24.329,3.49981.00036,6.99969.01434,10.49939-.00348,4.71008-.024,7.76-2.615,8.21917-7.299.34033-3.47125.44312-6.97717.44892-10.468.03747-22.61911,20.592-37.48642,42.09-29.98114a65.96367,65.96367,0,0,1,16.43066,8.81619c5.06183,3.639,6.06836,10.2269,2.58594,15.514-4.82233,7.32121-10.355,14.17541-15.606,21.213-3.33087,4.46424-8.14447,5.47589-13.277,5.334-7.15161-.19763-14.30609-.50543-21.43853-1.04236-1.86121-.14007-3.64453-1.30615-5.465-1.99749-4.28607-1.62775-6.92078-.3913-7.29913,4.19867-.73542,8.92065-7.2594,13.79461-12.79047,19.4049a4.28867,4.28867,0,0,1-2.64911,1.22968c-18.20087.46045-35.155-2.58081-47.81927-17.38587-5.94971-6.95544-11.60022-14.20213-17.95044-20.77154-10.15912-10.50967-12.93726-11.00827-22.50281.78125-6.19415,7.63434-5.91064,13.88837-1.43384,21.97754a124.00975,124.00975,0,0,0,27.49976,33.33673c9.20459,8.0401,9.62433,17.90729,7.97436,28.63074a4.96519,4.96519,0,0,1-1.12347,2.16388c-3.29358,4.10559-2.9704,8.6333-1.46088,13.21026a34.08347,34.08347,0,0,0,2.7179,5.86041c10.885,19.47461,14.78882,41.04218,15.95337,62.6839,1.094,20.33063-.43909,40.94324-10.03571,59.8418-4.49444,8.85089-9.08209,17.66669-13.17242,26.70441a41.36512,41.36512,0,0,0-2.77387,11.48724c-.4068,3.02966-.78876,6.24689-4.29223,6.17291-3.46418-.07312-4.20752-3.12146-3.81-6.2929,1.60437-12.8014,4.48419-25.36878,11.10889-36.46875,13.24713-22.19611,16.41546-45.64319,10.23907-70.47315-3.20538-12.886-6.889-25.65411-10.418-38.45849-3.91864-14.21827-14.64355-21.60334-27.70044-25.36268-8.173-2.35314-17.01269-3.08331-25.57886-3.25421-30.97485-.61773-61.96032-.81372-92.94232-.86779-6.42633-.01124-10.81982-2.06727-13.36236-8.02741-2.50324-5.868.62085-10.25378,3.71667-14.61084a12.50874,12.50874,0,0,1,3.62665-3.40771c19.49017-11.71534,36.805-26.93567,57.94061-35.99451,2.13544-.91528,4.25934-1.88391,6.45777-2.62146,13.86309-4.651,24.53192-13.738,34.13446-24.35767a133.69943,133.69943,0,0,0,18.813-27.43924c4.72522-8.91342,10.70943-17.16815,16.26184-25.63241,8.56966-13.06378,16.47784-26.65576,26.05092-38.94535,15.17218-19.4775,32.14038-37.38922,53.85284-49.92825a90.81689,90.81689,0,0,1,14.50263-6.53476c23.07672-8.35541,46.223-16.51852,69.3432-24.75406,1.40509-.50049,3.01178-.74389,4.16406-1.59512C319.57239,5.855,328.1709,2.69021,336.99994,0Z" transform="translate(-0.00006 0)"/><path d="M371.13672,289.92218c10.22565-18.97626,20.54144-37.9046,30.64313-56.94653,6.0664-11.43543,12.22772-22.85382,17.5614-34.63532,5.39758-11.92273,9.82275-24.28543,14.68341-36.4516C436.425,155.881,438.73493,149.833,441.319,143.905a23.23753,23.23753,0,0,1,3.84546-5.79755c5.81757-6.6806,13.27045-5.79382,17.39557,2.04685,8.26984,15.71878,16.68976,31.36426,24.63147,47.24814,5.52667,11.05383,13.85089,19.79016,21.75787,28.99884a114.19222,114.19222,0,0,1,12.20951,18.191c1.53466,2.70477,1.82629,6.3609,1.89843,9.60217.19983,8.98175-.44812,18.00078.12915,26.94762a24.06,24.06,0,0,0,4.16,12.25177c5.63549,7.58368,12.35193,14.35394,18.41345,21.63434,4.77209,5.73181,9.02441,11.90045,13.85986,17.57471,7.628,8.95117,15.523,17.6762,23.37451,26.43444,1.533,1.7099,3.38318,3.13526,5.08619,4.69135-12.3938,3.10229-24.76539,6.2937-37.184,9.2901-30.36669,7.327-60.90234,14.01245-91.075,22.06219-15.84558,4.22748-31.18066,10.492-46.55261,16.3451-28.43488,10.827-56.72815,22.026-85.07776,33.077-2.12207.82727-4.22235,1.71051-8.09161,3.28229,1.09259-5.95923.98315-10.968,2.917-14.9956,12.15759-25.32056,22.02234-51.79273,37.565-75.4336,5.847-8.89349,7.23572-19.08862,8.212-29.40936.81421-8.607,1.98187-17.1803,2.92322-25.77619A6.75282,6.75282,0,0,0,371.13672,289.92218Z" transform="translate(-0.00006 0)" fill="#5d8ab2"/><path d="M186.91876,107.96844c.76532-2.18659,1.86737-4.31812,2.23554-6.56964,1.3294-8.13013,5.73822-14.3725,11.539-19.86258,14.014-13.26346,27.848-26.458,46.07971-34.42145a361.254,361.254,0,0,1,58.27411-20.05506c6.41132-1.58038,12.5611-4.28152,18.75836-6.6582,12.52143-4.80209,24.65051-3.912,36.709,1.75885a142.95047,142.95047,0,0,0,14.488,5.32276,8.87707,8.87707,0,0,0,3.43976.27523c12.87378-.93808,25.779-2.983,38.60425-2.5606a93.4429,93.4429,0,0,1,30.11291,6.02984c11.49146,4.4422,14.07752,13.80771,8.37806,24.37857-1.38562,2.56986-5.4303,4.413-8.595,5.18433-9.55865,2.32965-18.45605,5.94079-25.60681,12.69488C413.246,81.1263,405.389,89.06243,397.97,97.35256c-9.85821,11.01567-21.02044,19.81938-35.43878,23.92853-3.492.99521-7.029,1.83252-10.54535,2.74267-14.99921-12.49368-31.84015-14.3879-50.16376-9.15527-15.69592,4.48227-31.50988,2.76-47.36547.37518-6.85907-1.03167-13.90918-.8565-20.8772-1.08621-11.92749-.39319-23.88861-.29258-35.77075-1.22547C194.07178,112.63857,190.54285,109.69762,186.91876,107.96844Z" transform="translate(-0.00006 0)" fill="#5d8ab2"/></svg>