<?xml version="1.0" encoding="UTF-8" standalone="no"?>
<!-- Generator: Adobe Illustrator 26.0.3, SVG Export Plug-In . SVG Version: 6.00 Build 0)  -->

<svg
   version="1.0"
   id="katman_1"
   x="0px"
   y="0px"
   viewBox="0 0 239.8 318"
   xml:space="preserve"
   xmlns="http://www.w3.org/2000/svg"
   xmlns:svg="http://www.w3.org/2000/svg"><defs
   id="defs12" />
<style
   type="text/css"
   id="style1">
	.st0{fill:#2C2355;}
	.st1{fill:#F39422;}
	.st2{fill:url(#SVGID_1_);}
	.st3{fill:url(#SVGID_00000057123192507860559310000017349662078926199186_);}
	.st4{fill:url(#SVGID_00000173846101349386669210000018168037971070328763_);}
	.st5{fill:#FFFFFF;}
</style>
<g
   id="g12"
   transform="translate(-180.2,-66.4)">
	<path
   class="st0"
   d="m 248.9,309.5 h -34 c 4.5,15.4 12.9,29.2 25.1,41.4 19.5,19.4 42.9,29.1 70.3,29.1 5.3,0 10.7,-0.4 15.9,-1.2 20.6,-3.1 38.7,-12.4 54.2,-27.9 12.3,-12.2 20.7,-26 25.2,-41.4 z"
   id="path1" />
	<path
   class="st0"
   d="m 230.1,263.5 h -17.8 c -0.7,3.9 -1.1,7.9 -1.3,11.9 h 198.4 c -0.2,-4 -0.6,-8 -1.3,-11.9 m -197,23 c 0.2,4 0.6,8 1.3,11.9 h 195.8 c 0.7,-3.9 1.1,-7.9 1.3,-11.9"
   id="path2" />
	<path
   class="st0"
   d="m 405.7,252.4 c -4.5,-15.4 -12.9,-29.3 -25.3,-41.6 -15.4,-15.4 -33.5,-24.6 -54,-27.7 -5.3,-0.8 -10.7,-1.2 -16.1,-1.2 -27.4,0 -50.8,9.6 -70.3,28.9 -12.2,12.3 -20.6,26.1 -25.1,41.6"
   id="path3" />
	<path
   class="st1"
   d="m 205.2,281 c 0,-52.2 39.4,-95.7 90.6,-103.3 -1.3,0 -2.5,-0.1 -3.8,-0.1 -57.5,0 -104.1,46.3 -104.1,103.4 0,57.1 46.6,103.4 104.1,103.4 1.3,0 2.6,0 3.8,-0.1 -51.3,-7.6 -90.6,-51.1 -90.6,-103.3 z"
   id="path4" />
	
		<linearGradient
   id="SVGID_1_"
   gradientUnits="userSpaceOnUse"
   x1="6.0377998"
   y1="395.2916"
   x2="6.0377998"
   y2="418.52969"
   gradientTransform="matrix(72.583,0,0,-6.411,-127.9439,2927.6902)">
		<stop
   offset="0.3033"
   style="stop-color:#473788"
   id="stop4" />
		<stop
   offset="0.872"
   style="stop-color:#2C2355"
   id="stop5" />
	</linearGradient>
	<path
   class="st2"
   d="m 377.8,275.5 c -0.3,-4 -1,-8 -2.1,-11.9 H 244.8 c -1,3.9 -1.7,7.9 -2.1,11.9 z"
   id="path5"
   style="fill:url(#SVGID_1_)" />
	
		<linearGradient
   id="SVGID_00000131366797292149541320000008395046435861751440_"
   gradientUnits="userSpaceOnUse"
   x1="6.0379"
   y1="397.21411"
   x2="6.0379"
   y2="420.4523"
   gradientTransform="matrix(72.582,0,0,-6.41,-127.9419,2939.6052)">
		<stop
   offset="0.3033"
   style="stop-color:#473788"
   id="stop6" />
		<stop
   offset="0.872"
   style="stop-color:#2C2355"
   id="stop7" />
	</linearGradient>
	<path
   style="fill:url(#SVGID_00000131366797292149541320000008395046435861751440_)"
   d="m 377.8,286.5 h -135 c 0.3,4.1 1,8.1 2.1,11.9 h 130.9 c 1,-3.8 1.7,-7.8 2,-11.9 z"
   id="path7" />
	
		<linearGradient
   id="SVGID_00000084506553637231819630000012661464958548064421_"
   gradientUnits="userSpaceOnUse"
   x1="6.4882998"
   y1="435.14481"
   x2="6.4882998"
   y2="442.25049"
   gradientTransform="matrix(66.028,0,0,-20.966,-118.1109,9516.7246)">
		<stop
   offset="0.3033"
   style="stop-color:#473788"
   id="stop8" />
		<stop
   offset="0.8631"
   style="stop-color:#2C2355"
   id="stop9" />
	</linearGradient>
	<path
   style="fill:url(#SVGID_00000084506553637231819630000012661464958548064421_)"
   d="m 310.3,348.5 c 27.2,0 50.6,-16 61.4,-39 H 248.9 c 10.8,23.1 34.2,39 61.4,39 z"
   id="path9" />
	<path
   class="st5"
   d="m 232.8,286.5 h 176.6 c 0.1,-1.8 0.1,-3.5 0.1,-5.3 0,-1.9 -0.1,-3.8 -0.2,-5.8 H 211.1 c -0.1,1.9 -0.2,3.8 -0.2,5.8 0,1.8 0.1,3.6 0.1,5.3 z m 15.7,-34.1 h -33.6 c -1.1,3.6 -1.8,7.3 -2.5,11.1 h 195.2 c -0.7,-3.7 -1.6,-7.4 -2.7,-11.1 m -10.1,46.1 H 212.4 c 0.7,3.8 1.4,7.5 2.5,11.1 h 190.7 c 1.1,-3.6 2,-7.3 2.6,-11.1 z"
   id="path10" />
	<path
   class="st1"
   d="m 283.4,66.4 h 7.3 v 9.3 h -7.3 z"
   id="path11" />
	<path
   class="st0"
   d="m 221.7,104.5 v 3.6 h -33.8 c 0.3,5.1 1.8,8.9 4.6,11.6 2.7,2.7 6.5,4 11.4,4 2.8,0 5.6,-0.3 8.2,-1 2.7,-0.7 5.4,-1.8 7.9,-3.1 v 7 c -2.6,1.1 -5.3,2 -8.1,2.6 -2.8,0.6 -5.6,0.9 -8.4,0.9 -7.1,0 -12.8,-2.1 -17,-6.2 -4.2,-4.2 -6.3,-9.8 -6.3,-16.9 0,-7.3 2,-13.1 5.9,-17.4 4,-4.3 9.3,-6.5 16,-6.5 6,0 10.8,1.9 14.3,5.8 3.6,3.7 5.3,9 5.3,15.6 z m -7.3,-2.1 c -0.1,-4 -1.2,-7.2 -3.4,-9.6 -2.2,-2.4 -5.1,-3.6 -8.7,-3.6 -4.1,0 -7.4,1.2 -9.8,3.5 -2.5,2.3 -3.9,5.6 -4.3,9.8 z m 45.2,-16.7 v 6.9 c -2,-1.1 -4.1,-2 -6.3,-2.6 -2.1,-0.6 -4.2,-0.9 -6.3,-0.9 -4.8,0 -8.5,1.5 -11.1,4.5 -2.6,3 -4,7.3 -4,12.7 0,5.5 1.3,9.7 4,12.7 2.6,3 6.3,4.5 11.1,4.5 2.1,0 4.2,-0.3 6.3,-0.9 2.2,-0.6 4.3,-1.5 6.3,-2.6 v 6.8 c -2,1 -4.2,1.7 -6.4,2.2 -2.3,0.5 -4.7,0.7 -7,0.7 -6.7,0 -12.1,-2.1 -16.1,-6.4 -4,-4.2 -6,-9.9 -6,-17.1 0,-7.3 2,-13 6,-17.2 4,-4.2 9.5,-6.3 16.5,-6.3 2.3,0 4.5,0.2 6.6,0.7 2.3,0.7 4.4,1.4 6.4,2.3 m 7.2,-19.3 h 7.4 v 62.2 h -7.4 z m 16.6,17.2 h 7.3 v 44.7 h -7.3 z m 23.2,38.4 v 23.7 h -7.4 V 84 h 7.4 v 6.8 c 1.5,-2.7 3.5,-4.6 5.9,-5.9 2.4,-1.3 5.2,-1.9 8.4,-1.9 5.4,0 9.8,2.2 13.2,6.5 3.4,4.3 5.1,10 5.1,17 0,7 -1.7,12.7 -5.1,17 -3.4,4.3 -7.8,6.5 -13.2,6.5 -3.3,0 -6.1,-0.6 -8.4,-1.9 -2.4,-1.4 -4.4,-3.4 -5.9,-6.1 m 25,-15.6 c 0,-5.4 -1.1,-9.6 -3.3,-12.7 -2.2,-3.1 -5.3,-4.6 -9.2,-4.6 -3.9,0 -6.9,1.5 -9.2,4.6 -2.2,3.1 -3.3,7.3 -3.3,12.7 0,5.4 1.1,9.6 3.3,12.7 2.2,3.1 5.3,4.6 9.2,4.6 3.9,0 6.9,-1.5 9.2,-4.6 2.2,-3 3.3,-7.3 3.3,-12.7 m 42.7,-21.1 v 6.9 c -2.1,-1.1 -4.2,-1.9 -6.5,-2.4 -2.3,-0.5 -4.6,-0.8 -7,-0.8 -3.6,0 -6.4,0.6 -8.2,1.7 -1.8,1.1 -2.7,2.8 -2.7,5 0,1.7 0.7,3 2,4 1.3,1 3.9,1.9 7.9,2.8 l 2.5,0.6 c 5.2,1.1 8.9,2.7 11.1,4.7 2.2,2 3.3,4.9 3.3,8.5 0,4.2 -1.6,7.4 -4.9,9.9 -3.3,2.4 -7.8,3.6 -13.6,3.6 -2.4,0 -4.9,-0.2 -7.5,-0.7 -2.8,-0.5 -5.5,-1.2 -8.2,-2.1 v -7.6 c 2.7,1.4 5.4,2.5 8,3.2 2.6,0.7 5.2,1.1 7.8,1.1 3.5,0 6.1,-0.6 8,-1.8 1.9,-1.2 2.8,-2.9 2.8,-5 0,-2 -0.7,-3.5 -2,-4.6 -1.3,-1.1 -4.3,-2.1 -8.8,-3.1 l -2.6,-0.6 c -4.6,-1 -7.8,-2.4 -9.9,-4.4 -2,-2 -3,-4.7 -3,-8.2 0,-4.2 1.5,-7.5 4.5,-9.7 3,-2.3 7.2,-3.4 12.7,-3.4 2.7,0 5.3,0.2 7.7,0.6 2.3,0.4 4.5,1 6.6,1.8 m 45.7,19.2 v 3.6 h -33.8 c 0.3,5.1 1.8,8.9 4.6,11.6 2.7,2.7 6.5,4 11.4,4 2.8,0 5.6,-0.3 8.2,-1 2.7,-0.7 5.4,-1.8 7.9,-3.1 v 7 c -2.6,1.1 -5.3,2 -8.1,2.6 -2.8,0.6 -5.6,0.9 -8.4,0.9 -7.1,0 -12.8,-2.1 -17,-6.2 -4.2,-4.2 -6.3,-9.8 -6.3,-16.9 0,-7.3 2,-13.1 5.9,-17.4 4,-4.3 9.3,-6.5 16,-6.5 6,0 10.8,1.9 14.3,5.8 3.5,3.7 5.3,9 5.3,15.6 z m -7.4,-2.1 c -0.1,-4 -1.2,-7.2 -3.4,-9.6 -2.2,-2.4 -5.1,-3.6 -8.7,-3.6 -4.1,0 -7.4,1.2 -9.8,3.5 -2.5,2.3 -3.9,5.6 -4.3,9.8 z"
   id="path12" />
</g>
</svg>
