<svg viewBox="0 0 117 40" fill="none" xmlns="http://www.w3.org/2000/svg"><g clip-path="url(#clip0_3472_2853)"><path d="M40.1527 20.9588C40.1527 17.5986 38.0653 14.6457 34.9257 13.5087C35.0615 12.7959 35.1294 12.0832 35.1294 11.3534C35.1294 5.09122 30.0382 0 23.7929 0C20.1273 0 16.7331 1.74799 14.5948 4.70089C13.5426 3.8863 12.2529 3.44506 10.9122 3.44506C7.58591 3.44506 4.88757 6.14341 4.88757 9.46967C4.88757 10.1994 5.02333 10.9122 5.26092 11.574C2.13831 12.6941 0 15.6979 0 19.0412C0 22.4183 2.10437 25.3712 5.24395 26.5083C5.10819 27.2041 5.0403 27.9338 5.0403 28.6636C5.0403 34.9088 10.1145 39.983 16.3598 39.983C20.0255 39.983 23.4196 38.2181 25.5409 35.2652C26.5931 36.0967 27.8829 36.5549 29.2236 36.5549C32.5498 36.5549 35.2482 33.8566 35.2482 30.5303C35.2482 29.8006 35.1124 29.0878 34.8748 28.426C37.9974 27.3059 40.1527 24.3021 40.1527 20.9588Z"></path><path d="M15.7826 17.2248L24.5735 21.2299L33.4322 13.4573C33.568 12.8124 33.6189 12.1845 33.6189 11.5056C33.6189 6.04106 29.1725 1.59473 23.708 1.59473C20.4326 1.59473 17.3949 3.20695 15.5451 5.90529L14.0686 13.5591L15.7826 17.2248Z"></path><path d="M6.68643 26.5253C6.55067 27.1702 6.49976 27.832 6.49976 28.5109C6.49976 33.9924 10.9631 38.4387 16.4446 38.4387C19.7369 38.4387 22.8086 36.8095 24.6584 34.0942L26.1179 26.4744L24.1663 22.7408L15.3415 18.7188L6.68643 26.5253Z"></path><path d="M6.63518 11.3195L12.6598 12.745L13.9835 5.90581C13.1689 5.27789 12.1507 4.93848 11.0985 4.93848C8.48499 4.93848 6.34668 7.05982 6.34668 9.69028C6.34668 10.2503 6.4485 10.8103 6.63518 11.3195Z"></path><path d="M6.11005 12.7617C3.42867 13.6442 1.54492 16.2237 1.54492 19.0579C1.54492 21.8241 3.25896 24.2848 5.82155 25.2691L14.273 17.6323L12.7286 14.323L6.11005 12.7617Z"></path><path d="M26.186 34.0937C27.0176 34.7216 28.0189 35.078 29.0541 35.078C31.6676 35.078 33.8059 32.9567 33.8059 30.3262C33.8059 29.7492 33.7041 29.1892 33.5174 28.6801L27.5098 27.2715L26.186 34.0937Z"></path><path d="M27.4074 25.6936L34.026 27.2379C36.7243 26.3554 38.5911 23.7759 38.5911 20.9248C38.5911 18.1755 36.8771 15.6978 34.3145 14.7305L25.6594 22.3164L27.4074 25.6936Z"></path><path d="M56.1395 28.0863L56.9371 28.0014L56.988 29.6306C54.8836 29.9191 53.0847 30.0718 51.5913 30.0718C49.6057 30.0718 48.1971 29.4948 47.3656 28.3408C46.534 27.1868 46.1267 25.3879 46.1267 22.9611C46.1267 18.1075 48.0614 15.6807 51.9137 15.6807C53.7805 15.6807 55.1721 16.2068 56.0885 17.242C57.005 18.2772 57.4632 19.9233 57.4632 22.1465L57.3444 23.7248H48.2141C48.2141 25.2521 48.4856 26.3892 49.0457 27.1189C49.6057 27.8487 50.5561 28.222 51.9307 28.222C53.3223 28.256 54.7139 28.2051 56.1395 28.0863ZM55.3927 22.0956C55.3927 20.3985 55.1212 19.1936 54.5781 18.4978C54.0351 17.802 53.1526 17.4456 51.9307 17.4456C50.7088 17.4456 49.7754 17.819 49.1645 18.5487C48.5535 19.2785 48.2311 20.4664 48.2141 22.0956H55.3927Z"></path><path d="M60.3481 29.8177V9.96191H62.4186V29.8177H60.3481Z"></path><path d="M75.5031 20.1615V26.9668C75.5031 27.6626 77.2171 27.7984 77.2171 27.7984L77.1153 29.6312C75.6558 29.6312 74.4509 29.75 73.7212 29.0542C72.058 29.7839 70.4119 30.0894 68.7487 30.0894C67.4759 30.0894 66.5086 29.733 65.8467 29.0033C65.1849 28.2905 64.8455 27.2553 64.8455 25.8977C64.8455 24.557 65.1849 23.5557 65.8637 22.9278C66.5425 22.2999 67.6117 21.8926 69.0712 21.7568L73.4157 21.3495V20.1615C73.4157 19.2282 73.212 18.5493 72.8047 18.142C72.3974 17.7347 71.8374 17.5311 71.1416 17.5311H65.694V15.6982H71.0058C72.5671 15.6982 73.7042 16.0546 74.417 16.7844C75.1467 17.4971 75.5031 18.6342 75.5031 20.1615ZM66.9838 25.7958C66.9838 27.4929 67.6796 28.3414 69.0881 28.3414C70.344 28.3414 71.5828 28.1378 72.7878 27.7135L73.4157 27.4929V22.9278L69.3257 23.3181C68.4942 23.386 67.9002 23.6236 67.5268 24.0309C67.1535 24.4382 66.9838 25.0321 66.9838 25.7958Z"></path><path d="M83.5981 17.5477C81.5955 17.5477 80.5773 18.2435 80.5773 19.6521C80.5773 20.2969 80.8149 20.7552 81.2731 21.0267C81.7313 21.2982 82.7835 21.5697 84.4297 21.8582C86.0758 22.1467 87.2298 22.5371 87.9087 23.0632C88.5875 23.5723 88.9269 24.5396 88.9269 25.9652C88.9269 27.3907 88.4687 28.4259 87.5523 29.0878C86.6359 29.7496 85.3121 30.089 83.5472 30.089C82.4101 30.089 78.5917 29.6648 78.5917 29.6648L78.7105 27.8659C80.8997 28.0695 82.495 28.2392 83.5641 28.2392C84.6333 28.2392 85.4479 28.0695 86.0079 27.7301C86.568 27.3907 86.8565 26.8137 86.8565 26.0161C86.8565 25.2184 86.6189 24.6754 86.1437 24.3869C85.6685 24.0984 84.6163 23.8269 82.9871 23.5723C81.3579 23.3177 80.2039 22.9444 79.5251 22.4353C78.8463 21.9431 78.5068 21.0097 78.5068 19.669C78.5068 18.3283 78.982 17.3271 79.9324 16.6822C80.8827 16.0373 82.0707 15.7148 83.4793 15.7148C84.5994 15.7148 88.5026 16.0033 88.5026 16.0033V17.8192C86.4492 17.7004 84.7691 17.5477 83.5981 17.5477Z"></path><path d="M98.9392 17.7857H94.5438V24.4043C94.5438 25.9826 94.6626 27.0348 94.8832 27.5269C95.1208 28.0191 95.6639 28.2736 96.5294 28.2736L98.9901 28.1039L99.1259 29.818C97.887 30.0216 96.9536 30.1234 96.3087 30.1234C94.8662 30.1234 93.8819 29.767 93.3219 29.0712C92.7619 28.3754 92.4903 27.0348 92.4903 25.0662V17.7857H90.5217V15.9868H92.4903V11.7441H94.5438V15.9699H98.9392V17.7857Z"></path><path d="M101.824 12.847V10.4541H103.895V12.8639L101.824 12.847ZM101.824 29.8177V15.9866H103.895V29.8177H101.824Z"></path><path d="M112.889 15.6982C113.5 15.6982 114.535 15.817 115.995 16.0377L116.656 16.1225L116.572 17.8026C115.095 17.6329 114.009 17.5481 113.313 17.5481C111.752 17.5481 110.683 17.9214 110.123 18.6681C109.563 19.4148 109.274 20.8064 109.274 22.8259C109.274 24.8455 109.529 26.254 110.055 27.0517C110.581 27.8493 111.667 28.2396 113.33 28.2396L116.589 27.9851L116.673 29.6991C114.959 29.9537 113.67 30.0894 112.821 30.0894C110.666 30.0894 109.172 29.5294 108.358 28.4263C107.543 27.3232 107.119 25.4564 107.119 22.8259C107.119 20.1955 107.56 18.3457 108.443 17.2935C109.342 16.2413 110.819 15.6982 112.889 15.6982Z"></path></g><defs><clipPath id="clip0_3472_2853"><rect width="116.674" height="40" fill="white"></rect></clipPath></defs></svg>