<svg xmlns="http://www.w3.org/2000/svg" viewBox="0 0 246 246"><title>Entity_Developer_1</title><rect width="246" height="246" fill="#fff" opacity="0"/><polyline points="195 81.422 195 164.563 123 206.141 51 164.563 51 81.422 123 39.859 195 81.422" fill="#00cf8a"/><polyline points="123 39.859 51 81.422 123 123.002 123 123 123 39.859" fill="#26d69b"/><polyline points="123 123 51 164.563 123 206.141 123 123.002" fill="#00bc6e"/><polyline points="195 81.422 123.002 123.001 195 164.563 195 164.561 195 81.422" fill="#00b25f"/><polyline points="123 39.859 123 123 195 81.422 123 39.859" fill="#0fbd77"/><polyline points="123.002 123.001 123 123.002 123 206.141 195 164.561 123 123" fill="#009446"/><polyline points="123 123 123 123.002 123.002 123.001 123 123" fill="#09a456"/><polygon points="83.571 100.717 95.447 93.862 85.162 87.922 73.285 94.778 73.285 116.892 67.178 123 73.285 129.108 73.285 151.221 85.161 158.079 95.446 152.141 83.571 145.284 83.571 100.717" fill="#fff"/><polygon points="172.715 116.892 172.715 94.778 160.837 87.921 153.133 92.37 150.551 93.861 162.429 100.717 162.429 145.284 150.554 152.141 160.839 158.078 172.715 151.221 172.715 129.108 178.822 123 172.715 116.892" fill="#fff"/><path d="M152.143,106.17,123,89.3486,93.857,106.17v33.6514L123,156.6514l29.143-16.83Zm-10.9746,5.5422L123,122.2048l-18.1684-10.4925L123,101.2247ZM123,144.7753l-18.8573-10.89V123.1925L123,134.0843l18.8573-10.8918v10.6926Z" fill="#fff"/></svg>