<svg id="Layer_1" data-name="Layer 1" xmlns="http://www.w3.org/2000/svg" viewBox="0 0 80.55 113.39"><defs><style>.cls-1{fill:#e6a329;}.cls-2{fill:#f1bf22;}.cls-3{fill:#fff;}.cls-4{fill:#ebebeb;}.cls-5{fill:#231f20;}</style></defs><polygon class="cls-1" points="80.55 22.22 40.27 22.22 40.27 22.22 0 22.22 7.55 104.11 40.27 113.39 40.27 113.39 40.27 113.39 40.27 113.39 40.27 113.39 72.99 104.11 80.55 22.22"/><polygon class="cls-2" points="40.27 28.89 40.27 106.45 40.27 106.45 66.78 98.94 73.23 28.89 40.27 28.89"/><polygon class="cls-3" points="61.36 38.94 20.6 38.94 17.76 69.6 17.82 69.41 52.45 69.41 51.32 82.38 40.27 85.56 29.06 82.33 28.39 74.48 18.21 74.48 19.66 90.17 40.27 96.02 60.89 90.17 63.73 59.38 26.98 59.38 27.45 49.12 52.95 49.12 53.33 55 63.6 55 61.36 38.94"/><path class="cls-4" d="M70.87,53.11H51.19L48.35,83.77l.06-.19H70.87v-10H59l.47-10.27H70.87ZM59,88.65H48.8l1.45,15.69,20.62,5.84V99.74L59.65,96.5Z" transform="translate(-30.59 -14.17)"/><polygon class="cls-5" points="32.44 10.14 25.27 10.14 25.27 15.29 32.44 15.29 36.27 15.29 37.57 15.29 37.57 0 32.44 0 32.44 10.14"/><path class="cls-5" d="M85.87,14.25H73.37V19.6c1.67,1.68,2.55,2.48,5,4.89h-5v4.88h12.5V24.5l-5-4.9h5Z" transform="translate(-30.59 -14.17)"/></svg>