<svg xmlns="http://www.w3.org/2000/svg" viewBox="0 0 391.44 201.3"><defs><style>.cls-1,.cls-3{fill:#006189;}.cls-2,.cls-4{fill:#e48f00;}.cls-3,.cls-4{fill-rule:evenodd;}.cls-5{font-size:29.38px;fill:#a4a3a3;font-family:HelveticaNeue-MediumExt, Helvetica Neue;font-weight:500;}</style></defs><g id="Layer_2" data-name="Layer 2"><g id="Layer_1-2" data-name="Layer 1"><path class="cls-1" d="M1.64,183.35H14.49V132.64l19.88,44.21c2.34,5.35,5.55,7.25,11.85,7.25s9.39-1.9,11.73-7.25l19.88-44.21v50.71H90.67V132.73c0-4.94-2-7.33-6-8.57-9.75-3-16.3-.41-19.26,6.18L45.85,174,27,130.34c-2.84-6.59-9.51-9.22-19.26-6.18-4.08,1.24-6.06,3.63-6.06,8.57v50.62Z"/><path class="cls-1" d="M101.35,142.08h12.84V170c-.12,1.51.49,5.08,7.52,5.19,3.59,0,27.7,0,27.93,0V141.94H162.5c.06,0,0,45.37,0,45.56.07,11.19-13.88,13.62-20.31,13.8H101.63v-8.63h40.62c8.27-.87,7.29-5,7.29-6.36v-3.37h-27.3c-12.69-.12-20.78-5.66-20.88-12,0-.59.27-28.54,0-28.82Z"/><path class="cls-2" d="M172.4,183.35h36.92a28.45,28.45,0,0,0,11.86-2.47c5.55-2.55,8.27-6,8.27-10.53V161c0-3.7-3.09-7.16-9.14-9.46a31.46,31.46,0,0,0-11-1.9H193.76c-5.18,0-7.65-1.56-8.27-5a3.76,3.76,0,0,1-.12-1.15v-5.85a3.51,3.51,0,0,1,.12-1.07c.62-2.63,2-3.37,6.55-3.78.37,0,.86-.09,1.23-.09h36.67v-8.56H193.89c-5.19,0-7.91.33-10.37,1.07-7.66,2.39-11,6.18-11,12.76v7.49c0,5.77,6.54,10.71,17.53,11.86,1.23.08,2.47.16,3.7.16H207.1a7.11,7.11,0,0,1,1.36.08c4.07.33,5.8,1.07,7,2.56a3,3,0,0,1,1,2.3v7.49a4.27,4.27,0,0,1-1.85,3.05,9,9,0,0,1-5.43,1.81c-.49,0-.87.08-1.36.08H172.4v8.56Z"/><path class="cls-2" d="M309.56,168.45c0,8.81,6.55,13.75,19.76,14.74,1.23.08,2.47.16,3.7.16h33.47v-8.56H332.78c-7.54,0-10.38-1.89-10.38-6.42V124.08H309.56v44.37Z"/><path class="cls-2" d="M237.65,168.9V138.38c0-7.75,5.44-12.46,16.21-13.94a23.69,23.69,0,0,1,3.46-.25H281.7a25.35,25.35,0,0,1,3.58.25c10.77,1.48,16.21,6.19,16.21,13.94V168.9c0,6.29-2.31,9.66-7.64,11.85l12.65,11.42H291.59l-10.23-9.23-10.3.65H257.32a28.17,28.17,0,0,1-7.55-1.08c-8.16-2.22-12.12-6.51-12.12-13.61Zm13.86-.74a5.78,5.78,0,0,0,.24,1.32c.75,3.55,4.09,5.53,9.16,5.53h11.67l-10.72-9.68h14.91l9.35,8.44a6.1,6.1,0,0,0,3.25-4.12,4.39,4.39,0,0,0,.12-1.24V139.12a4,4,0,0,0-.12-1.15c-.74-3.3-4.08-5.2-9-5.2H260.91c-5.69,0-9.4,2.48-9.4,6.35v29Z"/><path class="cls-1" d="M377.79,109.88c-7.9-.22-13.93.52-19.08,2.69-1.47.62-3.8.64-4,2.47.8.85.93,2.11,1.57,3.15a24.87,24.87,0,0,0,5.16,6.06c2,1.53,4.11,3.16,6.28,4.49,3.87,2.35,8.18,3.7,11.9,6.06,2.19,1.39,4.37,3.14,6.51,4.71,1.06.78,1.77,2,3.14,2.47v-.23c-.72-.92-.91-2.18-1.57-3.14l-2.92-2.92a47.86,47.86,0,0,0-10.32-9.87c-3.07-2.21-9.94-5.18-11.22-8.76l-.23-.22a49.29,49.29,0,0,0,6.73-1.57c3.38-.91,6.4-.67,9.88-1.57l4.71-1.35v-.9c-1.76-1.81-3-4.2-4.93-5.83A145.88,145.88,0,0,0,363.2,93.49c-3.14-2-7-3.26-10.33-4.93-1.12-.57-3.08-.86-3.82-1.8-1.74-2.22-2.69-5-4-7.63-2.81-5.43-5.58-11.35-8.08-17.06-1.7-3.89-2.81-7.73-4.94-11.22C321.8,34.09,310.83,24,293.84,14c-3.62-2.11-8-2.95-12.57-4l-7.41-.45c-1.51-.63-3.08-2.47-4.49-3.36-5.63-3.56-20.07-11.3-24.24-1.13-2.63,6.42,3.93,12.69,6.28,15.94,1.65,2.28,3.76,4.84,4.94,7.41.78,1.69.91,3.38,1.57,5.16,1.64,4.4,3.06,9.18,5.17,13.25a46.45,46.45,0,0,0,3.59,6.06c.82,1.12,2.24,1.62,2.47,3.36-1.39,1.94-1.47,5-2.25,7.41-3.51,11.06-2.18,24.81,2.92,33,1.57,2.51,5.25,7.9,10.32,5.83,4.44-1.8,3.45-7.4,4.72-12.34.29-1.12.11-1.95.67-2.7v.23q2,4,4,8.08c3,4.81,8.3,9.85,12.8,13.24,2.33,1.76,4.16,4.81,7.18,5.84v-.23h-.23c-.58-.91-1.49-1.28-2.24-2a50.86,50.86,0,0,1-5.16-5.83,136.54,136.54,0,0,1-11-18c-1.57-3-2.94-6.35-4.27-9.43-.51-1.18-.5-3-1.57-3.59-1.45,2.25-3.59,4.08-4.71,6.74-1.8,4.25-2,9.43-2.69,14.81-.4.14-.22,0-.45.22-3.13-.75-4.23-4-5.39-6.73-2.94-7-3.48-18.22-.9-26.26.67-2.08,3.69-8.63,2.47-10.55-.58-1.92-2.51-3-3.59-4.49a34.81,34.81,0,0,1-3.59-6.29c-2.41-5.44-3.53-11.55-6.06-17.06a50,50,0,0,0-4.94-7.63c-1.86-2.59-3.95-4.5-5.39-7.63-.51-1.11-1.21-2.9-.45-4a1.82,1.82,0,0,1,1.35-1.35c1.3-1,4.93.34,6.28.9a55.12,55.12,0,0,1,9.66,4.94c1.46,1,2.94,2.85,4.71,3.37h2c3.16.72,6.7.22,9.65,1.12a58,58,0,0,1,14.14,6.73A87.5,87.5,0,0,1,328,56.23c1.17,2.24,1.67,4.37,2.7,6.74,2.07,4.77,4.67,9.69,6.73,14.36s4.06,9.37,7,13.25c1.53,2,7.42,3.13,10.1,4.26,1.88.79,5,1.62,6.74,2.69,3.39,2,6.68,4.49,9.87,6.74,1.59,1.12,6.49,3.58,6.74,5.61Z"/><path class="cls-3" d="M277.45,24.36a16,16,0,0,0-4,.45V25h.23c.78,1.62,2.17,2.65,3.14,4,.75,1.57,1.49,3.14,2.24,4.72l.23-.23c1.39-1,2-2.54,2-4.94-.56-.58-.64-1.32-1.13-2-.64-.93-1.88-1.46-2.69-2.24Z"/><path class="cls-4" d="M372.52,174.55a9.46,9.46,0,1,0,9.46-9.46,9.33,9.33,0,0,0-9.46,9.46Zm16.8,0a7.34,7.34,0,1,1-7.34-7.5,7.32,7.32,0,0,1,7.34,7.5Zm-4.79,5.4h2.12l-3.11-4.74c1.67-.18,2.93-1,2.93-3,0-2.19-1.39-3.1-4.06-3.1h-4.22V180H380v-4.67h1.69l2.83,4.67ZM380,173.77v-3.11h2.1c1.08,0,2.39.21,2.39,1.47,0,1.51-1.18,1.64-2.55,1.64Z"/><text class="cls-5" transform="translate(0 109.49)">Powered by</text></g></g></svg>