<?xml version="1.0" encoding="UTF-8" standalone="no"?>
<svg
   viewBox="0 0 74.70283 71.995801"
   version="1.1"
   id="svg1"
   xmlns="http://www.w3.org/2000/svg"
   xmlns:svg="http://www.w3.org/2000/svg">
  <defs
     id="defs1" />
  <path
     d="m 54.570469,0.00115026 a 34.967,34.967 0 0 0 -7.05,0.8 c -0.858,0.187 -1.545,0.37200004 -1.975,0.50000004 -0.215,0.064 -0.365,0.11 -0.475,0.15 -0.027,0.01 -0.042,0.012 -0.075,0.025 l -0.05,0.025 c -0.008,-0.002 -0.017,0.002 -0.025,0 a 27.096,27.096 0 0 0 -5.724,-0.70000004 c -4.068,-0.062 -7.323,0.95000004 -9.85,2.55000004 -1.257,-0.451 -6.108,-2.102 -11.775,-2.35 a 29.126,29.126 0 0 0 -2.824,0.025 c -3.802,0.203 -7.706,1.248 -10.55,4.05 -2.844,2.802 -4.50500005,7.2579997 -4.15000005,13.8499997 0.082,1.549 0.638,4.762 1.60000005,8.75 0.96,3.988 2.312,8.67 3.974,12.875 1.662,4.205 3.582,7.912 5.975,10.075 1.197,1.082 2.616,1.812 4.175,1.75 1.56,-0.061 3.042,-0.91 4.375,-2.4 a 143.655,143.655 0 0 1 6.3,-6.625 c 1.375,0.688 2.91,1.114 4.525,1.15 0.003,0.034 -0.002,0.067 0,0.1 -0.934,1.02 -1.375,1.642 -1.825,1.976 -0.523,0.388 -1.38,0.706 -3.825,1.175 -1.347,0.258 -2.225,0.538 -2.9,1.05 -0.337,0.255 -0.641,0.611 -0.75,1.05 -0.109,0.439 0.015,0.904 0.2,1.225 0.372,0.64 0.928,0.958 1.5,1.25 a 7.785,7.785 0 0 0 1.75,0.65 c 1.25,0.29 3.356,0.647 5.7,0.275 1.73,-0.276 3.609,-0.976 5.275,-2.376 -0.023,2.845 0.016,5.581 0.125,7.95 0.08,1.739 0.195,3.291 0.35,4.55 0.155,1.259 0.311,2.195 0.625,2.925 0.455,1.057 1.215,2.775 2.875,4.075 1.661,1.301 4.243,2.054 7.775,1.35 2.856,-0.569 4.973,-1.448 6.476,-2.9 1.502,-1.451 2.273,-3.387 2.724,-5.824 0.535,-2.88 1.42,-9.441 1.825,-12.976 0.008,0.003 0.018,-0.002 0.025,0 0.971,0.28 2.138,0.363 3.375,0.35 2.475,-0.025 5.255,-0.46 7.2,-1.3 2.194,-0.947 3.91,-2.086 4.776,-3.3 0.216,-0.303 0.404,-0.635 0.45,-1.075 0.045,-0.44 -0.196,-1.046 -0.625,-1.35 -0.86,-0.608 -1.696,-0.442 -2.825,-0.225 -4.49,0.862 -6.74,0.53 -7.725,0.15 a 2.741,2.741 0 0 1 -0.55,-0.275 c 4.726,-6.686 8.098,-14.126 9.874,-20.525 0.917,-3.297 1.41,-6.307 1.45,-8.825 0.042,-2.518 -0.296,-4.5749997 -1.474,-5.9749997 -5.239,-6.224 -12.538,-7.72400004 -18.25,-7.67500004 z m 0,2.12500004 c 5.28,-0.046 11.733,1.246 16.45,6.85 0.58,0.69 1.038,2.3459997 1,4.6249997 -0.038,2.279 -0.518,5.15 -1.4,8.325 -1.638,5.897 -4.708,12.821 -8.975,19.075 -0.132,-0.15 -0.264,-0.294 -0.4,-0.45 1.622,-2.498 1.922,-5.035 1.8,-7.35 -0.13,-2.46 -0.667,-4.707 -0.6,-6.625 0.09,-2.651 0.855,-4.515 0.75,-7.3 0.004,-0.015 0.021,-0.036 0.025,-0.05 0.054,-0.212 0.032,-0.327 0.025,-0.45 a 3.704,3.704 0 0 0 -0.125,-0.75 c -0.144,-0.55 -0.4,-1.237 -0.775,-2.075 a 26.4,26.4 0 0 0 -3.85,-6.1009997 c -2.255,-2.68 -5.455,-5.378 -9.7,-7.125 a 32.04,32.04 0 0 1 5.775,-0.6 z m -15.4,0.825 c 8.558,0.13 14.08,4.159 17.5,8.2249997 1.71,2.033 2.874,4.063 3.55,5.575 0.2,0.446 0.283,0.714 0.4,1.05 -4.037,-0.38 -6.715,0.292 -8.25,1.925 -1.731,1.842 -1.65,4.453 -0.974,6.975 0.676,2.521 1.977,5.114 3.175,7.25 0.598,1.068 1.171,2.019 1.625,2.775 0.453,0.756 0.8,1.358 0.875,1.525 0.691,1.559 1.582,2.661 2.275,3.475 0.357,0.42 0.63,0.761 0.825,1.025 a 7.093,7.093 0 0 0 -0.875,0.3 c -0.65,0.272 -1.39,0.773 -1.875,1.6 -0.462,0.785 -0.68,1.825 -0.626,3.15 a 1.145,1.064 0 0 0 0,0.05 c -0.145,1.796 -1.382,11.471 -2,14.8 -0.412,2.22 -1.048,3.684 -2.125,4.724 -1.077,1.041 -2.685,1.754 -5.3,2.275 -3.017,0.601 -4.674,0.002 -5.825,-0.9 -1.151,-0.901 -1.79,-2.238 -2.225,-3.25 -0.13,-0.304 -0.354,-1.193 -0.5,-2.375 -0.146,-1.18 -0.247,-2.67 -0.326,-4.373 -0.157,-3.41 -0.176,-7.647 -0.05,-11.85 a 1.144,1.064 0 0 0 -0.074,-0.451 4.257,4.257 0 0 0 -0.225,-0.85 c -0.43,-1.078 -1.236,-2.001 -2.4,-2.45 -0.38,-0.146 -1.033,-0.416 -1.85,-0.35 -0.148,0.012 -0.3,0.065 -0.45,0.1 0.237,-0.91 0.657,-1.99 1.15,-3.225 1.158,-2.894 4.296,-6.746 1.9,-17.05 -0.5,-2.146 -1.88,-3.55 -3.55,-4.15 -0.835,-0.299 -1.718,-0.424 -2.6,-0.424 -0.883,0 -1.77,0.116 -2.625,0.3 -1.71,0.366 -3.309,0.995 -4.525,1.625 -0.011,0.005 -0.014,0.02 -0.025,0.025 0.17,-1.92 0.593,-4.775 1.75,-7.625 0.996,-2.4539997 2.492,-4.8519997 4.75,-6.5999997 2.258,-1.748 5.268,-2.89 9.5,-2.825 z m -22.475,0.175 c 4.256,0.078 8.373,1.123 10.6,1.8 -2.135,1.942 -3.566,4.337 -4.525,6.6999997 -2.154,5.307 -2.029,10.534 -2.025,10.675 v 0.05 a 1.15,1.07 0 0 0 0.025,0.2 c 0.016,0.71 0.112,1.773 0.15,3.35 0.042,1.73 0.002,3.913 -0.35,6.25 -0.602,4.006 1.087,7.72 3.95,10 -0.795,0.782 -3.145,3.114 -6.15,6.475 -1.085,1.213 -1.963,1.596 -2.7,1.625 -0.737,0.029 -1.546,-0.311 -2.474,-1.15 -1.857,-1.678 -3.815,-5.226 -5.425,-9.3 -1.611,-4.075 -2.931,-8.682 -3.875,-12.6 -0.944,-3.918 -1.512,-7.224 -1.575,-8.4 -0.336,-6.22 1.199,-9.9599997 3.524,-12.2499997 2.326,-2.291 5.586,-3.216 9.025,-3.4 a 25.48,25.48 0 0 1 1.825,-0.025 z m 42.15,16.6999997 a 22.1,22.1 0 0 1 2.075,0.15 c -0.042,2.095 -0.657,3.817 -0.75,6.525 -0.08,2.305 0.483,4.576 0.6,6.8 0.096,1.798 -0.078,3.543 -0.975,5.3 a 10.26,10.26 0 0 1 -0.6,-1.15 c -0.203,-0.458 -0.545,-0.992 -1,-1.75 -0.455,-0.758 -0.995,-1.69 -1.575,-2.725 -1.159,-2.068 -2.403,-4.552 -3,-6.775 -0.596,-2.223 -0.515,-4.048 0.45,-5.075 0.724,-0.77 2.161,-1.349 4.775,-1.3 z m -28.5,0.375 c 0.663,0 1.265,0.067 1.775,0.25 1.02,0.366 1.776,1.015 2.15,2.625 2.293,9.86 -0.44,12.387 -1.825,15.85 -0.474,1.19 -0.961,2.313 -1.25,3.425 -4.963,-0.008 -9.188,-4.489 -8.375,-9.9 0.375,-2.491 0.444,-4.795 0.4,-6.6 -0.04,-1.647 -0.157,-2.76 -0.175,-3.225 0.032,-0.027 0.032,-0.018 0.075,-0.05 0.248,-0.188 0.68,-0.456 1.2,-0.725 1.039,-0.538 2.484,-1.116 3.925,-1.425 0.72,-0.155 1.438,-0.226 2.1,-0.225 z m 27.125,0.625 a 4.936,4.936 0 0 0 -0.725,0.05 c -0.5,0.065 -0.948,0.205 -1.275,0.375 -0.163,0.085 -0.3,0.164 -0.4,0.275 -0.1,0.111 -0.146,0.252 -0.125,0.4 0.022,0.142 0.087,0.27 0.2,0.4 0.113,0.13 0.269,0.26 0.45,0.375 0.363,0.229 0.862,0.395 1.4,0.325 0.539,-0.07 0.98,-0.361 1.3,-0.675 0.16,-0.157 0.288,-0.319 0.375,-0.475 0.083,-0.148 0.14,-0.279 0.125,-0.425 v -0.025 c -0.022,-0.148 -0.122,-0.268 -0.25,-0.35 -0.128,-0.082 -0.293,-0.135 -0.475,-0.175 a 3.052,3.052 0 0 0 -0.6,-0.075 z m -26.975,0.55 c -0.235,0.006 -0.452,0.032 -0.65,0.076 -0.198,0.044 -0.394,0.099 -0.55,0.2 a 0.785,0.785 0 0 0 -0.175,0.15 h -0.1 l -0.05,0.325 c -0.034,0.221 0.028,0.375 0.125,0.55 0.097,0.175 0.253,0.357 0.425,0.525 0.344,0.335 0.829,0.648 1.425,0.725 0.595,0.077 1.132,-0.128 1.525,-0.375 0.197,-0.124 0.349,-0.254 0.475,-0.4 0.126,-0.146 0.245,-0.279 0.275,-0.475 0.031,-0.21 -0.08,-0.414 -0.2,-0.55 -0.12,-0.136 -0.272,-0.233 -0.45,-0.325 a 4,4 0 0 0 -1.325,-0.4 4.91,4.91 0 0 0 -0.75,-0.025 z m 31,23.25 c 0.302,0.229 0.676,0.443 1.15,0.625 1.64,0.632 4.31,0.859 9.05,-0.05 a 13.56,13.56 0 0 1 -3.2,1.95 c -1.422,0.614 -4.078,1.078 -6.25,1.1 -1.086,0.01 -2.065,-0.081 -2.65,-0.25 a 1.656,1.656 0 0 1 -0.5,-0.225 c -0.053,-1.098 0.111,-1.736 0.325,-2.1 0.22,-0.376 0.48,-0.53 0.825,-0.675 0.345,-0.145 0.748,-0.21 1.25,-0.375 z m -27.4,0.3 c 0.181,-0.015 0.415,0.037 0.775,0.175 0.369,0.142 0.89,0.659 1.125,1.25 0.118,0.296 0.164,0.567 0.15,0.825 v 0.025 c -0.018,0.249 -0.087,0.47 -0.225,0.65 -1.66,2.16 -3.607,3.003 -5.475,3.3 -1.868,0.297 -3.656,0.005 -4.75,-0.25 a 5.842,5.842 0 0 1 -1.225,-0.45 c -0.152,-0.077 -0.152,-0.076 -0.25,-0.15 a 6.957,6.957 0 0 1 1.575,-0.475 c 2.537,-0.486 3.797,-0.85 4.775,-1.575 0.978,-0.725 1.388,-1.517 2.575,-2.75 0.504,-0.524 0.769,-0.56 0.95,-0.575 z"
     id="path1" />
</svg>
