<?xml version="1.0" encoding="UTF-8"?>
<svg inkscape:version="1.0.2 (e86c870879, 2021-01-15, custom)" sodipodi:docname="Apache_Storm_logo.svg" version="1.1" viewBox="0 0 185.8 61.83" xmlns="http://www.w3.org/2000/svg" xmlns:cc="http://creativecommons.org/ns#" xmlns:dc="http://purl.org/dc/elements/1.1/" xmlns:inkscape="http://www.inkscape.org/namespaces/inkscape" xmlns:rdf="http://www.w3.org/1999/02/22-rdf-syntax-ns#" xmlns:sodipodi="http://sodipodi.sourceforge.net/DTD/sodipodi-0.dtd">
 <sodipodi:namedview id="cvfa" bordercolor="#666666" borderopacity="1.0" fit-margin-bottom="0" fit-margin-left="0" fit-margin-right="0" fit-margin-top="0" inkscape:current-layer="layer1" inkscape:cx="691.21711" inkscape:cy="148.51474" inkscape:document-rotation="0" inkscape:document-units="mm" inkscape:pageopacity="0.0" inkscape:pageshadow="2" inkscape:snap-global="false" inkscape:window-height="1014" inkscape:window-maximized="1" inkscape:window-width="1920" inkscape:window-x="0" inkscape:window-y="36" inkscape:zoom="0.7" pagecolor="#ffffff" showgrid="true">
  <inkscape:grid originx="1.9999999e-06" originy="-3.8803425e-06" type="xygrid"/>
 </sodipodi:namedview>
 <metadata>
  <rdf:RDF>
   <cc:Work rdf:about="">
    <dc:format>image/svg+xml</dc:format>
    <dc:type rdf:resource="http://purl.org/dc/dcmitype/StillImage"/>
    <dc:title/>
   </cc:Work>
  </rdf:RDF>
 </metadata>
 <g transform="translate(240.5 -165.7)" inkscape:groupmode="layer" inkscape:label="Layer 1">
  <g transform="translate(45.89 -5.118)">
   <g style="fill:#3c3c3b" aria-label="STORM">
    <path d="m-201.4 198.8q-1.422 0-2.343.5857-.9204.5857-.9204 1.785 0 1.171.9204 1.813.9204.6136 3.905 1.339 3.012.7252 4.519 2.036 1.534 1.311 1.534 3.877 0 2.538-1.925 4.128-1.925 1.59-5.048 1.59-4.574 0-8.117-3.152l2.064-2.482q2.957 2.566 6.136 2.566 1.59 0 2.51-.6694.9483-.6973.9483-1.813 0-1.144-.8926-1.757-.8646-.6415-3.012-1.144-2.148-.53-3.263-.9483-1.116-.4463-1.98-1.144-1.729-1.311-1.729-4.016t1.952-4.156q1.98-1.478 4.881-1.478 1.869 0 3.71.6136t3.18 1.729l-1.757 2.482q-.8646-.781-2.343-1.283-1.478-.5021-2.929-.5021z" style="fill:#3c3c3b;stroke-width:2.092px"/>
    <path d="m-182.4 199.2v16.48h-3.291v-16.48h-5.913v-3.012h15.12v3.012z" style="fill:#3c3c3b;stroke-width:2.092px"/>
    <path d="m-159.5 200.8q-1.98-2.064-4.881-2.064t-4.909 2.064q-1.98 2.064-1.98 5.021 0 2.929 1.98 4.993 2.008 2.064 4.909 2.064t4.881-2.064q2.008-2.064 2.008-4.993 0-2.957-2.008-5.021zm2.427 12.22q-2.957 2.873-7.308 2.873-4.351 0-7.308-2.873-2.957-2.901-2.957-7.196 0-4.323 2.957-7.196 2.957-2.901 7.308-2.901 4.351 0 7.308 2.901 2.957 2.873 2.957 7.196 0 4.295-2.957 7.196z" style="fill:#3c3c3b;stroke-width:2.092px"/>
    <path d="m-134.4 202.6q0 4.825-4.212 6.08l5.104 7.085h-4.184l-4.658-6.555h-4.323v6.555h-3.291v-19.5h7.252q4.463 0 6.387 1.506 1.925 1.506 1.925 4.825zm-8.172 3.626q2.789 0 3.793-.8647 1.004-.8647 1.004-2.761 0-1.925-1.032-2.622-1.032-.7252-3.682-.7252h-4.184v6.973z" style="fill:#3c3c3b;stroke-width:2.092px"/>
    <path d="m-126.4 215.7h-3.291v-19.5h5.132l5.885 12.24 5.885-12.24h5.104v19.5h-3.291v-15.23l-6.806 13.53h-1.841l-6.778-13.53z" style="fill:#3c3c3b;stroke-width:2.092px"/>
   </g>
   <g style="fill:#3c3c3b" aria-label="APACHE">
    <path d="m-197.4 191.1-1.391-3.151h-6.707l-1.373 3.151h-1.496l5.528-12.32h1.461l5.51 12.32zm-7.517-4.454h5.563l-2.799-6.338z" style="fill:#3c3c3b;stroke-width:1.32px"/>
    <path d="m-189.3 178.8q2.289 0 3.538 1.091 1.268 1.074 1.268 3.046 0 2.025-1.268 3.151-1.25 1.127-3.538 1.127h-3.222v3.908h-1.408v-12.32zm-.0528 7.112q1.672 0 2.588-.7394.9154-.757.9154-2.201 0-1.408-.9154-2.13-.9154-.7394-2.588-.7394h-3.169v5.809z" style="fill:#3c3c3b;stroke-width:1.32px"/>
    <path d="m-173.6 191.1-1.391-3.151h-6.707l-1.373 3.151h-1.496l5.528-12.32h1.461l5.51 12.32zm-7.517-4.454h5.563l-2.799-6.338z" style="fill:#3c3c3b;stroke-width:1.32px"/>
    <path d="m-161.5 181.5q-.7218-.7218-1.69-1.127-.9506-.4225-1.954-.4225-1.373 0-2.535.669-1.144.6514-1.813 1.796t-.669 2.5q0 1.338.669 2.482t1.813 1.813q1.162.669 2.535.669 1.003 0 1.954-.3873.9506-.4049 1.69-1.109l.8626.933q-.933.8802-2.13 1.391-1.179.4929-2.447.4929-1.743 0-3.204-.8274-1.461-.845-2.324-2.289-.845-1.444-.845-3.169 0-1.708.8626-3.134.8626-1.444 2.324-2.271 1.479-.845 3.239-.845 1.25 0 2.429.4753t2.077 1.338z" style="fill:#3c3c3b;stroke-width:1.32px"/>
    <path d="m-158.2 178.8h1.408v5.581h7.429v-5.581h1.408v12.32h-1.408v-5.457h-7.429v5.457h-1.408z" style="fill:#3c3c3b;stroke-width:1.32px"/>
    <path d="m-144.2 178.8h8.362v1.303h-6.954v4.137h6.214v1.285h-6.214v4.295h7.183v1.303h-8.591z" style="fill:#3c3c3b;stroke-width:1.32px"/>
   </g>
  </g>
  <g transform="translate(-94.59 58.21)">
   <path transform="translate(45.89 -5.118)" d="m-168.9 174.1c.0485-.1332 4.262-3.497 9.364-7.474 11.32-8.825 10.7-8.333 10.7-8.524 0-.0863-4.121-.1882-9.158-.2265l-9.158-.0696 2.742-2.096c1.508-1.153 5.013-3.911 7.789-6.129l5.047-4.033 7.124-.0991c6.519-.0907 7.255-.1478 8.673-.674 3.162-1.174 4.79-3.222 4.797-6.036.006-2.359-1.008-3.915-3.313-5.084-2.086-1.058-3.938-1.378-7.988-1.38l-3.103-.002 1.054-1.631c1.248-1.93 1.673-3.27 1.669-5.248-.005-1.945-.7569-3.556-2.428-5.201-4.278-4.211-12.02-5.33-17.73-2.563-2.094 1.014-8.816 6.329-7.315 5.783.291-.1058 2.137-.2509 4.101-.3223 5.655-.2057 8.982.745 11.74 3.355 3.542 3.35 4.615 8.677 2.58 12.81-2.119 4.304-7.282 6.956-15.25 7.831-1.629.1789-6.914.2607-13.76.2129l-11.11-.0777 3.57-2.791c1.963-1.535 5.671-4.422 8.24-6.416l4.671-3.625h5.921l-1.413 1.139c-.7773.6264-3.423 2.68-5.879 4.564l-4.466 3.425 5.921.0809c8.298.1133 12.09-.3975 15.81-2.13 2.124-.9898 3.595-2.311 4.449-3.997.5695-1.124.6531-1.593.569-3.192-.2588-4.921-3.808-7.563-10.16-7.563-4.786 0-9.591 1.228-16.91 4.322-1.892.7992-3.474 1.419-3.517 1.377-.1738-.1715 13-12.72 15.56-14.82 2.413-1.98 4.936-3.456 7.337-4.29 1.871-.6501 2.409-.7148 6.023-.7232 3.363-.008 4.29.0831 6.07.5955 8.518 2.451 13.54 9.305 11.13 15.2-.1665.4073-.0167.463 1.246.463 4.047 0 8.147 2.438 9.661 5.745 2.17 4.74.0934 10.48-4.661 12.89-2.49 1.262-4.176 1.516-11.01 1.657l-6.35.1317-6.849 5.105 18.49.2646-1.454 1.117c-.7998.6141-5.521 4.262-10.49 8.107-4.97 3.845-10.07 7.777-11.33 8.739l-2.292 1.749h-2.518c-1.412 0-2.48-.1064-2.43-.2422z" style="fill:#225593;stroke-width:.2646" inkscape:connector-curvature="0" sodipodi:nodetypes="csscccccccccccccsccssssccccccccsccsccscccsccssscsccccccsccscc"/>
   <path transform="translate(45.89 -5.118)" d="m-151.6 145.5 6.127-.137-4.57 3.843-6.124-.0539z" style="fill:#7a7572;stroke-width:.2646" inkscape:connector-curvature="0" sodipodi:nodetypes="ccccc"/>
   <path d="m-110 144c-.4108-.0587-.6073.4069-.9299.5734-3.373 2.703-6.787 5.355-10.22 7.986.1697.2245.7697.048 1.1.1188 4.817.0986 9.635.0528 14.45.1867.8666.053 1.786-.0282 2.622.1582-1.358 1.231-2.861 2.306-4.289 3.459l-14.55 11.44-1.651 1.343 5.355-.006c.1644-.1179.3888-.2878.5598-.383l.213-.1781s18.57-14.31 24.85-19.17c-.1239-.2151-.6547-.0374-.9416-.0923-5.789-.0569-11.58-.1378-17.37-.2564 2.166-1.72 4.449-3.311 6.624-5.006-.4292-.1293-.9799-.0342-1.455-.0786-1.46-.0246-2.92-.0602-4.379-.0906z" style="fill:#ea9941" inkscape:connector-curvature="0" sodipodi:nodetypes="ccccccccccccccccccc"/>
   <path d="m-138.8 126.9c.4938-.57 7.232-7.11 7.567-7.345.4058-.2843 4-1.059 5.936-1.279.3491-.0397.7133-.085.8093-.1007.1386-.0225.01.1328-.6243.7532-1.22 1.193-2.138 2.348-2.968 3.732-.2782.464-.4102.6228-.546.6569-.7524.1886-4.552 1.628-7.061 2.674-1.668.6958-3.234 1.302-3.362 1.302-.0507 0 .0612-.1771.2487-.3936z" style="fill:#326ba3" inkscape:connector-curvature="0"/>
   <path d="m-118.8 118c-1.882.007-3.776.1043-5.638.3295-.6892.4909-1.202 1.198-1.784 1.807-.835.956-1.57 2.007-2.202 3.103.1024.1861.4242-.0709.6035-.0651 3.109-.886 6.317-1.538 9.563-1.416 1.823-.0111 3.674.298 5.348 1.014 1.839.789 3.363 2.341 3.933 4.281.3822 1.311.5504 2.733.3016 4.085-.6189 2.352-2.551 4.137-4.706 5.148-2.91 1.442-6.184 1.956-9.401 2.129-4.109.0779-8.222.1398-12.33.001 3.827-2.955 7.696-5.859 11.45-8.908.2342-.2087-.2175-.1895-.345-.1886-1.818-.0411-3.642-.0352-5.458-.0171-5.476 4.265-10.96 8.522-16.43 12.8.1713.224.7698.0472 1.1.1177 6.548.0925 13.1.035 19.65.00052 2.025.003 4.058-.0292 6.058-.3842 3.669-.5986 7.426-1.636 10.38-3.992 2.082-1.66 3.589-4.123 3.864-6.794.1028-1.744.0754-3.546-.5923-5.188-.6772-1.818-1.772-3.481-3.245-4.752-1.884-1.744-4.389-2.668-6.913-2.949-1.062-.1403-2.136-.1588-3.206-.156z" style="fill:#318fbf" inkscape:connector-curvature="0"/>
  </g>
  <g style="fill:#3c3c3b" aria-label="TM">
   <path d="m-58.7 191.5v2.085h-.4163v-2.085h-.7479v-.381h1.912v.381z" style="fill:#3c3c3b;stroke-width:.2646px"/>
   <path d="m-57.09 193.5h-.4163v-2.466h.6491l.7444 1.549.7444-1.549h.6456v2.466h-.4163v-1.926l-.8608 1.711h-.2328l-.8572-1.711z" style="fill:#3c3c3b;stroke-width:.2646px"/>
  </g>
 </g>
</svg>
