<svg viewBox="0 0 148 44" fill="none" xmlns="http://www.w3.org/2000/svg">
<path d="M21.9992 41.8002C32.9345 41.8002 41.7992 32.9354 41.7992 22.0002C41.7992 11.065 32.9345 2.2002 21.9992 2.2002C11.064 2.2002 2.19922 11.065 2.19922 22.0002C2.19922 32.9354 11.064 41.8002 21.9992 41.8002Z" fill="white"/>
<path d="M27.2137 28.8883C25.7644 29.9872 23.9583 30.6403 21.999 30.6403C20.0298 30.6403 18.2155 29.9805 16.7626 28.8711L12.3711 33.2144C14.9582 35.4374 18.3204 36.7843 21.999 36.7843C25.6608 36.7843 29.0089 35.4502 31.5912 33.2453L27.2137 28.8883Z" fill="#00B2FF"/>
<path d="M30.3839 19.9178C30.5489 20.5848 30.6377 21.2813 30.6377 21.9989C30.6377 23.9439 29.9948 25.7386 28.9102 27.1824L33.287 31.539C35.5324 28.8816 36.7823 25.5041 36.7823 21.9989C36.7823 19.6091 36.1995 17.2758 35.1152 15.187L30.3839 19.9178Z" fill="#FF4F42"/>
<path d="M15.068 27.1626C13.9932 25.7223 13.357 23.9365 13.357 22.0011C13.357 17.2293 17.2253 13.3611 21.997 13.3611C23.3768 13.3611 24.6799 13.686 25.837 14.2614L30.2991 9.7989C27.9259 8.17286 25.0645 7.2168 21.997 7.2168C13.8865 7.2168 7.21289 13.8907 7.21289 22.0011C7.21289 25.4894 8.45055 28.852 10.6776 31.5047L15.068 27.1626Z" fill="#17C22E"/>
<path d="M21.1476 25.5557C20.763 25.5557 20.3779 25.4089 20.0846 25.1152L17.1807 22.2115C16.5934 21.6245 16.5934 20.6726 17.1807 20.0858C17.7673 19.4984 18.7197 19.4984 19.3066 20.0858L21.1476 21.9263L32.8948 10.1793C33.4815 9.59194 34.4341 9.59194 35.0209 10.1793C35.6082 10.7661 35.6082 11.7183 35.0209 12.3053L22.2104 25.1152C21.9171 25.4089 21.5322 25.5557 21.1476 25.5557Z" fill="#212529"/>
<path d="M55.0718 29.2302H58.426V19.1755H62.8982V15.8564L50.5996 15.824V19.1755H55.0718V29.2302Z" fill="#212529"/>
<path d="M71.8426 26.9958L68.4885 22.5494V29.2302H65.1343V15.824L67.3704 15.8564L71.8426 21.4099L76.3148 15.8564L78.551 15.824V29.2302H75.1968V22.5494L71.8426 26.9958Z" fill="#212529"/>
<path d="M90.8496 23.6443H85.2593V26.3894H93.0857V29.2626L81.9051 29.2626V15.824H93.0857V18.6169H85.2593V21.4099H90.8496V23.6443Z" fill="#212529"/>
<path fill-rule="evenodd" clip-rule="evenodd" d="M115.447 25.8787H113.211V29.2626H109.856V15.824H116.006C119.36 15.824 121.596 17.4942 121.596 20.8513C121.596 23.0801 119.919 24.7615 118.801 25.3201L122.155 29.2302H118.242L115.447 25.8787ZM118.242 20.8513C118.242 19.1755 117.124 18.6169 115.447 18.6169H113.211V23.06L115.447 23.0857C117.124 23.0857 118.242 22.5271 118.242 20.8513Z" fill="#212529"/>
<path d="M125.509 29.2302V15.824H128.863V29.2302H125.509Z" fill="#212529"/>
<path d="M103.148 29.2626L99.794 29.2626V19.2079H95.3218V15.8564H107.62V19.2079H103.148V29.2626Z" fill="#212529"/>
<path d="M145.09 27.186C143.758 28.7241 141.774 29.6994 139.559 29.6994C135.546 29.6994 132.293 26.4982 132.293 22.5494C132.293 18.6006 135.546 15.3994 139.559 15.3994C141.773 15.3994 143.756 16.3739 145.089 17.9108L142.51 20.0101C141.809 19.1237 140.748 18.5588 139.56 18.5588C137.448 18.5588 135.735 20.3455 135.735 22.5495C135.735 24.7535 137.448 26.5402 139.56 26.5402C140.748 26.5402 141.81 25.9743 142.512 25.0867L145.09 27.186Z" fill="#212529"/>
</svg>
