<?xml version="1.0" encoding="utf-8"?>
<!-- Generator: Adobe Illustrator 27.3.1, SVG Export Plug-In . SVG Version: 6.00 Build 0)  -->
<svg version="1.1" id="Layer_1" xmlns="http://www.w3.org/2000/svg" xmlns:xlink="http://www.w3.org/1999/xlink" x="0px" y="0px"
	 viewBox="0 0 487.6 188.2" style="enable-background:new 0 0 487.6 188.2;" xml:space="preserve">
<style type="text/css">
	.st0{fill:#FFFFFF;}
	.st1{fill:#40AA1D;}
	.st2{fill:#3D4647;}
</style>
<g>
	<g>
		<g id="XMLID_00000148628478039088895010000014715203192033432226_">
			<g>
				<path class="st2" d="M220,83.6h5.3l-12.6,32.2H207l-12.6-32.2h5.3l10.2,27.1L220,83.6z"/>
				<path class="st2" d="M257.2,115.8h-4.8v-5c-1.2,1.5-2.6,2.8-4.3,3.9c-1.7,1.1-3.6,1.6-5.7,1.6c-2.1,0-4-0.3-5.5-0.9
					s-2.9-1.5-4.1-2.7c-2.6-2.6-4-6.1-4-10.4V83.6h4.8v18.6c0,3,0.8,5.4,2.5,7.1c1.7,1.7,3.9,2.6,6.5,2.6c2.7,0,5-0.9,6.9-2.7
					c1.9-1.9,2.8-4.2,2.8-7.1V83.6h4.8V115.8z"/>
				<path class="st2" d="M277.9,74.7h-0.6c-2.3,0-4,0.5-5.1,1.5c-1.2,1-1.7,2.6-1.7,4.9v2.5h7.5v4.3h-7.5v28h-4.8V83.6v-2.8
					c0-3.5,1-6.2,3.2-7.9s5-2.6,8.8-2.6h0.4V74.7z"/>
				<path class="st2" d="M296.5,83c4.8,0,8.7,1.6,11.7,4.8c2.8,3.1,4.3,7,4.3,11.8s-1.4,8.7-4.3,11.8c-3,3.2-6.9,4.8-11.7,4.8
					c-4.8,0-8.7-1.6-11.7-4.8c-2.8-3.1-4.3-7-4.3-11.8s1.4-8.7,4.3-11.8C287.8,84.7,291.7,83,296.5,83z M296.5,111.9
					c3.5,0,6.3-1.2,8.3-3.6c1.9-2.3,2.9-5.2,2.9-8.6s-1-6.4-2.9-8.6c-2-2.4-4.8-3.6-8.3-3.6s-6.3,1.2-8.3,3.6
					c-1.9,2.3-2.9,5.2-2.9,8.6s1,6.4,2.9,8.6C290.3,110.7,293,111.9,296.5,111.9z"/>
				<path class="st2" d="M334.9,83h0.3v4.8h-0.6c-3.5,0-6.3,1.4-8.5,4.2c-2.1,2.6-3.1,5.9-3.1,9.5v14.2h-4.8V83.6h4.8v7.9
					c1-3.4,3.3-5.8,6.7-7.4C331.2,83.4,332.9,83,334.9,83z"/>
				<path class="st2" d="M342.2,71.7c1,0,1.7,0.3,2.4,1c0.6,0.6,1,1.4,1,2.3c0,1-0.3,1.7-1,2.4c-0.6,0.6-1.4,1-2.4,1
					c-1,0-1.7-0.3-2.4-1c-0.6-0.6-1-1.4-1-2.4c0-0.9,0.3-1.7,1-2.3S341.3,71.7,342.2,71.7z M339.8,115.8V83.6h4.8v32.2H339.8z"/>
				<path class="st2" d="M377.6,115.8v-5.2c-2.6,3.8-6.4,5.7-11.5,5.7c-4.6,0-8.4-1.6-11.3-4.8c-2.8-3.2-4.3-7.1-4.3-11.8
					s1.4-8.6,4.3-11.8c2.9-3.2,6.8-4.8,11.7-4.8c4.8,0,8.6,1.9,11.2,5.7v-5.2h4.8v32.2H377.6z M366.7,111.9c3.5,0,6.3-1.2,8.3-3.6
					c1.9-2.3,2.9-5.2,2.9-8.6s-1-6.4-2.9-8.6c-2-2.4-4.8-3.6-8.3-3.6c-3.4,0-6.3,1.2-8.4,3.6c-2,2.3-3,5.2-3,8.6s1,6.4,3,8.6
					C360.4,110.7,363.2,111.9,366.7,111.9z"/>
				<path class="st2" d="M391.9,83.4c0.7,0,1.4,0.1,2,0.4c0.6,0.3,1.2,0.6,1.6,1.1c0.5,0.5,0.8,1,1.1,1.6c0.3,0.6,0.4,1.3,0.4,2
					c0,0.7-0.1,1.4-0.4,2s-0.6,1.2-1.1,1.6s-1,0.8-1.6,1.1c-0.6,0.3-1.3,0.4-2,0.4s-1.4-0.1-2-0.4c-0.6-0.3-1.2-0.6-1.6-1.1
					s-0.8-1-1.1-1.6s-0.4-1.3-0.4-2c0-0.7,0.1-1.4,0.4-2c0.3-0.6,0.6-1.2,1.1-1.6c0.5-0.5,1-0.8,1.6-1.1S391.2,83.4,391.9,83.4z
					 M391.9,93c1.2,0,2.3-0.4,3.1-1.3c0.4-0.4,0.7-0.9,0.9-1.4c0.2-0.5,0.3-1.1,0.3-1.7c0-0.6-0.1-1.2-0.3-1.7
					c-0.2-0.5-0.5-1-0.9-1.4c-0.9-0.9-1.9-1.3-3.1-1.3c-1.2,0-2.3,0.4-3.1,1.3c-0.9,0.9-1.3,1.9-1.3,3.1c0,0.6,0.1,1.2,0.3,1.7
					c0.2,0.5,0.5,1,0.9,1.4C389.6,92.5,390.7,93,391.9,93z M394.5,87.4c0,0.3-0.1,0.6-0.3,0.9c-0.2,0.3-0.5,0.5-0.8,0.6
					c0.6,0.2,0.9,0.6,1,1.4c0,0.2,0,0.4,0,0.5v0.7h-1v-0.6c0-0.4,0-0.7-0.1-0.9c-0.2-0.4-0.5-0.6-1-0.6h-1.5v2.1h-1.1v-5.7h2.4
					c0.8,0,1.4,0.2,1.8,0.5C394.3,86.5,394.5,86.9,394.5,87.4z M390.7,88.4h1.3c0.4,0,0.8-0.1,1-0.2c0.3-0.2,0.4-0.4,0.4-0.7
					c0-0.3-0.1-0.5-0.3-0.7s-0.6-0.2-1.1-0.2h-1.3V88.4z"/>
			</g>
		</g>
	</g>
	<polygon id="XMLID_00000118364728339156893670000013056550418374085509_" class="st1" points="126.3,116.8 156.6,99.3 126.2,81.8 
		95.9,99.3 	"/>
	<g id="XMLID_00000008837879097967260630000012724165598221252539_">
		<polygon id="XMLID_00000085212579290176307260000011538738412744646845_" class="st2" points="126.2,75.5 161.9,96.1 161.9,78.9 
			126,58.2 90.5,78.9 90.5,96.1 		"/>
		<polygon id="XMLID_00000029750314670022655180000003528948183502094256_" class="st2" points="126.3,123.2 90.5,102.6 90.5,119.8 
			126.4,140.5 161.9,119.8 161.9,102.6 		"/>
	</g>
</g>
</svg>
