<svg id="Layer_1" data-name="Layer 1" xmlns="http://www.w3.org/2000/svg" viewBox="0 0 192.76 192.76"><defs><style>.cls-1{fill:#fff;}.cls-1,.cls-2{fill-rule:evenodd;}.cls-2{fill:#1d1d1b;}</style></defs><polygon class="cls-1" points="0 0 192.76 0 192.76 192.76 0 192.76 0 0 0 0"/><polygon class="cls-2" points="88.44 69.88 99.12 69.88 99.12 121.75 88.44 121.75 88.44 69.88 88.44 69.88"/><path class="cls-2" d="M108.54,111.86H98.07v41.89h10.68V131.54c.14-2.67.28-7.17,6-7.17h1.83V111.3c-2.82,0-5.49,2-6.75,5.62-.28,1-1.34.7-1.34-.14v-4.92Z" transform="translate(-31 -32)"/><path class="cls-2" d="M163.85,111.86v41.89h10.69v-29c0-2.67,1.54-3.79,3-3.79s2.67.56,2.67,3.44v29.31h10.68v-35.7c0-3.52-2.67-7.45-7.17-7.31a9.54,9.54,0,0,0-8,4.5c-.42.84-1.12.56-1.12-.15v-3.23Z" transform="translate(-31 -32)"/><path class="cls-2" d="M94.18,143.49c0,7.63-6.19,11.14-13.82,11.14s-13.81-3.51-13.81-11.14V122.12c0-7.63,6.18-11.14,13.81-11.14s13.82,3.51,13.82,11.14l-10.74-.84a3.08,3.08,0,0,0-6.16,0v23.05a3.08,3.08,0,0,0,6.16,0V121.28l10.74.84v21.37Z" transform="translate(-31 -32)"/><path class="cls-2" d="M220.92,101.88H210.24v11.6a.5.5,0,0,1-.86.37c-2.17-2-3.22-3-6.59-3-2.53,0-8.86,1-8.86,10.61v22.21c0,4.07,2.25,11.24,8.3,11,2.74,0,4.33-.3,7.3-3.67.27-.22.64-.12.71.37v2.46h10.68l-10.68-11.53c0,2.67-1.41,3.94-2.67,4.08s-2.95-.56-2.95-3.51V123.11c0-3.31,1.4-4.08,2.81-4.08s2.67,1,2.81,4.64v18.55l10.68,11.53V101.88Z" transform="translate(-31 -32)"/><path class="cls-2" d="M161.18,122.12c0-8.85-4.92-11-13.35-11-10.4,0-13.63,6-13.63,10.54v3.23h10.68V121.7c-.14-2.81,1.54-3.37,3-3.37s2.67.14,2.67,4.5-5.62,5.48-11.1,8c-4.77,2.2-5.91,6.6-5.91,11.66,0,10.55,4.92,12.37,8.3,12.37,2.9,0,6.25-1,7.85-2.89.3-.41.86-.27.86.08v1.69h10.68l-10.68-9.7c0,3.09-1.55,3.8-2.95,3.8-1.69,0-2.67-1.69-2.67-3.8v-4.92a5.18,5.18,0,0,1,2-4.08c1.05-.63,2.17-1.19,2.6-1.4a.68.68,0,0,1,1.05.56v9.84l10.68,9.7V122.12Z" transform="translate(-31 -32)"/><path class="cls-2" d="M45.64,110h2.11c2.67,0,4.64,1.13,4.64,5.77s-1.27,6.46-4.64,6.46H45.64v8.16H48c2.81,0,4.78,2,4.78,7.45s-1.27,7.73-4.5,7.73h-2.6l-11.81,8.15H51.69c7.16,0,12.37-5.06,12.37-15.46s-5.7-11.53-6.33-11.74-.63-.63,0-.84c4.64-2.11,5.48-7.38,5.48-12.72,0-8.86-5.62-11.11-11.38-11.11h-18v51.87l11.81-8.15V110Z" transform="translate(-31 -32)"/></svg>