<?xml version="1.0" encoding="iso-8859-1"?>
<!-- Uploaded to: SVG Repo, www.svgrepo.com, Generator: SVG Repo Mixer Tools -->
<svg fill="#000000" version="1.1" id="Layer_1" xmlns="http://www.w3.org/2000/svg" xmlns:xlink="http://www.w3.org/1999/xlink" 
	 viewBox="0 0 491.52 491.52" xml:space="preserve">
<g>
	<g>
		<polygon points="450.56,348.16 450.56,225.28 266.24,225.28 266.24,143.36 307.2,143.36 307.2,20.48 184.32,20.48 184.32,143.36 
			225.28,143.36 225.28,225.28 40.96,225.28 40.96,348.16 0,348.16 0,471.04 122.88,471.04 122.88,348.16 81.92,348.16 
			81.92,266.24 225.28,266.24 225.28,348.16 184.32,348.16 184.32,471.04 307.2,471.04 307.2,348.16 266.24,348.16 266.24,266.24 
			409.6,266.24 409.6,348.16 368.64,348.16 368.64,471.04 491.52,471.04 491.52,348.16 		"/>
	</g>
</g>
</svg>