<?xml version="1.0" encoding="UTF-8" standalone="no"?>
<svg
   viewBox="0 0 200.97273 53.555702"
   version="1.1"
   preserveAspectRatio="xMidYMid"
   id="svg1"
   sodipodi:docname="ecma-international-logo.svg"
   width="200.97273"
   height="53.555702"
   inkscape:version="1.4.2 (f4327f4, 2025-05-13)"
   xmlns:inkscape="http://www.inkscape.org/namespaces/inkscape"
   xmlns:sodipodi="http://sodipodi.sourceforge.net/DTD/sodipodi-0.dtd"
   xmlns="http://www.w3.org/2000/svg"
   xmlns:svg="http://www.w3.org/2000/svg"
   xmlns:rdf="http://www.w3.org/1999/02/22-rdf-syntax-ns#"
   xmlns:cc="http://creativecommons.org/ns#"
   xmlns:dc="http://purl.org/dc/elements/1.1/">
  <defs
     id="defs1" />
  <sodipodi:namedview
     id="namedview1"
     pagecolor="#ffffff"
     bordercolor="#666666"
     borderopacity="1.0"
     inkscape:showpageshadow="2"
     inkscape:pageopacity="0.0"
     inkscape:pagecheckerboard="0"
     inkscape:deskcolor="#d1d1d1"
     inkscape:zoom="7.1058824"
     inkscape:cx="90.699503"
     inkscape:cy="34.267384"
     inkscape:window-width="2560"
     inkscape:window-height="1417"
     inkscape:window-x="-8"
     inkscape:window-y="-8"
     inkscape:window-maximized="1"
     inkscape:current-layer="svg1" />
  <!-- Generator: Sketch 61.2 (89653) - https://sketch.com -->
  <title
     id="title1">Artboard</title>
  <desc
     id="desc1">Created with Sketch.</desc>
  <g
     id="Artboard"
     stroke="none"
     stroke-width="1"
     fill="none"
     fill-rule="evenodd"
     transform="translate(0,-33)">
    <g
       id="logo"
       transform="translate(0,33)">
      <g
         id="g1">
        <polygon
           id="Fill-1"
           fill="#d6ddda"
           points="93,-1.6819879e-14 2.3747671e-13,-1.6819879e-14 2.3747671e-13,53 93,53 " />
        <path
           d="m 18.61121,36.473525 c -1.175529,-0.820159 -2.650955,-1.93598 -3.744694,-2.996198 -1.568976,-1.422713 -2.850886,-3.158733 -3.746832,-5.071723 0.69655,2.001742 1.811672,3.935584 3.459231,5.506396 1.271218,1.039901 2.633848,1.882515 4.032295,2.561525 z M 33.766931,11.64796 C 32.535806,9.7809505 30.177798,8.680099 27.911737,7.9604555 21.182513,5.3069703 11.590109,10.366931 10.168141,19.090871 10.076729,19.497208 9.9259787,20.42697 9.9628644,21.122554 10.57121,15.787247 13.805386,11.104218 18.199053,9.1115644 22.529641,7.0301584 27.643915,7.3974653 31.14805,9.8627525 31.329271,10.003901 31.509423,10.156812 31.681021,10.306515 31.068399,9.9905347 30.421564,9.7232079 29.753346,9.5093465 27.383043,8.3667921 24.563162,7.9134059 21.759854,8.5148911 16.241976,9.3799604 11.239428,14.405168 10.37609,20.672911 10.306061,21.077644 10.259019,21.491465 10.230152,21.906356 10.064434,21.786059 9.9628644,21.491465 9.9628644,21.122554 9.8698484,21.550277 9.8698484,21.978 9.8906968,22.41 c -0.059872,2.00495 0.3918432,4.070851 1.2289872,5.995604 -0.325022,-0.993921 -0.52816,-1.998 -0.639352,-3.000475 0.398793,1.953089 1.220434,3.830792 2.471338,5.341188 0.822176,0.845822 1.742713,2.703208 2.856232,3.299346 4.234364,3.359228 10.659414,4.499644 14.995883,2.028476 0.593377,-0.159862 1.185151,-0.330951 1.719726,-0.640515 -0.692809,0.229901 -1.470615,0.382812 -2.092859,0.601485 l -0.206881,0.0021 c -0.179082,0.101585 -0.268356,0.150238 -0.359768,0.200496 -3.201567,0.404198 -9.758123,1.114217 -13.798971,-2.292594 -1.147197,-0.822832 -2.035125,-1.906575 -2.867457,-3.017585 0.424986,0.290852 1.110311,0.684891 1.523537,1.119565 2.035659,2.033821 4.832018,3.87196 7.554606,4.091703 -1.255715,-0.512733 -2.333952,-1.122238 -3.521777,-1.841347 -0.61476,-0.283366 -1.599981,-0.44697 -2.046885,-0.967723 -2.54404,-2.171227 -4.718154,-4.396455 -5.109463,-7.737505 -0.05934,-0.328277 0.152888,-0.587049 0.04651,-0.88592 0.641489,3.699267 2.95887,6.436158 5.870162,8.618079 0.395051,0.463544 0.840886,0.654416 1.239678,0.973069 0.508915,0.182317 0.960096,0.358753 1.334833,0.555505 4.322569,1.615723 5.093425,-0.156653 8.969625,-0.212792 -1.748059,0.443762 -4.73633,1.261247 -6.248641,1.359624 2.718846,0.559782 7.851295,-0.823901 10.195404,-2.56901 2.913966,-1.989446 2.329141,-2.078733 3.833968,-4.622614 0.131506,-0.207446 0.259803,-0.681149 0.367788,-1.254832 0.914656,-1.760614 1.438539,-3.759683 1.438539,-5.880653 0,-4.070852 -1.911103,-7.688852 -4.878526,-10.024753 z m -21.32471,12.756832 c -0.255527,-1.649941 -0.331436,-3.335703 0.02406,-5.010772 -0.03368,0.329881 -0.06094,0.595604 -0.04544,0.722317 -0.160373,2.020455 -0.0053,3.671465 0.179617,4.74398 -0.04651,-0.143287 -0.09836,-0.290317 -0.158234,-0.455525 0.07163,0.318653 0.15663,0.634634 0.254457,0.942059 0.160907,0.756 0.310053,1.057545 0.267287,0.777921 1.292602,3.387565 4.018931,6.00202 7.04195,7.236535 C 17.051856,32.994 13.138771,28.962178 12.442221,24.404792 Z m 8.614667,-14.54899 c -2.470268,0.515941 -4.88708,1.880911 -6.661867,4.299149 1.189429,-1.506654 2.608189,-2.317189 3.992737,-2.803189 -0.12509,0.09089 -0.246439,0.182317 -0.366718,0.275882 -1.080375,0.641049 -2.094463,1.410415 -3.00217,2.37493 -0.244835,0.313842 -0.356561,0.696654 -0.584825,0.973604 l -0.484324,0.730337 c -0.642024,0.606832 -1.025849,1.33396 -1.443351,2.103327 -1.812742,3.999742 -1.594636,8.97897 0.892739,13.165841 -4.497375,-6.228178 -2.723122,-15.128554 2.599636,-19.069485 2.214742,-1.747782 4.781768,-2.6005544 7.302287,-2.740099 -0.776202,0.1603961 -1.525141,0.3961782 -2.244144,0.689703 z m 8.170437,24.644317 c -0.418572,0.07432 0.228263,-0.106931 2.112103,-1.219545 0.16358,-0.0941 0.340524,-0.20798 0.525487,-0.329881 0.734505,-0.389228 1.428917,-0.851168 2.070941,-1.376198 -1.853904,1.795366 -4.13226,2.934178 -4.708531,2.925624 z"
           id="Fill-2"
           fill="#ff8000" />
        <path
           d="m 49.862434,24.575881 c 0,4.148911 2.660042,5.139089 6.787492,5.139089 h 6.907236 v 6.177921 c 0,0 -4.742744,0 -7.990284,0 -8.164556,0 -12.837272,-2.863069 -12.837272,-13.668416 0,-9.351624 1.527814,-14.2682968 12.149274,-14.2682968 8.428101,0 10.476056,3.4442378 10.476056,10.9031878 0,1.418971 0,5.77105 0,5.77105 z m 8.803907,-5.686039 c 0,-2.735288 0.01336,-5.410693 -4.181977,-5.410693 -4.142417,0 -4.671111,2.564197 -4.671111,5.410693 z"
           id="Fill-3"
           fill="#363940" />
        <path
           d="M 117.152,7.9561782 H 93.210008 V 35.892891 h 5.986165 V 13.942158 h 4.220997 v 0.0021 c 1.43694,0 2.60819,1.092832 2.76162,2.491485 v 19.457109 h 5.98563 V 13.942158 h 4.18999 v 0.0021 c 1.53904,0 2.79208,1.252693 2.79208,2.79196 v 19.156634 h 5.98456 V 15.937485 c 0,-4.404475 -3.57042,-7.9813068 -7.97905,-7.9813068"
           id="Fill-4"
           fill="#363940" />
        <path
           d="m 78.048941,13.944297 v -0.0021 H 89.222082 V 7.9561782 H 77.00759 l -0.0043,0.01497 C 73.068846,8.0898416 69.859261,11.053426 69.349277,14.878337 H 69.26909 V 27.84796 h 0.08019 l -0.08019,0.06416 c 0,4.32 3.441591,7.835881 7.734224,7.966871 l 0.0043,0.0139 H 89.222082 V 29.904238 H 78.048941 c -1.541178,0 -2.793686,-1.252693 -2.793686,-2.794099 V 16.736257 c 0,-1.539267 1.252508,-2.79196 2.793686,-2.79196"
           id="Fill-5"
           fill="#363940" />
        <path
           d="m 149.07304,15.937485 c 0,-4.404475 -3.57256,-7.9813068 -7.98066,-7.9813068 -2.44675,0 -11.97073,0 -11.97073,0 v 5.9859798 h 11.17368 v 0.0021 c 1.87635,0 2.79315,1.252693 2.79315,2.79196 0,0 0,0.422911 -0.88098,1.116357 -1.14239,0.89501 -5.87765,2.187267 -8.45857,3.218614 v -0.01337 c -4.02588,1.347327 -5.87498,3.861802 -5.87498,7.801664 0,5.119307 2.2543,7.09699 6.68432,7.09699 h 14.51477 c -0.1283,-3.005822 0,-20.01903 0,-20.01903 z m -5.98456,14.115921 c 0,0 -6.84095,0 -8.53234,0 -0.53672,0 -0.84891,0 -0.89061,-0.381743 -0.40627,-3.659703 1.81595,-3.520693 9.42295,-6.142099 z"
           id="Fill-6"
           fill="#363940" />
        <polygon
           id="Fill-7"
           fill="#bbc7c1"
           points="101.07948,44.445743 99.282774,44.445743 99.282774,53.402257 101.07948,53.402257 " />
        <polyline
           id="Fill-8"
           fill="#bbc7c1"
           points="103.297963 44.4457426 105.505221 44.4457426 108.918479 51.1438812 108.943604 51.1438812 108.943604 44.4457426 110.66333 44.4457426 110.66333 53.4022574 108.469436 53.4022574 105.043883 46.7041188 105.017689 46.7041188 105.017689 53.4022574 103.297963 53.4022574 103.297963 44.4457426" />
        <polyline
           id="Fill-9"
           fill="#bbc7c1"
           points="114.666223 45.8566931 112.099731 45.8566931 112.099731 44.4457426 119.027282 44.4457426 119.027282 45.8566931 116.461859 45.8566931 116.461859 53.4022574 114.666223 53.4022574 114.666223 45.8566931" />
        <polyline
           id="Fill-10"
           fill="#bbc7c1"
           points="120.555096 44.4457426 125.839899 44.4457426 125.839899 45.8566931 122.350731 45.8566931 122.350731 48.0642772 125.545883 48.0642772 125.545883 49.4757624 122.350731 49.4757624 122.350731 51.9913069 125.866093 51.9913069 125.866093 53.4022574 120.555096 53.4022574 120.555096 44.4457426" />
        <path
           d="m 127.91886,44.445743 h 1.93676 c 1.92554,0 4.22154,-0.06416 4.22154,2.424653 0,1.052733 -0.70618,1.925287 -1.84696,2.078733 v 0.0262 c 0.48753,0.03796 0.76925,0.526099 0.94887,0.924416 l 1.4364,3.502514 h -2.00144 l -1.07717,-2.797841 c -0.25713,-0.666713 -0.48753,-0.923347 -1.24449,-0.923347 h -0.57788 v 3.721188 h -1.79563 z m 1.79563,3.823841 h 0.59124 c 0.88419,0 1.89828,-0.128851 1.89828,-1.244673 0,-1.078396 -1.00019,-1.168218 -1.89828,-1.168218 h -0.59124 z"
           id="Fill-11"
           fill="#bbc7c1" />
        <polyline
           id="Fill-12"
           fill="#bbc7c1"
           points="136.206902 44.4457426 138.41416 44.4457426 141.826348 51.1438812 141.852543 51.1438812 141.852543 44.4457426 143.570665 44.4457426 143.570665 53.4022574 141.377306 53.4022574 137.951753 46.7041188 137.926628 46.7041188 137.926628 53.4022574 136.206902 53.4022574 136.206902 44.4457426" />
        <path
           d="m 148.51067,44.445743 h 2.02657 l 3.51536,8.956514 h -1.98808 l -0.77032,-2.053604 h -3.6303 l -0.78315,2.053604 h -1.85979 z m 0.98736,1.796435 h -0.0251 l -1.29688,3.695525 h 2.61781 l -1.2958,-3.695525 z"
           id="Fill-13"
           fill="#bbc7c1" />
        <polyline
           id="Fill-14"
           fill="#bbc7c1"
           points="156.197314 45.8566931 153.631891 45.8566931 153.631891 44.4457426 160.559441 44.4457426 160.559441 45.8566931 157.994019 45.8566931 157.994019 53.4022574 156.197314 53.4022574 156.197314 45.8566931" />
        <polygon
           id="Fill-15"
           fill="#bbc7c1"
           points="163.72786,44.445743 161.93223,44.445743 161.93223,53.402257 163.72786,53.402257 " />
        <path
           d="m 169.98933,44.291762 c 2.80973,0 4.38726,1.899089 4.38726,4.606575 0,2.707485 -1.55134,4.657366 -4.38726,4.657366 -2.8744,0 -4.38832,-1.911386 -4.38832,-4.657366 0,-2.745981 1.54011,-4.606575 4.38832,-4.606575 z m 0,7.852991 c 1.83466,0 2.51411,-1.629624 2.51411,-3.246416 0,-1.578297 -0.73076,-3.195089 -2.51411,-3.195089 -1.78334,0 -2.51517,1.616792 -2.51517,3.195089 0,1.616792 0.68105,3.246416 2.51517,3.246416 z"
           id="Fill-16"
           fill="#bbc7c1" />
        <polyline
           id="Fill-17"
           fill="#bbc7c1"
           points="176.31442 44.4457426 178.520609 44.4457426 181.933867 51.1438812 181.960061 51.1438812 181.960061 44.4457426 183.678718 44.4457426 183.678718 53.4022574 181.484824 53.4022574 178.059271 46.7041188 178.034146 46.7041188 178.034146 53.4022574 176.31442 53.4022574 176.31442 44.4457426" />
        <path
           d="m 188.61819,44.445743 h 2.02657 l 3.51536,8.956514 h -1.98808 l -0.77033,-2.053604 h -3.63029 l -0.78315,2.053604 h -1.85925 z m 0.98735,1.796435 h -0.0246 l -1.29687,3.695525 h 2.61727 l -1.29581,-3.695525 z"
           id="Fill-18"
           fill="#bbc7c1" />
        <polyline
           id="Fill-19"
           fill="#bbc7c1"
           points="195.700229 44.4457426 197.495864 44.4457426 197.495864 51.9913069 200.972737 51.9913069 200.972737 53.4022574 195.700229 53.4022574 195.700229 44.4457426" />
      </g>
    </g>
  </g>
  <metadata
     id="metadata1">
    <rdf:RDF>
      <cc:Work
         rdf:about="">
        <dc:title>Artboard</dc:title>
      </cc:Work>
    </rdf:RDF>
  </metadata>
</svg>
