<?xml version="1.0" encoding="UTF-8" standalone="no"?>
<!-- Generator: Adobe Illustrator 15.1.0, SVG Export Plug-In . SVG Version: 6.00 Build 0)  -->

<svg
   xmlns:dc="http://purl.org/dc/elements/1.1/"
   xmlns:cc="http://creativecommons.org/ns#"
   xmlns:rdf="http://www.w3.org/1999/02/22-rdf-syntax-ns#"
   xmlns:svg="http://www.w3.org/2000/svg"
   xmlns="http://www.w3.org/2000/svg"
   xmlns:sodipodi="http://sodipodi.sourceforge.net/DTD/sodipodi-0.dtd"
   xmlns:inkscape="http://www.inkscape.org/namespaces/inkscape"
   version="1.1"
   id="Layer_1"
   x="0px"
   y="0px"
   viewBox="0 0 846.9705 183.50901"
   enable-background="new 0 0 1014.53 350.61"
   xml:space="preserve"
   sodipodi:docname="jclogo.svg"
   inkscape:version="0.92.2 (5c3e80d, 2017-08-06)"><metadata
     id="metadata4475"><rdf:RDF><cc:Work
         rdf:about=""><dc:format>image/svg+xml</dc:format><dc:type
           rdf:resource="http://purl.org/dc/dcmitype/StillImage" /><dc:title /></cc:Work></rdf:RDF></metadata><defs
     id="defs4473" /><sodipodi:namedview
     pagecolor="#ffffff"
     bordercolor="#666666"
     borderopacity="1"
     objecttolerance="10"
     gridtolerance="10"
     guidetolerance="10"
     inkscape:pageopacity="0"
     inkscape:pageshadow="2"
     inkscape:window-width="1920"
     inkscape:window-height="1017"
     id="namedview4471"
     showgrid="false"
     inkscape:zoom="0.27993257"
     inkscape:cx="-978.40887"
     inkscape:cy="91.754993"
     inkscape:window-x="-8"
     inkscape:window-y="-8"
     inkscape:window-maximized="1"
     inkscape:current-layer="Layer_1" /><path
     d="M 83.619494,86.235 V 72.943 c 0,-0.064 0.052,-0.116 0.116,-0.116 h 60.332996 c 0.052,0 0.097,0.034 0.11,0.084 1.493,5.63 4.853,11.362 8.24,15.132 0.023,0.026 0.031,0.057 0.018,0.09 -0.234,0.617 -2.653,6.977 -3.256,8.57 -0.009,0.025 -0.007,0.046 0.004,0.07 2.912,6.048 6.743,17.953 4.73,29.044 -2.292,12.625 -4.604,16.084 -11.719,20.496 -5.638,3.497 -10.703,5.034 -15.74,4.421 -6.691,-0.813 -8.25,-4.375 -18.541,0.292 -3.198,1.45 -3.664,1.55 -8.458996,3.666 -4.171,1.84 -7.445,3.531 -11.416,6.625 -1.009,0.787 -2.608,2.242 -3.712,3.256 -0.309,0.284 -0.803,0.062 -0.802,-0.356 l 0.024,-24.107 c 0.081,-0.102 6.772,-6.849 16.448,-3.457 20.957996,7.345 25.924996,4.846 25.924996,4.791 -0.005,-4.647 0.074,-48.717 0,-48.694 -1.062,0.332 -9.471,0.294 -22.958,-7.098 -6.593996,-3.615 -14.386996,0.552 -18.363996,2.979 -0.458,0 -0.673,-0.082 -1.001,-0.063 z"
     id="path4338"
     inkscape:connector-curvature="0"
     style="fill:#b8263a" /><path
     d="m 40.449494,145.993 c -1.619,0 -3.083,-0.133 -4.328,-0.427 l -1.54,-0.364 V 88.896 l 2.255,0.29 c 0.066,0.009 8.194,0.818 24.236,-7.097 10.618,-5.24 23.125,3.424 23.652,3.794 l -0.025,0.598 -0.01,58.613 -0.198,-0.823 -2.146,-1.648 c -0.279,-0.21 -7.117,-5.239 -16.946,-1.843 -7.572,2.617 -17.778,5.212 -24.95,5.213 m -1.868,-4.074 c 5.347,0.507 15.221,-1.364 25.511,-4.92 7.694,-2.656 13.924,-0.979 17.471,0.619 l 0.009,-49.008 c -2.749,-1.678 -11.625,-6.442 -18.731,-2.934 -12.512,6.174 -20.601,7.353 -24.26,7.515 z"
     id="path4340"
     inkscape:connector-curvature="0"
     style="fill:#b8263a" /><rect
     x="83.572495"
     y="58.826"
     width="29.323"
     height="12.117"
     id="rect4342"
     style="fill:#b8263a" /><rect
     x="83.572495"
     y="42.813"
     width="29.323"
     height="10.233"
     id="rect4344"
     style="fill:#b8263a" /><rect
     x="53.411499"
     y="32.529003"
     width="30.17"
     height="10.233"
     id="rect4346"
     style="fill:#b8263a" /><path
     d="m 83.580494,26.83 h -30.17 V 16.083 c 0,0 2.822,-1.4 5.545,-2.725 3.488,-1.695 6.067,-3.136 8.378,-3.302 1.872,-0.135 5.376,0.555 6.393,0.761 2.739,0.552 9.846,0.906 9.846,0.906 z"
     id="path4348"
     inkscape:connector-curvature="0"
     style="fill:#b8263a" /><path
     d="m 47.760494,26.83 h -33.215 l 5.746,-8.76 c 0,0 7.019,3.205 13.853,3.025 7.999,-0.212 13.616,-2.702 13.616,-2.702 z"
     id="path4350"
     inkscape:connector-curvature="0"
     style="fill:#b8263a" /><path
     d="m 47.760494,42.762 h -24.89 c 0,0 -1.029,-2.801 -2.087,-4.783 -1.479,-2.771 -3.709,-5.45 -3.709,-5.45 h 30.686 z"
     id="path4352"
     inkscape:connector-curvature="0"
     style="fill:#b8263a" /><path
     d="m 142.10649,53.046 h -23.338 V 42.813 h 25.39 c 0,0 -0.852,2.679 -1.369,5.116 -0.462,2.179 -0.683,5.117 -0.683,5.117"
     id="path4354"
     inkscape:connector-curvature="0"
     style="fill:#b8263a" /><path
     d="m 143.19849,70.943 h -24.43 V 58.826 h 23.229 c 0,0 -0.062,1.712 0.376,6.353 0.437,4.637 0.825,5.764 0.825,5.764"
     id="path4356"
     inkscape:connector-curvature="0"
     style="fill:#b8263a" /><path
     d="m 110.16649,28.436 c 0,-1.788 0.884,-3.381 2.261,-4.409 -0.29,0.534 -0.453,1.139 -0.453,1.78 0,2.157 1.848,3.905 4.129,3.905 2.28,0 4.129,-1.748 4.129,-3.905 0,-0.641 -0.164,-1.246 -0.453,-1.78 1.377,1.028 2.262,2.621 2.262,4.409 0,3.101 -2.659,5.614 -5.938,5.614 -3.279,0 -5.937,-2.513 -5.937,-5.614"
     id="path4358"
     inkscape:connector-curvature="0"
     style="fill:#b8263a" /><path
     d="m 92.188494,18.458 c 0,-1.341 0.663,-2.536 1.696,-3.307 -0.217,0.4 -0.34,0.854 -0.34,1.335 0,1.618 1.386,2.929 3.097,2.929 1.71,0 3.096,-1.311 3.096,-2.929 0,-0.481 -0.122,-0.935 -0.34,-1.335 1.033996,0.771 1.696996,1.966 1.696996,3.307 0,2.325 -1.993996,4.21 -4.452996,4.21 -2.459,0 -4.453,-1.885 -4.453,-4.21"
     id="path4360"
     inkscape:connector-curvature="0"
     style="fill:#b8263a" /><path
     d="m 92.188494,36.161 c 0,-1.341 0.663,-2.536 1.696,-3.307 -0.217,0.401 -0.34,0.855 -0.34,1.335 0,1.618 1.386,2.929 3.097,2.929 1.71,0 3.096,-1.311 3.096,-2.929 0,-0.48 -0.122,-0.934 -0.34,-1.335 1.033996,0.771 1.696996,1.966 1.696996,3.307 0,2.326 -1.993996,4.21 -4.452996,4.21 -2.459,0 -4.453,-1.883 -4.453,-4.21"
     id="path4362"
     inkscape:connector-curvature="0"
     style="fill:#b8263a" /><path
     d="m 131.44249,23.751 c 0,-1.341 0.663,-2.536 1.696,-3.306 -0.217,0.4 -0.34,0.854 -0.34,1.335 0,1.617 1.386,2.928 3.097,2.928 1.71,0 3.096,-1.311 3.096,-2.928 0,-0.481 -0.122,-0.935 -0.34,-1.336 1.034,0.771 1.696,1.966 1.696,3.307 0,2.326 -1.993,4.211 -4.452,4.211 -2.46,0 -4.453,-1.885 -4.453,-4.211"
     id="path4364"
     inkscape:connector-curvature="0"
     style="fill:#b8263a" /><path
     d="m 131.44249,36.161 c 0,-1.341 0.663,-2.536 1.696,-3.307 -0.217,0.401 -0.34,0.855 -0.34,1.335 0,1.618 1.386,2.929 3.097,2.929 1.71,0 3.096,-1.311 3.096,-2.929 0,-0.48 -0.122,-0.934 -0.34,-1.335 1.034,0.771 1.696,1.966 1.696,3.307 0,2.326 -1.993,4.21 -4.452,4.21 -2.46,0 -4.453,-1.883 -4.453,-4.21"
     id="path4366"
     inkscape:connector-curvature="0"
     style="fill:#b8263a" /><path
     d="m 44.917494,55.173 c 0,-1.788 0.884,-3.381 2.261,-4.409 -0.29,0.534 -0.453,1.139 -0.453,1.78 0,2.156 1.848,3.905 4.129,3.905 2.28,0 4.129,-1.749 4.129,-3.905 0,-0.641 -0.164,-1.246 -0.453,-1.78 1.377,1.028 2.262,2.621 2.262,4.409 0,3.101 -2.659,5.614 -5.938,5.614 -3.279,0 -5.937,-2.513 -5.937,-5.614"
     id="path4368"
     inkscape:connector-curvature="0"
     style="fill:#b8263a" /><path
     d="m 26.939494,49.118 c 0,-1.341 0.663,-2.536 1.696,-3.306 -0.217,0.4 -0.34,0.854 -0.34,1.335 0,1.617 1.386,2.928 3.097,2.928 1.71,0 3.096,-1.311 3.096,-2.928 0,-0.481 -0.122,-0.935 -0.34,-1.336 1.034,0.771 1.697,1.966 1.697,3.307 0,2.326 -1.994,4.211 -4.453,4.211 -2.459,0 -4.453,-1.885 -4.453,-4.211"
     id="path4370"
     inkscape:connector-curvature="0"
     style="fill:#b8263a" /><path
     d="m 26.939494,61.528 c 0,-1.341 0.663,-2.536 1.696,-3.307 -0.217,0.401 -0.34,0.855 -0.34,1.336 0,1.617 1.386,2.928 3.097,2.928 1.71,0 3.096,-1.311 3.096,-2.928 0,-0.481 -0.122,-0.935 -0.34,-1.336 1.034,0.771 1.697,1.966 1.697,3.307 0,2.326 -1.994,4.21 -4.453,4.21 -2.459,0 -4.453,-1.884 -4.453,-4.21"
     id="path4372"
     inkscape:connector-curvature="0"
     style="fill:#b8263a" /><path
     d="m 66.193494,49.118 c 0,-1.341 0.663,-2.536 1.696,-3.306 -0.217,0.4 -0.34,0.854 -0.34,1.335 0,1.617 1.386,2.928 3.097,2.928 1.71,0 3.096,-1.311 3.096,-2.928 0,-0.481 -0.122,-0.935 -0.34,-1.336 1.034,0.771 1.696,1.966 1.696,3.307 0,2.326 -1.993,4.211 -4.452,4.211 -2.459,0 -4.453,-1.885 -4.453,-4.211"
     id="path4374"
     inkscape:connector-curvature="0"
     style="fill:#b8263a" /><path
     d="m 66.193494,61.528 c 0,-1.341 0.663,-2.536 1.696,-3.307 -0.217,0.401 -0.34,0.855 -0.34,1.336 0,1.617 1.386,2.928 3.097,2.928 1.71,0 3.096,-1.311 3.096,-2.928 0,-0.481 -0.122,-0.935 -0.34,-1.336 1.034,0.771 1.696,1.966 1.696,3.307 0,2.326 -1.993,4.21 -4.452,4.21 -2.459,0 -4.453,-1.884 -4.453,-4.21"
     id="path4376"
     inkscape:connector-curvature="0"
     style="fill:#b8263a" /><polygon
     points="167.123,154.494 107.355,154.494 106.411,156.378 167.123,156.378 "
     id="polygon4378"
     style="fill:#b8263a"
     transform="translate(-83.550506,-83.551)" /><path
     d="m 83.550494,183.509 c 3.453,-10.032 13.366,-16.437 16.862996,-18.233 3.149,-1.615 15.259,-6.6 15.963,-6.669 0.704,-0.073 4.1,1.319 6.634,1.815 15.563,2.725 27.023,-6.146 32.308,-11.48 7.638,-7.709 10.326,-21.209 9.226,-34.453 -0.98,-9.164 -3.458,-15.274 -4.432,-17.786 -0.046,-0.113 -0.046,-0.242 0,-0.355 l 3.61,-9.491 0.721,-1.943 c 0,-0.005 0,-0.011 -0.006,-0.017 l -1.752,-1.098 c -0.022,-0.017 -2.551,-1.769 -5.26,-5.79 -3.25,-4.822 -5.113,-7.926 -5.594,-24.275 0.631,-10.251 7.058,-16.808 10.629,-18.706 2.574,-1.245 5.739,-2.512 4.264,-4.917 -2.817,-4.14 -14.566,-22.108 -14.566,-22.108 0,0 -2.224,-3.97 -6.511,-0.72 -0.005,0.011 -0.016,0.016 -0.028,0.022 -2.839,1.752 -8.59,4.506 -15.269,3.577 -6.551,-0.913 -13.214,-4.174 -18.322,-6.793 -0.367,-0.186 -0.727,-0.372 -1.082,-0.552 -2.551,-1.312 -7.215,-3.537 -10.859,-3.537 -1.976996,0 -2.506996,1.093 -8.606996,1.301 -3.858,0.13 -4.432,0.287 -7.626,0.355 h -0.304 -0.304 c -3.194,-0.068 -3.768,-0.225 -7.627,-0.355 -6.099,-0.208 -6.629,-1.301 -8.606,-1.301 -3.644,0 -8.308,2.225 -10.859,3.537 -0.355,0.18 -0.715,0.366 -1.082,0.552 -5.108,2.619 -11.772,5.88 -18.322,6.793 -6.68,0.929 -12.43,-1.825 -15.269,-3.577 -0.012,-0.006 -0.023,-0.011 -0.029,-0.022 -4.286,-3.25 -6.51,0.72 -6.51,0.72 0,0 -11.7499997,17.968 -14.56599972,22.108 -1.47599998,2.405 1.69000002,3.672 4.26400002,4.917 3.571,1.898 9.9969997,8.455 10.6279997,18.706 -0.48,16.349 -2.343,19.453 -5.5929997,24.275 -2.709,4.021 -5.238,5.773 -5.261,5.79 l -1.751,1.098 c -0.006,0.006 -0.006,0.012 -0.006,0.017 l 0.721,1.943 3.61,9.491 c 0.045,0.113 0.045,0.242 0,0.355 -0.974,2.512 -3.452,8.622 -4.432,17.786 -1.1,13.244 1.587,26.744 9.2249997,34.453 5.286,5.334 16.746,14.205 32.308,11.48 2.535,-0.496 5.931,-1.889 6.635,-1.815 0.704,0.069 12.814,5.054 15.962,6.669 3.498,1.797 13.41,8.201 16.864,18.233 m 0,-176.785 c 0,0 4.111,-0.084 8.364,-0.71 4.258,-0.631 7.294,-1.121 8.521996,-0.912 1.233,0.214 1.819,0.298 3.593,0.98 1.78,0.681 5.12,2.23 5.667,2.506 5.435,2.782 12.571,6.286 19.955,7.311 8.398,1.166 15.365,-2.225 18.813,-4.382 l 12.284,18.728 c -1.577,0.816 -3.56,2.084 -5.52,4.004 -3.785,3.701 -8.285,10.662 -8.235,22.801 0.079,18.046 7.785,26.731 11.322,29.767 l -2.991,7.857 -0.738,1.943 c 0,0 4.534,10.505 4.861,18.575 0.327,8.076 -1.352,16.774 -2.861,21.121 -1.504,4.321 -4.416,10.726 -15.146,16.165 0,0 -8.291,4.331 -15.32,3.268 -0.659,-0.097 -1.301,-0.26 -1.955,-0.399 -0.524,-0.108 -1.047,-0.22 -1.571,-0.338 -0.406,-0.09 -0.817,-0.187 -1.222,-0.287 -0.304,-0.074 -0.614,-0.147 -0.919,-0.232 -0.214,-0.056 -0.433,-0.111 -0.647,-0.175 -3.222,-1.052 -6.298,-0.202 -6.86,0.119 -0.338,0.18 -10.809,4.297 -14.678996,6.371 -2.14,1.147 -11.861,6.71 -14.206,12.24 -0.067,0.159 -0.218,0.263 -0.391,0.263 h -0.24 c -0.173,0 -0.324,-0.104 -0.392,-0.263 -2.344,-5.53 -12.066,-11.093 -14.206,-12.24 -3.869,-2.074 -14.34,-6.191 -14.678,-6.371 -0.563,-0.321 -3.638,-1.171 -6.86,-0.119 -0.214,0.063 -0.433,0.119 -0.648,0.175 -0.304,0.085 -0.614,0.158 -0.918,0.232 -0.406,0.101 -0.817,0.197 -1.222,0.287 -0.524,0.118 -1.048,0.229 -1.571,0.338 -0.654,0.14 -1.296,0.303 -1.955,0.399 -7.029,1.063 -15.32,-3.268 -15.32,-3.268 -10.73,-5.439 -13.642,-11.844 -15.146,-16.165 -1.5089997,-4.347 -3.1879997,-13.045 -2.8609997,-21.121 0.327,-8.07 4.8609997,-18.575 4.8609997,-18.575 l -0.738,-1.943 -2.9909997,-7.857 C 12.322494,83.781 20.028494,75.096 20.106494,57.05 c 0.051,-12.139 -4.449,-19.1 -8.234,-22.801 C 9.9124943,32.329 7.9294943,31.061 6.3524943,30.245 L 18.636494,11.517 c 3.447,2.157 10.414,5.548 18.812,4.382 7.385,-1.025 14.521,-4.529 19.956,-7.311 0.546,-0.276 3.887,-1.825 5.667,-2.506 1.773,-0.682 2.359,-0.766 3.593,-0.98 1.228,-0.209 4.263,0.281 8.522,0.912 4.252,0.626 8.364,0.71 8.364,0.71"
     id="path4380"
     inkscape:connector-curvature="0"
     style="fill:#b8263a" /><g
     id="g4384"
     transform="translate(-83.550506,-83.551)"><path
       d="m 320.113,178.389 -3.758,3.074 c -2.391,-3.367 -5.611,-5.075 -9.613,-5.075 -3.416,0 -6.197,1.122 -8.345,3.367 -2.147,2.244 -3.221,5.075 -3.221,8.49 0,3.465 1.123,6.344 3.318,8.638 2.196,2.293 5.075,3.416 8.54,3.416 4.246,0 7.417,-1.61 9.613,-4.88 v -3.465 h -9.906 v -4.587 h 15.078 v 9.076 c -2.879,5.124 -8.54,8.491 -15.029,8.491 -4.782,0 -8.833,-1.61 -12.102,-4.782 -3.269,-3.172 -4.88,-7.125 -4.88,-11.858 0,-4.685 1.61,-8.637 4.88,-11.809 3.27,-3.221 7.32,-4.831 12.102,-4.831 5.71,0.001 10.151,2.245 13.323,6.735 z M 306.84,168.141 c -1.952,0 -3.513,-1.464 -3.513,-3.367 0,-1.952 1.562,-3.416 3.513,-3.416 1.952,0 3.514,1.464 3.514,3.416 0,1.903 -1.562,3.367 -3.514,3.367 z"
       id="path4382"
       inkscape:connector-curvature="0"
       style="fill:#b8263a" /></g><g
     id="g4428"
     transform="translate(-83.550506,-83.551)"><path
       d="m 334.317,201.177 c 0.244,3.318 -4.246,5.026 -6.49,2.684 -2.44,-2.146 -0.585,-6.733 2.732,-6.489 2.099,0 3.758,1.609 3.758,3.805 z"
       id="path4386"
       inkscape:connector-curvature="0"
       style="fill:#b8263a" /><path
       d="m 361.693,172.191 v 4.636 h -15.518 v 9.612 h 12.785 v 4.686 h -12.785 v 13.272 h -5.172 V 172.19 h 20.69 z"
       id="path4388"
       inkscape:connector-curvature="0"
       style="fill:#b8263a" /><path
       d="m 368.674,201.177 c 0.244,3.318 -4.246,5.026 -6.49,2.684 -2.44,-2.146 -0.585,-6.733 2.732,-6.489 2.099,0 3.758,1.609 3.758,3.805 z"
       id="path4390"
       inkscape:connector-curvature="0"
       style="fill:#b8263a" /><path
       d="m 408.007,204.398 -2.293,-5.368 h -14.493 l -2.293,5.368 h -5.514 l 14.2,-32.743 h 1.757 l 14.2,32.743 z m -4.196,-9.809 -5.319,-13.37 -5.368,13.37 z"
       id="path4392"
       inkscape:connector-curvature="0"
       style="fill:#b8263a" /><path
       d="m 439.729,183.512 c 2.245,2.392 3.367,5.368 3.367,8.931 0,3.562 -1.122,6.538 -3.318,8.93 -2.196,2.391 -5.026,3.563 -8.394,3.563 -3.513,0 -6.636,-1.415 -8.393,-3.904 v 3.367 h -4.782 V 167.8 h 5.124 v 15.566 c 1.903,-2.293 4.538,-3.464 8.002,-3.464 3.367,0 6.197,1.22 8.394,3.61 z m -4.002,14.542 c 1.415,-1.464 2.098,-3.367 2.098,-5.66 0,-2.294 -0.683,-4.148 -2.098,-5.612 -1.415,-1.464 -3.123,-2.195 -5.221,-2.195 -2.001,0 -3.709,0.683 -5.124,2.049 -1.415,1.318 -2.098,3.27 -2.098,5.808 0,5.123 3.27,7.808 7.222,7.808 2.098,-0.002 3.806,-0.734 5.221,-2.198 z"
       id="path4394"
       inkscape:connector-curvature="0"
       style="fill:#b8263a" /><path
       d="m 470.376,194.102 h -17.86 c 0.634,3.952 3.66,6.295 7.808,6.295 2.488,0 4.831,-0.928 6.978,-2.831 l 2.439,3.514 c -2.732,2.586 -5.904,3.855 -9.564,3.855 -3.709,0 -6.783,-1.172 -9.223,-3.563 -2.44,-2.392 -3.66,-5.368 -3.66,-8.93 0,-3.514 1.171,-6.49 3.563,-8.882 2.391,-2.439 5.368,-3.659 8.832,-3.659 3.172,0 5.807,1.024 7.905,3.123 2.099,2.098 3.172,4.685 3.172,7.856 10e-4,1.026 -0.146,2.099 -0.39,3.222 z M 452.614,190.1 h 13.029 c -0.049,-3.563 -2.684,-5.855 -6.148,-5.855 -3.368,0 -6.1,2.293 -6.881,5.855 z"
       id="path4396"
       inkscape:connector-curvature="0"
       style="fill:#b8263a" /><path
       d="m 481.603,167.8 v 36.598 h -5.124 V 167.8 Z"
       id="path4398"
       inkscape:connector-curvature="0"
       style="fill:#b8263a" /><path
       d="m 507.905,189.905 v 14.493 h -4.782 v -2.684 c -1.806,2.146 -4.343,3.221 -7.661,3.221 -5.026,0 -8.344,-2.782 -8.344,-6.93 0,-4.148 3.416,-6.832 8.832,-6.832 h 6.783 v -1.562 c 0,-3.317 -1.854,-5.123 -5.124,-5.123 -2.391,0 -4.636,1.171 -6.636,3.562 l -2.977,-3.025 c 2.391,-3.415 5.758,-5.123 10.101,-5.123 5.905,0 9.808,3.561 9.808,10.003 z m -5.172,5.417 v -0.439 h -6.149 c -2.83,0 -4.245,0.976 -4.245,2.928 0,2.001 1.708,3.172 4.196,3.172 3.465,-0.001 6.198,-2.392 6.198,-5.661 z"
       id="path4400"
       inkscape:connector-curvature="0"
       style="fill:#b8263a" /><path
       d="m 537.774,172.191 v 24.204 c 0,5.709 -3.367,8.54 -9.077,8.54 -1.415,0 -2.879,-0.195 -4.44,-0.537 v -4.44 c 1.464,0.146 2.587,0.244 3.318,0.244 3.367,0 5.026,-1.074 5.026,-4.344 v -23.667 z"
       id="path4402"
       inkscape:connector-curvature="0"
       style="fill:#b8263a" /><path
       d="m 565.785,180.438 v 13.907 c 0,3.172 -0.976,5.759 -2.977,7.71 -1.951,1.903 -4.44,2.88 -7.417,2.88 -3.025,0 -5.514,-0.977 -7.515,-2.88 -2.001,-1.951 -2.977,-4.538 -2.977,-7.71 v -13.907 h 5.075 v 14.298 c 0,3.318 2.293,5.466 5.416,5.466 2.977,0 5.271,-2.147 5.271,-5.466 v -14.298 z"
       id="path4404"
       inkscape:connector-curvature="0"
       style="fill:#b8263a" /><path
       d="m 593.749,189.417 v 14.98 h -5.124 V 190.1 c 0,-3.318 -2.098,-5.563 -5.221,-5.563 -3.172,0 -5.466,2.293 -5.466,5.563 v 14.298 h -5.123 v -23.96 h 4.782 v 2.392 c 1.805,-1.952 4.196,-2.928 7.173,-2.928 5.612,0 8.979,3.806 8.979,9.515 z"
       id="path4406"
       inkscape:connector-curvature="0"
       style="fill:#b8263a" /><path
       d="m 606.781,171.508 c 0,1.903 -1.562,3.367 -3.514,3.367 -1.952,0 -3.514,-1.464 -3.514,-3.367 0,-1.903 1.562,-3.416 3.514,-3.416 1.904,0 3.514,1.513 3.514,3.416 z m -0.976,8.93 v 23.96 h -5.123 v -23.96 z"
       id="path4408"
       inkscape:connector-curvature="0"
       style="fill:#b8263a" /><path
       d="m 633.182,183.512 c 2.488,2.392 3.757,5.368 3.757,8.882 0,3.513 -1.269,6.49 -3.757,8.93 -2.489,2.391 -5.466,3.611 -8.979,3.611 -3.563,-0.049 -6.539,-1.27 -8.979,-3.66 -2.439,-2.391 -3.659,-5.368 -3.659,-8.881 0,-3.514 1.22,-6.49 3.659,-8.882 2.44,-2.391 5.417,-3.61 8.979,-3.61 3.513,0 6.489,1.22 8.979,3.61 z m -14.298,3.367 c -1.415,1.464 -2.099,3.318 -2.099,5.563 0,2.195 0.684,4.05 2.099,5.563 1.415,1.464 3.172,2.196 5.319,2.196 2.098,0 3.903,-0.732 5.318,-2.196 1.415,-1.513 2.147,-3.367 2.147,-5.563 0,-2.245 -0.732,-4.1 -2.147,-5.563 -1.415,-1.513 -3.172,-2.244 -5.271,-2.293 -2.146,0.049 -3.951,0.781 -5.366,2.293 z"
       id="path4410"
       inkscape:connector-curvature="0"
       style="fill:#b8263a" /><path
       d="m 656.314,180.438 v 4.538 h -1.562 c -4.051,0 -7.027,2.392 -7.027,6.637 v 12.785 h -5.123 v -23.96 h 4.782 v 3.123 c 1.707,-2.244 4.001,-3.367 6.978,-3.367 0.733,0 1.367,0.098 1.952,0.244 z"
       id="path4412"
       inkscape:connector-curvature="0"
       style="fill:#b8263a" /><path
       d="m 703.408,179.072 -3.904,2.879 c -2.391,-3.708 -5.709,-5.563 -9.856,-5.563 -3.318,0 -6.1,1.122 -8.296,3.416 -2.195,2.244 -3.318,5.075 -3.318,8.49 0,3.416 1.123,6.246 3.318,8.54 2.196,2.244 4.978,3.367 8.296,3.367 4.147,0 7.466,-1.854 9.856,-5.563 l 3.904,2.879 c -2.732,4.538 -7.808,7.418 -13.81,7.418 -4.733,0 -8.784,-1.61 -12.053,-4.782 -3.27,-3.172 -4.88,-7.125 -4.88,-11.858 0,-4.685 1.659,-8.637 4.928,-11.809 3.27,-3.221 7.271,-4.831 12.005,-4.831 5.905,0 11.029,2.879 13.81,7.417 z"
       id="path4414"
       inkscape:connector-curvature="0"
       style="fill:#b8263a" /><path
       d="m 728.689,183.512 c 2.488,2.392 3.757,5.368 3.757,8.882 0,3.513 -1.269,6.49 -3.757,8.93 -2.489,2.391 -5.466,3.611 -8.979,3.611 -3.563,-0.049 -6.539,-1.27 -8.979,-3.66 -2.439,-2.391 -3.659,-5.368 -3.659,-8.881 0,-3.514 1.22,-6.49 3.659,-8.882 2.44,-2.391 5.417,-3.61 8.979,-3.61 3.514,0 6.49,1.22 8.979,3.61 z m -14.297,3.367 c -1.415,1.464 -2.099,3.318 -2.099,5.563 0,2.195 0.684,4.05 2.099,5.563 1.415,1.464 3.172,2.196 5.319,2.196 2.098,0 3.903,-0.732 5.318,-2.196 1.415,-1.513 2.147,-3.367 2.147,-5.563 0,-2.245 -0.732,-4.1 -2.147,-5.563 -1.415,-1.513 -3.172,-2.244 -5.271,-2.293 -2.146,0.049 -3.951,0.781 -5.366,2.293 z"
       id="path4416"
       inkscape:connector-curvature="0"
       style="fill:#b8263a" /><path
       d="m 743.282,167.8 v 36.598 h -5.123 V 167.8 Z"
       id="path4418"
       inkscape:connector-curvature="0"
       style="fill:#b8263a" /><path
       d="m 755.678,167.8 v 36.598 h -5.123 V 167.8 Z"
       id="path4420"
       inkscape:connector-curvature="0"
       style="fill:#b8263a" /><path
       d="m 784.519,194.102 h -17.86 c 0.635,3.952 3.66,6.295 7.808,6.295 2.489,0 4.831,-0.928 6.979,-2.831 l 2.439,3.514 c -2.732,2.586 -5.904,3.855 -9.564,3.855 -3.708,0 -6.782,-1.172 -9.223,-3.563 -2.439,-2.392 -3.659,-5.368 -3.659,-8.93 0,-3.514 1.171,-6.49 3.562,-8.882 2.392,-2.439 5.368,-3.659 8.833,-3.659 3.172,0 5.807,1.024 7.905,3.123 2.098,2.098 3.172,4.685 3.172,7.856 -0.002,1.026 -0.148,2.099 -0.392,3.222 z M 766.756,190.1 h 13.029 c -0.049,-3.563 -2.684,-5.855 -6.148,-5.855 -3.367,0 -6.1,2.293 -6.881,5.855 z"
       id="path4422"
       inkscape:connector-curvature="0"
       style="fill:#b8263a" /><path
       d="m 809.408,180.438 h 4.733 v 21.472 c 0,7.563 -4.733,11.809 -12.005,11.809 -4.44,0 -8.295,-1.513 -11.516,-4.538 l 2.83,-3.563 c 2.781,2.294 5.611,3.416 8.393,3.416 4.344,0 7.174,-2.342 7.174,-6.832 v -1.659 c -1.952,2.245 -4.636,3.367 -8.101,3.367 -3.367,0 -6.148,-1.122 -8.345,-3.367 -2.195,-2.244 -3.318,-5.123 -3.318,-8.637 0,-3.514 1.123,-6.393 3.318,-8.637 2.196,-2.245 4.978,-3.367 8.345,-3.367 3.758,0 6.588,1.317 8.491,3.952 v -3.416 z m -2.489,17.03 c 1.415,-1.317 2.147,-3.172 2.147,-5.611 0,-4.88 -3.27,-7.368 -7.223,-7.368 -2.098,0 -3.806,0.683 -5.221,2.049 -1.415,1.367 -2.099,3.172 -2.099,5.368 0,2.245 0.684,4.05 2.099,5.466 1.415,1.366 3.123,2.049 5.221,2.049 2.002,-0.001 3.661,-0.634 5.076,-1.953 z"
       id="path4424"
       inkscape:connector-curvature="0"
       style="fill:#b8263a" /><path
       d="m 842.983,194.102 h -17.86 c 0.635,3.952 3.66,6.295 7.808,6.295 2.489,0 4.831,-0.928 6.979,-2.831 l 2.439,3.514 c -2.732,2.586 -5.904,3.855 -9.564,3.855 -3.708,0 -6.782,-1.172 -9.223,-3.563 -2.439,-2.392 -3.659,-5.368 -3.659,-8.93 0,-3.514 1.171,-6.49 3.562,-8.882 2.392,-2.439 5.368,-3.659 8.833,-3.659 3.172,0 5.807,1.024 7.905,3.123 2.098,2.098 3.172,4.685 3.172,7.856 -10e-4,1.026 -0.147,2.099 -0.392,3.222 z M 825.221,190.1 h 13.029 c -0.049,-3.563 -2.684,-5.855 -6.148,-5.855 -3.368,0 -6.1,2.293 -6.881,5.855 z"
       id="path4426"
       inkscape:connector-curvature="0"
       style="fill:#b8263a" /></g><polygon
     points="298.977,131.163 319.242,131.163 319.242,137.538 291.864,137.538 291.864,93.249 298.977,93.249 "
     id="polygon4430"
     style="fill:#ba263a"
     transform="translate(-83.550506,-83.551)" /><rect
     x="238.30649"
     y="29.695002"
     width="16.507999"
     height="5.9720001"
     id="rect4432"
     style="fill:#ba263a" /><path
     d="m 299.30249,36.07 c 0,11.81 -7.784,18.655 -18.118,18.655 -10.535,0 -18.252,-6.845 -18.252,-18.655 V 9.698 h 7.113 V 36.54 c 0,7.784 4.899,11.676 11.139,11.676 6.173,0 11.005,-3.892 11.005,-11.676 V 9.698 h 7.113 z"
     id="path4434"
     inkscape:connector-curvature="0"
     style="fill:#ba263a" /><path
     d="m 337.68249,33.386 v 20.601 h -7.046 V 34.326 c 0,-4.496 -2.818,-7.65 -7.18,-7.65 -4.361,0 -7.516,3.154 -7.516,7.65 v 19.661 h -7.046 V 21.039 h 6.577 v 3.221 c 2.348,-2.483 5.703,-3.959 9.864,-3.959 7.784,0 12.347,5.368 12.347,13.085"
     id="path4436"
     inkscape:connector-curvature="0"
     style="fill:#ba263a" /><path
     d="m 355.59749,8.759 c 0,2.616 -2.214,4.63 -4.832,4.63 -2.684,0 -4.831,-2.014 -4.831,-4.63 0,-2.617 2.147,-4.697 4.831,-4.697 2.618,0 4.832,2.08 4.832,4.697 m -1.342,45.228 h -7.046 V 21.039 h 7.046 z"
     id="path4438"
     inkscape:connector-curvature="0"
     style="fill:#ba263a" /><polygon
     points="470.685,104.59 478.2,104.59 462.297,138.276 459.881,138.276 443.91,104.59 451.426,104.59 461.089,126.399 "
     id="polygon4440"
     style="fill:#ba263a"
     transform="translate(-83.550506,-83.551)" /><path
     d="m 429.07349,39.827 h -24.56 c 0.94,5.436 5.1,8.657 10.737,8.657 3.825,0 6.844,-1.476 9.595,-3.892 l 3.356,4.831 c -3.49,3.288 -7.919,5.301 -13.153,5.301 -10.2,0 -17.715,-7.448 -17.715,-17.178 0,-9.663 7.448,-17.246 17.044,-17.246 8.791,0 15.233,6.442 15.233,15.098 0,1.813 -0.336,3.557 -0.537,4.429 m -24.426,-5.502 h 17.917 c -0.134,-5.167 -3.959,-8.053 -8.455,-8.053 -4.63,0.001 -8.388,3.155 -9.462,8.053"
     id="path4442"
     inkscape:connector-curvature="0"
     style="fill:#ba263a" /><path
     d="m 456.24849,21.039 v 6.241 h -2.147 c -5.234,0 -9.663,3.019 -9.663,9.126 v 17.581 h -7.046 V 21.039 h 6.576 v 4.294 c 2.349,-3.02 5.839,-4.63 9.596,-4.63 1.14,0 1.945,0.135 2.684,0.336"
     id="path4444"
     inkscape:connector-curvature="0"
     style="fill:#ba263a" /><path
     d="m 484.22849,25.401 -3.825,4.361 c -2.08,-2.147 -4.831,-3.355 -7.716,-3.355 -2.618,0 -4.496,1.007 -4.496,3.154 0,1.812 1.342,2.684 4.361,3.892 l 3.153,1.275 c 5.974,2.483 8.992,5.1 8.992,9.932 0,6.643 -5.637,10.065 -12.212,10.065 -5.839,0 -10.469,-2.684 -13.288,-6.375 l 4.027,-4.429 c 2.616,2.752 5.503,4.698 9.261,4.698 2.885,0 5.301,-1.208 5.301,-3.691 0,-2.147 -1.947,-3.02 -4.63,-4.093 l -3.356,-1.41 c -5.301,-2.214 -8.589,-4.63 -8.589,-9.595 0,-6.107 5.1,-9.53 11.609,-9.53 4.765,0 8.658,1.812 11.408,5.101"
     id="path4446"
     inkscape:connector-curvature="0"
     style="fill:#ba263a" /><path
     d="m 500.93549,8.759 c 0,2.616 -2.215,4.63 -4.832,4.63 -2.686,0 -4.831,-2.014 -4.831,-4.63 0,-2.617 2.146,-4.697 4.831,-4.697 2.617,0 4.832,2.08 4.832,4.697 m -1.342,45.228 h -7.046 V 21.039 h 7.046 z"
     id="path4448"
     inkscape:connector-curvature="0"
     style="fill:#ba263a" /><path
     d="m 529.11749,48.014 v 5.972 c -1.813,0.403 -3.624,0.738 -5.838,0.738 -7.314,0 -12.146,-3.489 -12.146,-11.475 V 27.145 h -5.37 v -6.107 h 5.37 v -8.656 h 7.112 v 8.656 h 9.797 v 6.107 h -9.797 v 15.501 c 0,4.362 2.416,5.703 6.51,5.703 1.208,0 2.617,-0.133 4.362,-0.335"
     id="path4450"
     inkscape:connector-curvature="0"
     style="fill:#ba263a" /><path
     d="m 562.13049,34.057 v 19.929 h -6.575 v -3.69 c -2.349,2.818 -5.973,4.429 -10.535,4.429 -6.911,0 -11.475,-3.825 -11.475,-9.529 0,-5.771 4.765,-9.395 12.146,-9.395 h 9.328 v -2.147 c 0,-4.563 -2.551,-7.046 -7.046,-7.046 -3.825,0 -6.511,1.812 -9.127,4.899 l -4.094,-4.161 c 3.423,-4.831 8.321,-7.046 13.892,-7.046 7.917,0 13.486,4.63 13.486,13.757 m -16.104,-18.186 -7.333,-10.315 V 4.281 h 8.247 l 4.319,11.59 z m 8.992,25.634 v -0.604 h -8.455 c -3.759,0 -5.838,1.342 -5.838,4.026 0,2.886 2.55,4.362 5.771,4.362 4.63,0 8.522,-3.288 8.522,-7.784"
     id="path4452"
     inkscape:connector-curvature="0"
     style="fill:#ba263a" /><path
     d="m 609.43649,48.518 v 5.972 c -1.812,0.402 -3.623,0.737 -5.837,0.737 -7.314,0 -12.146,-3.489 -12.146,-11.474 V 27.648 h -5.369 v -6.106 h 5.369 v -8.657 h 7.112 v 8.657 h 9.797 v 6.106 h -9.797 v 15.501 c 0,4.362 2.416,5.704 6.508,5.704 1.21,0 2.619,-0.133 4.363,-0.335"
     id="path4454"
     inkscape:connector-curvature="0"
     style="fill:#ba263a" /><path
     d="m 642.45049,34.56 v 19.93 h -6.576 V 50.8 c -2.349,2.818 -5.972,4.428 -10.535,4.428 -6.912,0 -11.475,-3.824 -11.475,-9.528 0,-5.771 4.764,-9.395 12.146,-9.395 h 9.327 v -2.147 c 0,-4.563 -2.549,-7.045 -7.045,-7.045 -3.825,0 -6.51,1.811 -9.126,4.898 l -4.094,-4.161 c 3.422,-4.831 8.32,-7.046 13.89,-7.046 7.919,-10e-4 13.488,4.63 13.488,13.756 m -7.113,7.449 v -0.604 h -8.455 c -3.757,0 -5.838,1.342 -5.838,4.026 0,2.886 2.55,4.362 5.771,4.362 4.63,0 8.522,-3.288 8.522,-7.784"
     id="path4456"
     inkscape:connector-curvature="0"
     style="fill:#ba263a" /><polygon
     points="736.334,93.752 744.454,93.752 741.166,111.736 735.729,111.736 "
     id="polygon4458"
     style="fill:#ba263a"
     transform="translate(-83.550506,-83.551)" /><polygon
     points="780.217,110.193 780.217,138.042 773.104,138.042 773.104,93.014 775.586,93.014 794.175,117.775 812.763,93.014 815.178,93.014 815.178,138.042 808.064,138.042 808.064,110.26 795.382,126.901 792.967,126.901 "
     id="polygon4460"
     style="fill:#ba263a"
     transform="translate(-83.550506,-83.551)" /><path
     d="m 767.86049,34.56 v 19.93 h -6.575 V 50.8 c -2.349,2.818 -5.973,4.428 -10.536,4.428 -6.911,0 -11.474,-3.824 -11.474,-9.528 0,-5.771 4.764,-9.395 12.145,-9.395 h 9.328 v -2.147 c 0,-4.563 -2.55,-7.045 -7.046,-7.045 -3.825,0 -6.51,1.811 -9.126,4.898 l -4.094,-4.161 c 3.423,-4.831 8.322,-7.046 13.891,-7.046 7.918,-10e-4 13.487,4.63 13.487,13.756 m -7.112,7.449 v -0.604 h -8.455 c -3.758,0 -5.839,1.342 -5.839,4.026 0,2.886 2.551,4.362 5.772,4.362 4.63,0 8.522,-3.288 8.522,-7.784"
     id="path4462"
     inkscape:connector-curvature="0"
     style="fill:#ba263a" /><rect
     x="777.38855"
     y="4.1619973"
     width="7.046"
     height="50.327999"
     id="rect4464"
     style="fill:#ba263a" /><path
     d="m 813.95849,48.518 v 5.972 c -1.812,0.402 -3.624,0.737 -5.839,0.737 -7.313,0 -12.145,-3.489 -12.145,-11.474 V 27.648 h -5.369 v -6.106 h 5.369 v -8.657 h 7.112 v 8.657 h 9.797 v 6.106 h -9.797 v 15.501 c 0,4.362 2.416,5.704 6.509,5.704 1.208,0 2.618,-0.133 4.363,-0.335"
     id="path4466"
     inkscape:connector-curvature="0"
     style="fill:#ba263a" /><path
     d="m 846.97049,34.526 v 19.93 h -6.576 v -3.69 c -2.348,2.818 -5.973,4.429 -10.535,4.429 -6.911,0 -11.475,-3.825 -11.475,-9.529 0,-5.771 4.765,-9.394 12.146,-9.394 h 9.328 v -2.148 c 0,-4.563 -2.551,-7.045 -7.047,-7.045 -3.824,0 -6.509,1.811 -9.126,4.898 l -4.093,-4.161 c 3.422,-4.831 8.321,-7.046 13.89,-7.046 7.919,0 13.488,4.63 13.488,13.756 m -7.112,7.449 v -0.604 h -8.455 c -3.758,0 -5.839,1.342 -5.839,4.027 0,2.886 2.55,4.362 5.772,4.362 4.63,0 8.522,-3.289 8.522,-7.785"
     id="path4468"
     inkscape:connector-curvature="0"
     style="fill:#ba263a" /></svg>