<svg id="Layer_1" data-name="Layer 1" xmlns="http://www.w3.org/2000/svg" viewBox="0 0 534.68 522.76"><defs><style>.cls-1{fill:#fff;}</style></defs><path class="cls-1" d="M91.5,309l-28.31,6.3,16.69-25.94L99,246,41.79,221.05,6.66,165.67,2.31,95.59,28.87,40.44,84.24,6.38l68.91-3.63,42,21.16L219,25.48,200.9,42.26l-55-5.56L97.05,49.86,69.59,81.34l-8.9,44.11,18.14,33.26,24.86,3,88.37-87.89,46.41-6.42,46,26,20.68-15.87,30.71-10.46,37.61,12.75,62.87,75.89L459.1,160,478,134.48,476.23,88,450.82,51.73l-35.62-12-28.82,5-36-2.85L345.3,30.5l29.8-11.7L399,6.7l36.6-2.48,53.9,21,37.9,52.5,4.9,74.5-32.7,60.6-46,23.1,1.2,17.7,12.8,1.6-5.3,11.9-29.9,1.1-57.6-25.5,8.3,34.6h28.3l8.4,29.3-28.3,33.1,15.3,18.2-19.5,18.2-3,27.7-39.4,11.6,9.6,31-61.1,54.8L251.45,449l-30.22-2.6,8.61-31-34.5-15.85.6-23.39-23.88-23.74L153.19,287.1,91.5,309Z" transform="translate(0.01 0.03)"/><path d="M113,304.37a13.91,13.91,0,0,0-11.54,7.57c-2.59,4.64-8.66,5.38-11.49,4.45-4.72-1.56-10.76-2.65-16.6,1.52s-12.16,1-11-6.58S66.16,297,73.44,292.8c15.89-9.15,4.84-15.51,13.57-24.69s6.81-12,6.52-24.5c-29.55-4.43-46.29-13-65-36.31S2.6,164.71.66,135.42.4,87.15,13.06,62.84s26-36,49.06-48.15S107.83-.35,128.74,0s34.85,1.88,46.66,8.63S198,23.85,204.91,23.91s11.58-1.74,14.93-4.31c.9,22.7-19.54,24.68-37.82,25.16s-29.51-7.09-46.35-4.27S91.27,51,77.84,74.34,64,106,65.07,125.58s18,34.22,27.51,34.38,11.65-2.6,20-8S163.46,93.81,178,82s28.86-15.49,44.33-15.68,19.43.34,31.91,5.45S274.37,86.28,284.43,92c5.14-3,8.34-7.54,13.06-11,16.88-12.34,25.64-15.66,45.7-13.71,11.53,1.12,26.07,7.71,34.74,15.25,15.45,13.43,28.21,32.13,38.52,46.33,8,11.06,17.48,24.29,31,28.43,14.73,4.52,25.81-14.56,27.44-25.14.92-6,2.13-11.25,2.14-17.85a84.1,84.1,0,0,0-2.57-21.48,76.27,76.27,0,0,0-8.69-19.39c-5.74-9.24-15.14-18.9-24.91-23.87-5.49-2.79-18.39-7.87-26.53-8-10-.21-17.56,3.14-26.78,3.77-11.16.76-31.08,3.26-39.83-5.35-5.57-5.49-6.27-9.15-7.22-16.3a17,17,0,0,0,9,3.62c7,.59,13.53-5.12,19.17-8.42,4.64-2.73,11.22-7.59,17.32-10,15.68-6.32,34.93-6.14,51.48-4.45,13.27,1.36,30.46,7.26,42.1,13.84S502.44,36,510.69,46.5c10.38,13.22,16.05,24.57,19.81,41.06,4.8,21.06,6.14,52.7.33,73.47-4.58,16.36-19.78,41.5-32.72,53.82-12.76,12.16-27.5,18-44.26,21.24.66,3.38.77,6.53,1.63,9.31,1.23,3.93,3.59,8.32,8.43,6.93,1.93-.55,3-1,5.51,1.2s1.22,10.82-5.94,14.68c-3.63,2-7.46,2.38-13.27,2.5s-14.88.14-21.19-1-10.08-6.11-17.07-6.89c-10.8-1.21-19.07-9-27.73-14.59-3.61-2.33-4.83-2.35-6.91-3.53,1.12,3.44,2.62,7,3.37,10.33s.43,6.38.83,9,1.13,4.71,1.56,6.85c1.73,1.55,2.28,3.9,5.19,4.64s7.46-.41,10.43-.81,5-2,7.31-1.58,4.55,2.12,6.5,3.69,3.64,1.79,5.23,5.7,3,11.92,3.25,17.27a36.7,36.7,0,0,1-2,14.43c-1.58,4.25-3,6.13-7.27,10.34a114.15,114.15,0,0,1-18.27,14.68c1.28,1.9,1.85,3.64,3.86,5.71s6.18,4.38,8,6.56,2.8,3.74,2.82,6.18-.09,5.62-2.07,8.29c-4.94,6.63-10.78,7.82-17.89,10.94,1.19,7.46,2.17,12.79.44,20.24-.7,3-2.27,9.92-6,11.69s-11,.91-15.54,1.63-7.14,1.42-10.7,2.13c-2.17,3.13-5.39,6.59-6.5,9.39s-.77,3.81.16,6.68,4.09,7,5,10.39a20.94,20.94,0,0,1,.23,10.34,18.1,18.1,0,0,1-5.14,8.79c-2.86,3-8.5,5.34-11.31,7.76s-5.62,2.72-4.85,6.72c1.06,5.51,9.1,14.44,14.92,16.57,3.49,1.27,8.17.87,12.41-.92-.29,4.71-4.36,7.87-7,11a42.06,42.06,0,0,0,19-11.23c-1.5,4.54-6.66,11.82-14.37,18.22s-7.66,5.09-11.49,7.64a50.63,50.63,0,0,0,18.91.05,37.45,37.45,0,0,1-14.28,4.61,41.8,41.8,0,0,1-16.23-1.21c-5.82-1.41-11.12-6.69-18.16-10.33.69,2.61,1.17,5.75,4.13,8.43s7.45,4.06,12.21,6.38c-6.06-.69-12.43-.9-18.39-2.21a42.82,42.82,0,0,1-10.6-3.6c-3.23-1.6-5.72-3.93-8.57-5.9,1.37,2.62,1.77,5.69,4.1,7.85s6.12,3,9.18,4.44c-3.19-.07-6.27.62-9.58-.21a27,27,0,0,1-9.87-4.68,71.68,71.68,0,0,1-9.93-8.86c-2.94-3.19-6.57-7.33-7.67-10.28s.66-5,1-7.51c-2,1.33-4.52,2.07-6.08,4s-2.94,3.71-2.25,7.08,3.8,7.49,6,11.25c-6.57-5.37-10.23-7.44-11.8-13.92-1.46-6.07,2.33-11.57,5.2-16.16,1.43-2.28,3.57-4.4,4.91-6.6-3-2.9-6.36-5.4-8.91-8.71s-3.61-7.79-6.2-10.95-6.09-5.18-9.13-7.76c2.67,5.74,7.07,12.79,8,17.23s-1.07,7.16-2.65,9.56-4.12,2.94-6.53,4.41-6.18.31-7.61,2.5-1.83,5.48-.45,7.65l5.64,8.9a27.11,27.11,0,0,1-7.28-6.26c-1.61-2.17-4.09-4.17-4.42-7.09s-.51-5.47,1.39-8.07,7.08-3.48,9.41-5.48,3.62-3.31,3.49-5.9-2.66-4.44-4.84-6.07c-6.63-5-15.15-9.57-20.78-15.57-3.19-3.39-4.72-6.12-5.36-8.46s0-4.16,1.62-7,7-6.72,7.67-9.84-2.08-3.8-4.55-4.9-7.17.57-9.47-1.35.68-5.95-1.91-8.16-8.5-1-11.55-3.35-4.32-5.32-5.37-8.77a18.64,18.64,0,0,1-.46-9.72c.72-2.5,2.86-2.94,4.15-4.23s2.41-2.37.69-4.3-7.36.11-10.61-2.37-1.25-8.41-3.55-10.91-6.41-1.52-8.58-2.32-3,2-4.35-2.44-1.37-17.75-3.16-22.71-5.32-.33-7-5.26-.08-12.82-.82-20.26l-3.34-20.26c-11.63,7.82-19.31,10.27-31.81,12.48-1,30.58-3.91,48.59,6.47,82.52S159,437.3,187.32,466c-37.39-28-55.25-50.79-66.42-80S111.87,332.47,113,304.37ZM311.7,292.08c2.88.13,6.37.86,8.39,2.17s4.17,2.38,6,4.25a35.51,35.51,0,0,1,9.53,16.74c1,4.12,1.11,9.4,1.46,14.23-1.38-4.47-2.31-9.13-4.29-13.13-3.11-6.31-8.39-12.47-15-15.31a8,8,0,0,0-4.8-.6c.53.9,1.43,1.65,1.47,3s-.26,3.87-2.48,4.95c-3.59,1.74-7.57.52-10.34-1.93a9.14,9.14,0,0,1-2.28-10.22C301.14,291.92,307.78,291.91,311.7,292.08ZM275.63,286c.36-7.35,3-13.54,9.59-17.14,3.41-1.86,8.65-4.27,13.47-4.84,4.63-.54,15.89-.14,22.66,3,5.2,2.37,8.75,6.07,13.31,8.77s7.82,4.51,12.16,7.54c6.68,4.65,10.59,9.77,15.22,12.84,2.22,1.48,5.35,1.26,8.31,2.16-2.3.68-5.3,1.44-7.78.64a35.06,35.06,0,0,1-9.81-5.83,66.25,66.25,0,0,0-11.05-8c-2.76-1.61-7.31-3.5-10.34-5.48s-8.3-6.32-11.22-7.78c-3.71-1.87-10.38-2.91-14.51-2.79-5.68.17-13.91,1.11-18.31,5.1s-6,7.46-5.05,12.61c1.65-1.9,2.74-4.28,4.39-5.69,3.42-2.92,7.34-3.06,11.59-2.5,4.78.62,7.18,3.38,8.76,7.91-1.06-.78-3-2.49-4.55-3-3.62-1.25-6.36-.87-9.74.95-4,2.15-2.92,5.32-3.49,8.86a34.34,34.34,0,0,1-1.32,4.41,8.74,8.74,0,0,1-4-2.15,27.7,27.7,0,0,0,.14,4.94,62,62,0,0,0,1.86,6.09c-2.78-2.78-5.63-5.38-7.43-9A23.76,23.76,0,0,1,275.63,286Zm4.82-53.46c2.05-3,2.65-7.72,3.92-11.52-.51,4.81.47,10.11-1.88,13.59s-6.48,2.88-9.9,3.89C275.25,236.47,278.39,235.59,280.45,232.54ZM231.3,303.91c2.63-2.14,9.75-.43,15.07-.05L234.9,306.8c-.36,1.3-.2,2.79-1.07,3.9s-2.53,1.52-3.8,2.28C230.15,309.56,228.66,306,231.3,303.91Zm37.49-148.22c3.17,1.71,7.21,4,10,4s3.54-1.83,5.19-2.93c2.6,8.46,5.58,17.76,10,25.44,1.85,3.22,3,1.73,4.44,5s2,9.81,3.36,13.94,3.08,7.17,4.62,10.76c-3.91-5.54-9-12.6-11.14-17.21s-.78-5-2.54-9.39-5.33-11.23-8-16.84c-1.9.25-4.26.6-5.71.15s-1.16-2-2.47-3-3.52-.61-5.35-2.2S269,158.57,268.79,155.69Zm-17.1,41.77c3-.26,6.7.54,9.5.38a51.2,51.2,0,0,0,7.19-1.33c-.44-4.22,0-12-3.91-14.78-2.52-1.82-12.84-.45-15.6.15-6.2,1.34-13.43,5-19.43,7.36,5.75-4,10.72-7.75,17.62-9.82,4.14-1.25,13.82-2.87,18.1-1.71,2,.52,2.35,1.33,3.54,3,4.07,5.69,4.06,10.6,5.11,17.23a48.38,48.38,0,0,1,3,4.37,20.91,20.91,0,0,1,1.55,6.44c-1.06-1.54-.41-3.48-3.36-4.63s-7.48-.08-11.46.34c2.9,2.09,4.34,4.11,4.45,8.54.13,5.19-4.27,8.94-8.86,9.29-6.38.5-9.67-.9-12.25-6.36-1.13-2.38-.31-5.26-.41-7.59-7.66.54-7.54.29-13.14,5,3.05,4.46,5,7,10,9.69a31.69,31.69,0,0,0,9.51,3.55c3.5.6,9.23,1.17,12.91.61a14.08,14.08,0,0,0,8.48-4.13c2.72-2.52,3-6.13,4-9-.24,2.74-.56,6.24-1.58,8.23-3.1,6.05-8.46,7.85-14.86,7.87a54.43,54.43,0,0,1-19.46-3.77c-4.57-1.9-12.15-7.26-13.94-11.92-1.23-3.18-.26-7.09-.39-10.64,6.33-4.2,7.9-3.17,15.38-4.4C246.54,198.88,248.7,197.72,251.69,197.46ZM214.83,169a15.31,15.31,0,0,1,.68-3.71c-5.76-1.54-8.07,2.2-11.45,9.15-1.27,2.6,0,4.14-1.37,5.86s-3.54,1.47-5.74,3.11-4.39,4.79-6.44,6.49c-4.23,3.49-9.94,5.62-14.83,8,3.34-2.47,9.83-6.21,11.93-9.8,1.12-1.9.95-5.48,2.69-7.19s2.34-2.9,4.57-3.33,1.34-3,2.06-5.09,2.16-3.53,3.69-5.59,3.46-5.15,6.49-6.28,7.73.09,10-.55,1-2.31,2.64-3.31,4.89-.56,7.12-1.62c3.93-1.9,5.82-5.06,8.18-8.44.35,7.28.26,12.52-2.35,19.38-3,7.71-5.94,12.25-14.3,17-2.88,1.63-5.75,2.2-8.14,3.06,1.39-1.9,3.39-2.73,4.18-5.7S214.65,171.48,214.83,169Zm135,35.5c-4,.26-4.92-.26-8.1,2l5.17,8.05C346.78,209.2,347.3,208.13,349.86,204.46Zm-10.41-3.85c5.5-2.34,10.3-4.24,16.29-4.62,2.41-.15,6.14.22,8.56.33,2.07-3,4.7-5.44,5.67-8.91.63-2.3.32-13-.81-15.76-3.3-8.08-6.5-8.42-11-13.05-3.3-3.35-3.43-8.46-4.41-14.19-.36-2.1-1.39-4.76-1.88-6.93a88.44,88.44,0,0,0-19.12-1c3.31-3.17,6.5-6.07,7.45-10.83a21.3,21.3,0,0,0-2.53-14.89c-2.71-4.27-7-8-11-11.47S317,93,313.22,90.11c4.89-1.75,9.89-4.33,14.68-5.26,12.49-2.42,23.24,1.28,35.29,8.57a87.81,87.81,0,0,1,20.11,15.92c7.32,7.66,16.39,21.71,23.48,30s12.8,14.93,19,19.9,11.77,6.38,17.66,9.58l9.18,9.74,7.42-9.19,12,1.35,2.47-13.41,11-3-1.79-18.08,7.88-5.6-5.92-11.25,6-12.29-7.85-14,3-13.53-9.08-7.75-1.19-14.37L463.83,52.6l-5.08-12.51-14.26-.16-7-9.28-9.6.67-10.69-1.17-6-4.46-8.78,5.83L391.76,26l-21.12,8L384.4,22l14.27-2.28L409.59,17l14.76,4.85,13-3.29,12.52,7.4,13.25-.73,6.51,11.68,13.2,1.52,7.14,13,8.3,4.53,2.2,16.63,7.39,7L504.6,94.11l8.71,11L505.14,117l8.73,7.38-11.16,9.89L514,146l-13.65,4.4L509.26,163l-11.15,1.92,7.31,13.89-12.57-.17,6.33,10.4L485.4,187.4l3.3,15-10.42-9.17-3.57,18.13-7.19-13-3.89,16.23-8.87-12,.24,17-9.81-15.31c2.07,8.68,1.66,18.19,7.36,26.38,17.68-2.39,29.23-6.84,42.77-19.87,12.34-11.87,27.08-36.62,31.07-52.31,4.56-17.91,4.7-50.85.21-69.09-4.32-17.55-9.93-25.94-20-40.26-9.58-10.18-19-20.94-31.17-28.2-17.86-10.65-40.75-13.52-61.1-13.25a72.72,72.72,0,0,0-25.56,4.77c-11.78,4.29-21.2,13.63-33.18,18.25-3.9,1.5-7,1.55-10.11-.09,3,6,6.29,8.73,13.8,10.92,5.44,1.59,18.4.58,27.33-.24,9.58-.89,14.58-3.74,27.62-3.56,12.73.18,22.83,5,28.34,8.17,11.39,6.51,19.55,13.73,26.65,25.17a76.38,76.38,0,0,1,8.54,20.61,96.15,96.15,0,0,1,2.89,22.41,69.25,69.25,0,0,1-2.15,19.78c-4.05,14.91-13,30.09-31.34,27.75C436,160.19,419,139.11,413.35,131.37c-11.44-15.61-23.22-32.89-37.6-45.89A57.92,57.92,0,0,0,343.19,71c-22.12-2-28.68,2.18-45.32,15.9,3.38,1.08,6.69,1.68,10.16,3.24a75.87,75.87,0,0,1,20.89,13.71c6.44,6,9.33,9.85,9.56,18.49.15,5.73-4.57,10.33-8.89,14.46-2.65,2.54-6.15,4.86-8.29,6.82-2.84,2.61-6.36,5.46-2.79,9.62,1.34,1.56,3.67,2.74,5.64,4.2,3.11,2.32,1.69,10.92-2.42,13.2-5.26,2.92-11.54,2.59-15.88-1.31,5.47-.82,8.95-1.55,8.81-6-.08-2.6-3.38-4.76-6.62-6.23-7.81-3.56-13.71-3-21.48-8.63s-8-8.74-10.15-17.62c-3.78.4-7.27.49-12.33,2.16s-10.65,5.67-15.25,6.65c-11.57,2.49-13.87,1.75-20.21.12-11.15-2.89-25.66,2.05-40.09,6.66-2.39.77-12.09,0-18.62,2.32-10.09,3.54-24.24,12.11-32.41,19-12.38,10.43-28.65,41.64-37.85,77.46-1,10.89,2.14,18.23-4.72,23.55s-6.67,18.95-9,22.77-5,2.13-10,7.5-7.55,4.47-7.43,14.61c4.32-2.83,10.61-6.13,16.13-6.33,4.9-.18,5,6.26,17.5-6.15,6.72-6.64,19.62-6.84,28.57-9.77s25.08-9,41.24-27,23.89-37.08,27-64.57c.5,4.88,1.36,10.37-.72,23.82s-6.59,28.55,2.89,46.63l5.9,11.27c-3.51-4.79-10.38-12.62-12.44-18.19l-4.77-12.87c-10.67,16.75-13.12,19.75-27.94,31.75-.59,7.44-.73,15.2,1.7,22.33s-1.45,15.33.4,20,6.14,2,7.53,6.77-.73,14.14,1.44,18.77,7.49,1.82,10.07,3.31,3.42,3.55,4.8,5.51-.54,6.62,2.26,8.13,7.18.23,10.1,1.68,3.36,4.93,2.66,8-3.82,4.55-5.19,7.73a8.17,8.17,0,0,0,.43,8.29c1.64,2.92,5.28,4.52,8.91,6s8.73.65,12.47,2.68,7.11,6.09,9.09,9a12.16,12.16,0,0,1,2.42,8.12,22.83,22.83,0,0,1-3,9.65c-1.65,3-5.3,6.63.4,12.34s5.48,3.25,8.74,7c-.35-6.41-3-11.63-1.07-16.46s7.76-5.66,10.82-7.83,4.83-5.16,7.25-7.73c0,3.31.32,6.88-.06,9.37-.77,5.08-2.27,9.58,5.3,10.4,3.4.36,6.64-1.85,10.22-3.17-1.87,3.36-5.14,6.07-5.63,10.09a17.61,17.61,0,0,0,2.88,12.44c2.79,4,7.6,6.95,11.13,9.3s5.41,2.53,8.12,3.8c.13,4-.64,8.14-.19,11.87a21.53,21.53,0,0,0,3.78,10.1c2.15,3.09,5.61,4.85,8.86,7.13-1.78-4.16-5.4-8.1-5.35-12.47s1.36-7.47,5.62-11.34,14.24-7.24,18.94-11,6.23-6.09,7.92-9.75,1.21-9.56,1.53-12.85a38.59,38.59,0,0,1,2.27,10.87c.51,4.82-2.81,11.59-4.22,15.16a23.14,23.14,0,0,0,11.38-11.69c1.25.74.62,2.76,1.08,6.67,2.08-2.06,4.43-3.65,6.52-5.6s4.38-3.65,5.42-6.37.61-5.61-.16-8.76-4.3-6.82-6.2-10.27.33-6.85.21-11c-3.81-.65-7-2.58-11.4-2s-9.38,5.54-13.85,5.59-7-4.12-10.63-5.27-7.37-1-11.05-1.54c4.66-4.47,22.76-6.6,35.15-8.61a220.37,220.37,0,0,1,32.74-3c4.93-.07,11.27,1.55,14.69.57s2.7-3.31,3.71-5.86c2.84-7.11,1.44-13.44-.1-20.59-9.91-1.17-20.24-2.59-30.22-1.82-9.77.75-21.33,5.39-31.4,5.7-8.75.28-21.71-1.67-29.23-6.25-9.19-5.6-16.29-17.63-18.82-21.49-4.1-6.29-9.29-18.63-12.44-24.27s-3.85-7.22-6.47-9.57-6.22-2.54-9.32-3.81c3.58.37,7.49-.76,10.74,1.1,4.89,2.81,10.36,14.43,13.41,19.49,3.22-10.8,2.47-15.05,11.79-21.14-7.51,8.42-7.7,14.8-9.53,24.72,6.25,10.26,14.94,26.6,26.31,31.13,4.1,1.64,11.16,2.67,15.6,3.22,13.81,1.71,27.14-2.67,40.71-6,9.92-2.45,20-1.46,32.05-.75,4.1.24,13.76-2.23,15.76-6.37a7.32,7.32,0,0,0-.55-7.3c-1.56-2.39-5.69-3.54-7.91-5.68s-3.49-4.69-5.24-7a143.5,143.5,0,0,1-23.63,2.64c4.9-2,9.61-3.18,14.72-5.17a88.22,88.22,0,0,0,15-8c4.12-2.72,6.75-4.3,9.74-7.46s6.8-6.44,9-10.31,2.54-8.2,2.66-13-.09-11.52-1.93-15.38-5.41-5-8.27-5.94-4.82,1.4-7.79,1.71-5.76,2.19-10.07.16-9.4-6.14-13.75-12.26-7.47-16.11-11.9-23.8c-7.65-13.25-17.17-25.64-26.28-37.92a77.4,77.4,0,0,1-2.26-11.32c-.65-7.16-.77-14.6,1.45-21.58,1.7-5.35,4.18-11,9.78-13.19a10.68,10.68,0,0,1,7.07-.48c2,.74,4,3,3.19,5.61-.87,2.87-2.86,2.95-4.21,4.4a15.46,15.46,0,0,0-4.08,7.33c2.48,0,5.83-.23,7.87.31a9.14,9.14,0,0,1,6.48,6.23c-3.17-2.82-4.75-4.11-8.71-4.21a40.36,40.36,0,0,0-6,.91c-.75,2.44-1.19,5.43-2.25,7.32s-3.12,1.43-3.9,3.64A21.11,21.11,0,0,0,339.45,200.61Zm27.71-3.3a9.81,9.81,0,0,1,3.22,1.75c1.54,1.17,3.66,2.34,4.88,5.14s1.16,7.13.9,8.89c-1.07-.31-2.53-.1-3.64-1.05s-1.76-3.1-3.18-4-2.61-.72-4.18-.92a13.39,13.39,0,0,1,.82,6.68c-.81,4.54-3.48,6.85-7.81,7.39-1.89.24-4.89-.39-6.53-.68.76,1.7,2.05,3.19,2.81,4.89,3.66-.53,6.37-.45,8.34-1.37s4.07-3,6.6-3.86,4.78-.86,7.54-1.29c-2.18,1.88-3.61,3.75-5.78,5.63q2.39,6.94,4.78,13.9c3.38,2.11,6.55,3.22,10.81,5.83s9.37,7.28,14.91,9.83,8.85,3.93,14.65,5,10.4,5.78,16.11,6.55a124.91,124.91,0,0,0,20.75.49c5-.49,11.47-3.07,12-8.54-4.18,1-10.57.11-13.8-7.76-1.43-3.5-.73-9.93-2.92-14.06s-5.25-5.47-8.9-10.56-9.62-13.13-13-19.95-4.14-14.56-7-20.67-7.11-11.06-10.42-15.77c-7.24-10.3-13.07-17.34-25-22.53-5.73-2.5-12.26-3.17-18.39-4.75-2.49,1.12-5.91,2.35-6.52,5.27a11.83,11.83,0,0,0,2.68,9.41c3.54,3.66,8.79,7.62,10.85,13.44,1.33,3.73,1.72,16.25.57,19.65S369.46,195,367.16,197.31Zm1.15,29.62a13.25,13.25,0,0,1-3.73,2.73c-1.78.8-4.21,1-6.57,1.59,3.31,5.16,6.79,10.36,10,15.78s5.93,11.35,9,17c-.15-3.25.05-6.72-.43-9.76s-1.85-5.7-3.21-10.26S370.25,233.28,368.31,226.93ZM279.23,113.61c-.47,5.07.39,13,1.44,18,1.26,5.94,2.47,9,7.29,12.6,8.83,6.56,14.47,5.45,21.26,9.26,3.23,1.8,7.33,4.84,8.52,8s-.78,6.69-3.24,8.05c4.29.64,9.1-4.19,7.09-9.15-1-2.44-5.69-3.53-7.13-6a9.36,9.36,0,0,1-.76-7.5c1.23-4.51,10.15-8.61,13.3-12.17,4.85-5.49,6.72-10.08,4-17.14-3.86-9.93-18.77-17.89-27.69-21.79-4.09-1.78-6.38-1.91-9.57-2.86,6.53,3.82,13.41,6.87,16.71,15.42,2.76,7.14.37,9.83.46,16,0,2.88,3.84,4.33,5.52,6.15,1.47,1.58,1.35,2.75.18,4.94A5.68,5.68,0,0,0,314.1,131c-2.5-1.77-5.19-1.39-6.52-5-2-5.52,2-10.75-2.52-17-3.37-4.64-7.85-9.83-13.9-10a23.89,23.89,0,0,0-8.07,1.27L279,95.39l-.09-.07c-8.29-7.56-14-13.79-25.59-19s-17.35-6-30.68-5.69-26.56,1.41-42,14.72-55.23,64.29-64.88,70.75S104,164.74,92,164.75,61.08,147.7,60.34,126.38s-1-28.88,13.78-54.56,41.66-33.56,61.57-36.22S167.58,40,182.31,40s29.29-2.51,33.58-14.23C213.79,27,211,28.42,203.06,28s-18.9-9.58-31.24-15.72-26.09-6.86-43.71-7.2-39.62,1-61.4,12.78S30.05,42.11,17.42,65.13,2.89,106.94,4.93,134.81s10.63,48.6,27.18,69S65.2,234.19,95,237.9l6.28-27.7L90.1,226.29l.28-17.89L80.24,221l-4.45-17.06L67.58,217.6l-4.08-19-11.91,9.62,3.77-15.71L39.61,194.2l7.24-10.93-14.36.18,8.35-14.59-12.74-2,10.16-13.27L22.66,149l12.92-12.37-12.76-10.4,10-7.75L23.47,106l10-11.58L29.71,79.14l8.45-7.37,2.51-17.48,9.48-4.76,8.16-13.65,15.08-1.6L80.83,22,96,22.78,110.29,15l14.84,3.46L142,13.36l12.49,2.93,16.29,2.39,15.74,12.58-24.14-8.42-12.14,5.82-10-6.12-6.91,4.69-12.23,1.22-11-.7-8,9.75-16.29.17L80,50.81,65.52,55.89,64.16,71,53.78,79.14l3.46,14.21-9,14.77L55.15,121l-6.77,11.82,9,5.89-2,19,12.53,3.16L70.7,175l13.65-1.41,8.49,9.65L103.32,173c19.12-9.53,27-14.86,41.89-31,17-18.35,26.68-35.31,49.27-47.87,16.2-9,29.42-12.25,47.62-9.1,17.08,2.95,22.81,13.2,35.39,24,1.34-2.42,1.61-3.06,3.8-4.83C280.6,107.34,279.51,110.6,279.23,113.61Z" transform="translate(0.01 0.03)"/></svg>