<svg xmlns="http://www.w3.org/2000/svg" viewBox="0 0 120 34" fill="none" class="mb-3 mt-1"><title>Gradle logo</title><path d="M64.6665 24.4334V31.6716C63.7911 32.324 62.81 32.8207 61.766 33.14C60.6948 33.4559 59.5827 33.6115 58.466 33.6018C57.1139 33.6222 55.7698 33.3918 54.5018 32.9221C53.3763 32.4967 52.3489 31.8471 51.482 31.0127C50.6411 30.1939 49.9817 29.2074 49.5466 28.1174C49.0852 26.9481 48.8544 25.7007 48.8669 24.4438C48.8523 23.1789 49.074 21.9225 49.5207 20.7391C50.3443 18.5327 52.0836 16.7915 54.2891 15.9655C55.5246 15.5033 56.8357 15.2763 58.1547 15.2961C58.8364 15.2923 59.5171 15.3497 60.1886 15.4674C60.7876 15.5757 61.3761 15.7354 61.9476 15.9447C62.465 16.1377 62.9607 16.3847 63.4264 16.6815C63.8674 16.968 64.2823 17.2927 64.6665 17.6518L63.7118 19.1617C63.5886 19.3828 63.3774 19.5412 63.1306 19.5975C62.858 19.6448 62.5779 19.5813 62.3523 19.4211L61.5533 18.949C61.2637 18.7849 60.9598 18.6476 60.6452 18.5391C60.2778 18.4165 59.9013 18.3228 59.5193 18.2589C59.043 18.177 58.5601 18.1387 58.0768 18.1447C57.2578 18.1335 56.4447 18.2851 55.6848 18.5909C54.988 18.874 54.3637 19.3102 53.8584 19.8674C53.3382 20.4446 52.9426 21.1229 52.6962 21.8598C52.4124 22.6948 52.2737 23.5723 52.2863 24.4542C52.2705 25.3862 52.4198 26.3137 52.7273 27.1938C52.991 27.9543 53.4118 28.6508 53.9622 29.2381C54.4991 29.7914 55.1509 30.22 55.8716 30.4938C57.2449 30.99 58.7341 31.0694 60.1523 30.7221C60.677 30.5807 61.1877 30.3914 61.6778 30.1565V26.9344H59.4207C59.2298 26.9502 59.0412 26.8842 58.9018 26.7527C58.7826 26.6374 58.7168 26.4776 58.7202 26.3117V24.4334H64.6665ZM70.099 22.9131C70.4384 22.2238 70.9193 21.6139 71.5104 21.123C72.0582 20.6879 72.7411 20.4585 73.4405 20.4744C73.94 20.448 74.4347 20.5826 74.8519 20.8584L74.6547 23.1466C74.6292 23.2675 74.5677 23.3778 74.4783 23.4631C74.3858 23.5279 74.2746 23.5607 74.1618 23.5565C73.9771 23.5503 73.7932 23.5295 73.6118 23.4943C73.3753 23.4534 73.1357 23.4326 72.8957 23.432C72.5886 23.4266 72.2829 23.4758 71.9929 23.5773C71.7314 23.6758 71.4904 23.8218 71.282 24.0079C71.0638 24.2032 70.8765 24.4307 70.7269 24.6825C70.5527 24.971 70.4018 25.2729 70.2754 25.5853V33.4046H67.2608V20.7079H69.0509C69.2832 20.6852 69.5161 20.7439 69.7099 20.874C69.8587 21.0406 69.9465 21.2528 69.9589 21.4759L70.099 22.9131ZM85.6703 23.432C85.475 22.8541 85.1603 22.3237 84.7467 21.8754C84.3338 21.4252 83.8272 21.071 83.2627 20.8376C82.6292 20.5858 81.9519 20.4623 81.2703 20.4744C79.3179 20.4314 77.4255 21.1497 75.9934 22.4773L76.5953 23.4527C76.6873 23.6066 76.809 23.7406 76.9533 23.8471C77.1115 23.9612 77.3031 24.0195 77.4981 24.0131C77.7348 24.0164 77.9679 23.9555 78.1726 23.8367L78.8472 23.4475C79.1193 23.2905 79.406 23.1602 79.7033 23.0584C80.1026 22.9335 80.5199 22.8756 80.9382 22.8872C81.5219 22.8523 82.0913 23.0763 82.4948 23.4994C82.9007 24.0415 83.0944 24.7132 83.0396 25.3881V26.1353C82.171 26.1471 81.3042 26.2181 80.4453 26.348C79.7744 26.4479 79.1131 26.6041 78.4684 26.815C77.9645 26.9721 77.4844 27.1973 77.0415 27.4843C76.6868 27.7079 76.3669 27.9824 76.092 28.299C75.8625 28.5657 75.6864 28.8739 75.5731 29.207C75.4668 29.5159 75.4125 29.8403 75.4122 30.1669C75.4008 30.6798 75.4926 31.1897 75.6821 31.6664C75.8522 32.0786 76.115 32.4462 76.45 32.7405C76.7928 33.0381 77.1939 33.2608 77.6278 33.3943C78.109 33.5393 78.6092 33.6111 79.1118 33.607C79.5297 33.6109 79.9469 33.5726 80.3571 33.4928C80.7137 33.4142 81.0614 33.2995 81.3948 33.1504C81.7284 32.9984 82.0465 32.8142 82.3443 32.6004C82.6735 32.3646 82.9889 32.1099 83.2887 31.8377L83.5585 32.7561C83.6147 32.9692 83.7477 33.1541 83.9321 33.2749C84.1391 33.373 84.3675 33.4176 84.5962 33.4047H85.9868V25.4141C85.9926 24.7403 85.8856 24.0704 85.6703 23.432ZM82.9981 30.1202C82.6134 30.5411 82.1587 30.8922 81.6542 31.1579C81.145 31.3967 80.5873 31.5139 80.025 31.5004C79.5849 31.5215 79.1499 31.3996 78.7849 31.1528C78.2547 30.66 78.1521 29.8589 78.541 29.2485C78.7408 28.9795 79.0098 28.7697 79.3193 28.6414C79.7809 28.4362 80.2677 28.2931 80.767 28.216C81.5045 28.0874 82.25 28.0094 82.9981 27.9825V30.1202ZM96.8208 15.0159V21.7145C96.4272 21.3371 95.9707 21.0316 95.4717 20.8117C94.8944 20.5754 94.2741 20.4622 93.6505 20.4796C92.8697 20.4744 92.0984 20.6521 91.3986 20.9985C90.7313 21.3331 90.1452 21.8095 89.6811 22.3942C89.1865 23.011 88.8116 23.715 88.576 24.4697C88.3145 25.3201 88.185 26.2056 88.192 27.0952C88.179 28.0301 88.2942 28.9624 88.5344 29.866C88.7285 30.5895 89.0558 31.2705 89.4995 31.874C90.2902 32.9566 91.5577 33.5874 92.8981 33.5655C93.7027 33.5915 94.5007 33.413 95.2175 33.0466C95.885 32.6808 96.4823 32.1994 96.9816 31.6249L97.2411 32.8495C97.3225 33.2003 97.6503 33.4373 98.009 33.4047H99.8769V15.0107L96.8208 15.0159ZM96.8364 29.6428C96.4834 30.0912 96.0528 30.4726 95.5651 30.7688C95.0699 31.0458 94.5082 31.1822 93.9411 31.1631C93.572 31.1694 93.2058 31.0969 92.867 30.9504C92.5331 30.7964 92.2491 30.552 92.0472 30.2447C91.7971 29.8586 91.6212 29.4293 91.5283 28.9787C91.3994 28.3594 91.3403 27.7277 91.3519 27.0952C91.3406 26.4508 91.4104 25.8076 91.5594 25.1806C91.6717 24.7003 91.878 24.2471 92.1665 23.8471C92.4188 23.507 92.7524 23.2359 93.1368 23.0584C93.5297 22.8816 93.9565 22.793 94.3873 22.799C94.8395 22.7968 95.2876 22.885 95.7052 23.0584C96.1475 23.2623 96.5351 23.5682 96.8364 23.9508V29.6428ZM106.005 15.0159V33.4046H102.949V15.0159H106.005ZM118.385 30.115C118.178 30.1205 117.976 30.1795 117.799 30.2862C117.612 30.4004 117.363 30.5301 117.093 30.6702C116.791 30.8246 116.477 30.9531 116.154 31.0542C115.738 31.1761 115.306 31.2339 114.872 31.2254C114.411 31.2329 113.952 31.1555 113.518 30.9971C113.125 30.848 112.77 30.6122 112.48 30.307C112.164 29.9675 111.92 29.5666 111.764 29.1292C111.566 28.5854 111.449 28.0155 111.417 27.4377L119.272 27.4325C119.491 27.4608 119.709 27.3698 119.843 27.1938C119.968 26.8992 120.019 26.5787 119.993 26.2598C120.007 25.4266 119.866 24.5979 119.578 23.816C119.328 23.1399 118.937 22.5245 118.432 22.0103C117.939 21.5142 117.344 21.1317 116.688 20.8895C115.98 20.6266 115.229 20.4964 114.473 20.5056C113.593 20.5006 112.723 20.6772 111.915 21.0244C111.191 21.3354 110.539 21.793 110 22.3683C109.468 22.9452 109.057 23.6227 108.791 24.3608C108.507 25.1441 108.365 25.9715 108.371 26.8046C108.352 27.8065 108.515 28.8034 108.853 29.7466C109.143 30.5394 109.594 31.2636 110.176 31.874C110.736 32.4446 111.412 32.8871 112.159 33.1712C112.945 33.4715 113.781 33.6211 114.623 33.6122C115.083 33.6118 115.543 33.5789 115.998 33.5136C116.475 33.4462 116.945 33.3315 117.399 33.1711C117.862 33.0086 118.304 32.7926 118.717 32.5278C119.145 32.2564 119.528 31.9203 119.853 31.5315L118.956 30.4004C118.832 30.2085 118.613 30.0992 118.385 30.115ZM112.439 23.4527C113 22.9316 113.749 22.6602 114.514 22.7004C114.924 22.6928 115.33 22.7705 115.708 22.9287C116.034 23.0698 116.324 23.2847 116.553 23.5565C116.786 23.8252 116.962 24.1374 117.072 24.4749C117.185 24.8378 117.243 25.2156 117.243 25.5957H111.468C111.55 24.7948 111.891 24.0425 112.439 23.4527Z" fill="white"></path><path d="M42.49 2.47475C39.7752 -0.242242 35.3945 -0.315712 32.59 2.30873C32.455 2.43296 32.3779 2.60782 32.3773 2.79126C32.3735 2.97552 32.4446 3.1534 32.5745 3.2842L33.4721 4.18184C33.7113 4.42007 34.0892 4.4466 34.3594 4.2441C35.0632 3.71295 35.9215 3.42684 36.8032 3.42948C39.0585 3.42944 40.8868 5.25765 40.8868 7.51292C40.8868 8.59469 40.4576 9.63227 39.6933 10.3979C34.0532 16.0691 26.4829 0.222872 9.35508 8.3743C8.19076 8.91513 7.68531 10.2974 8.22614 11.4618C8.25403 11.5218 8.28444 11.5806 8.31734 11.638L11.2541 16.7177C11.8918 17.8174 13.2932 18.203 14.4037 17.5842L14.4763 17.5427L14.4192 17.5842L15.7216 16.8526C17.1744 15.9529 18.5475 14.9304 19.8259 13.7965C20.0856 13.5542 20.4844 13.5409 20.7598 13.7654C21.0464 13.9989 21.0894 14.4205 20.8559 14.7071C20.8272 14.7422 20.795 14.7744 20.7598 14.8031C19.4258 16.0045 17.9901 17.0878 16.4688 18.0408L16.4221 18.0668L15.1197 18.7932C14.5707 19.1043 13.9502 19.267 13.3192 19.2654C11.9885 19.2687 10.7567 18.5628 10.0867 17.413L7.30555 12.6186C1.97158 16.3856 -1.26618 23.6446 0.472039 32.8286C0.534275 33.1488 0.815197 33.3796 1.14138 33.3786H4.30128C4.65154 33.392 4.95369 33.1349 4.99658 32.7871C5.32771 30.2467 7.65556 28.4558 10.1959 28.7869C12.2822 29.0589 13.9242 30.7008 14.1961 32.7871C14.2375 33.121 14.5186 33.3734 14.8551 33.3786H17.9372C18.2787 33.3789 18.5674 33.1257 18.6117 32.7871C18.9315 30.2481 21.2489 28.4491 23.7879 28.7689C25.8878 29.0334 27.5416 30.6872 27.8061 32.7871C27.848 33.1249 28.135 33.3786 28.4754 33.3786H31.5212C31.8897 33.3786 32.19 33.0829 32.1957 32.7144C32.2683 28.4182 33.4254 23.4838 36.7306 21.0139C48.1405 12.463 45.1363 5.13137 42.49 2.47475ZM30.831 15.4102V15.405L28.6518 14.3102C28.649 13.5536 29.26 12.9381 30.0165 12.9353C30.7731 12.9325 31.3886 13.5435 31.3914 14.3C31.393 14.7384 31.1847 15.1511 30.831 15.4102Z" fill="url(#paint0_linear_10599_11540)"></path><defs><linearGradient id="paint0_linear_10599_11540" x1="0" y1="0.387695" x2="31.4772" y2="43.2593" gradientUnits="userSpaceOnUse"><stop stop-color="#209BC4"></stop><stop offset="1" stop-color="#4DC9C0"></stop></linearGradient></defs></svg>