<svg viewBox="0 0 28 32" fill="none" xmlns="http://www.w3.org/2000/svg">
	<path d="M14.0006 31.6998L3.50307 28.9373C1.1703 28.3234 0.00390625 27.0342 0.00390625 25.0698V7.38977C0.00390625 5.42532 1.1703 4.13615 3.50307 3.52227L14.0006 0.759766L24.4981 3.52227C26.8309 4.13615 27.9972 5.42532 27.9972 7.38977V25.0698C27.9972 27.0342 26.8309 28.3234 24.4981 28.9373L14.0006 31.6998ZM20.2622 9.87602L18.0522 9.59977V22.8598L23.9456 22.1231V20.0973L20.2622 20.2814V9.87602ZM5.89724 22.5835L8.10724 22.8598V9.59977L5.89724 9.87602V22.5835ZM24.3139 28.2236C26.2784 27.7095 27.2606 26.6582 27.2606 25.0698V7.38977C27.2606 5.80133 26.2784 4.75004 24.3139 4.23591L14.0006 1.51945V30.9401L24.3139 28.2236Z" fill="white"></path>
</svg>