<svg viewBox="0 0 221 65" fill="none" xmlns="http://www.w3.org/2000/svg">
<path d="M111.62 22.2294C110.22 22.2294 108.34 21.4894 107.72 19.7494L108.8 19.3294C109.16 20.5494 110.34 21.2494 111.64 21.2494C113.12 21.2494 114.16 20.4694 114.16 19.3494C114.16 18.2294 113.36 17.7694 111.66 17.3694L110.78 17.1694C109.06 16.7694 107.98 16.2094 107.98 14.5894C107.98 13.0694 109.4 11.8694 111.44 11.8694C112.96 11.8694 114.38 12.5894 114.92 13.8494L113.86 14.2694C113.5 13.3294 112.4 12.8494 111.4 12.8494C110.04 12.8494 109.06 13.5894 109.06 14.5294C109.06 15.3694 109.64 15.8494 111.08 16.1694L111.94 16.3694C114 16.8494 115.24 17.4094 115.24 19.2694C115.24 20.9894 113.7 22.2294 111.62 22.2294ZM120.967 22.2294C118.867 22.2294 116.467 20.6694 116.467 17.0494C116.467 13.4294 118.867 11.8694 120.967 11.8694C123.047 11.8694 125.447 13.4294 125.447 17.0494C125.447 20.6694 123.047 22.2294 120.967 22.2294ZM120.967 21.2294C122.667 21.2294 124.307 19.9294 124.307 17.0494C124.307 14.1694 122.667 12.8694 120.967 12.8694C119.247 12.8694 117.607 14.1694 117.607 17.0494C117.607 19.9294 119.247 21.2294 120.967 21.2294ZM127.742 21.9894V12.9694H126.042V12.0694H127.742V10.0494C127.742 8.14938 128.162 7.66938 129.942 7.66938H130.862V8.64938H129.882C129.102 8.64938 128.862 8.82938 128.862 9.84938V12.0694H130.862V12.9694H128.862V21.9894H127.742ZM135.58 21.9894C133.96 21.9894 133.46 21.5894 133.46 19.6694V12.9694H131.76V12.0694H133.46V9.58938H134.58V12.0694H136.6V12.9694H134.58V19.6294C134.58 20.7894 134.76 20.9894 135.68 20.9894H136.58V21.9894H135.58ZM140.631 21.9894L137.691 12.0694H138.891L141.071 19.8894L143.351 12.0694H144.451L146.791 19.8894L148.891 12.0694H150.071L147.171 21.9894H146.331L143.891 13.5694L141.431 21.9894H140.631ZM154.221 22.2294C152.281 22.2294 150.821 21.2894 150.821 19.5494C150.821 17.2694 152.921 16.2294 157.561 15.8894V15.6294C157.561 13.9094 156.801 12.8094 155.081 12.8094C153.701 12.8094 152.801 13.5694 152.581 14.5694L151.421 14.2894C151.941 12.6894 153.401 11.8694 155.061 11.8694C157.501 11.8694 158.661 13.2094 158.661 15.7294V18.1094C158.661 19.9894 158.821 21.1094 159.021 21.9894H158.101L157.701 20.3894C157.261 21.3094 156.181 22.2294 154.221 22.2294ZM154.301 21.2694C156.021 21.2694 157.561 20.4094 157.561 18.0694V16.7894C153.681 17.0694 151.961 17.9094 151.961 19.4894C151.961 20.5494 152.881 21.2694 154.301 21.2694ZM161.558 21.9894V12.0694H162.378L162.718 13.9494C163.218 12.9894 164.498 11.8894 166.258 11.9694V13.0494C163.538 13.1094 162.678 14.8094 162.678 17.4494V21.9894H161.558ZM171.527 22.2294C168.647 22.2294 166.947 19.9494 166.947 17.0894C166.947 13.9094 168.887 11.8694 171.487 11.8694C174.427 11.8694 175.987 14.5294 175.807 17.1294H168.087C168.107 20.3294 170.227 21.2294 171.607 21.2294C172.827 21.2294 173.647 20.6894 174.147 19.9694L175.247 20.3694C174.587 21.3494 173.447 22.2294 171.527 22.2294ZM174.627 16.2094C174.607 14.7094 173.547 12.8694 171.487 12.8694C169.967 12.8694 168.427 13.7294 168.127 16.2094H174.627ZM109.04 41.9894V32.9694H107.34V32.0694H109.04V30.0494C109.04 28.1494 109.46 27.6694 111.24 27.6694H112.16V28.6494H111.18C110.4 28.6494 110.16 28.8294 110.16 29.8494V32.0694H112.16V32.9694H110.16V41.9894H109.04ZM114.082 41.9894V32.0694H114.902L115.242 33.9494C115.742 32.9894 117.022 31.8894 118.782 31.9694V33.0494C116.062 33.1094 115.202 34.8094 115.202 37.4494V41.9894H114.082ZM124.05 42.2294C121.17 42.2294 119.47 39.9494 119.47 37.0894C119.47 33.9094 121.41 31.8694 124.01 31.8694C126.95 31.8694 128.51 34.5294 128.33 37.1294H120.61C120.63 40.3294 122.75 41.2294 124.13 41.2294C125.35 41.2294 126.17 40.6894 126.67 39.9694L127.77 40.3694C127.11 41.3494 125.97 42.2294 124.05 42.2294ZM127.15 36.2094C127.13 34.7094 126.07 32.8694 124.01 32.8694C122.49 32.8694 120.95 33.7294 120.65 36.2094H127.15ZM134.319 42.2294C131.439 42.2294 129.739 39.9494 129.739 37.0894C129.739 33.9094 131.679 31.8694 134.279 31.8694C137.219 31.8694 138.779 34.5294 138.599 37.1294H130.879C130.899 40.3294 133.019 41.2294 134.399 41.2294C135.619 41.2294 136.439 40.6894 136.939 39.9694L138.039 40.3694C137.379 41.3494 136.239 42.2294 134.319 42.2294ZM137.419 36.2094C137.399 34.7094 136.339 32.8694 134.279 32.8694C132.759 32.8694 131.219 33.7294 130.919 36.2094H137.419ZM144.188 42.2294C142.028 42.2294 140.008 40.4894 140.008 37.1294C140.008 33.8094 141.828 31.8694 144.188 31.8694C145.988 31.8694 146.968 32.7494 147.528 33.7894V27.8294H148.628V38.3294C148.628 38.8094 148.628 40.1094 148.968 41.9894H147.948L147.488 40.3894C146.968 41.4094 145.928 42.2294 144.188 42.2294ZM144.368 41.2494C146.328 41.2494 147.528 39.6094 147.528 37.1094C147.528 34.5294 146.288 32.8694 144.368 32.8694C142.348 32.8694 141.148 34.4494 141.148 37.1294C141.148 39.7494 142.368 41.2494 144.368 41.2494ZM155.304 42.2294C153.204 42.2294 150.804 40.6694 150.804 37.0494C150.804 33.4294 153.204 31.8694 155.304 31.8694C157.384 31.8694 159.784 33.4294 159.784 37.0494C159.784 40.6694 157.384 42.2294 155.304 42.2294ZM155.304 41.2294C157.004 41.2294 158.644 39.9294 158.644 37.0494C158.644 34.1694 157.004 32.8694 155.304 32.8694C153.584 32.8694 151.944 34.1694 151.944 37.0494C151.944 39.9294 153.584 41.2294 155.304 41.2294ZM161.91 41.9894V32.0694H162.73L162.99 33.6694C163.39 32.8894 164.49 31.8894 166.03 31.8894C167.65 31.8894 168.55 32.6694 168.97 33.7894C169.67 32.6094 170.75 31.8894 172.27 31.8894C174.57 31.8894 175.49 33.4494 175.49 35.4694V41.9894H174.37V35.8094C174.37 34.1494 173.83 32.8694 172.13 32.8694C170.45 32.8694 169.25 34.1294 169.25 36.4694V41.9894H168.15V35.8094C168.15 34.1494 167.63 32.8694 165.93 32.8694C164.37 32.8694 163.03 34.1894 163.03 36.4694V41.9894H161.91ZM112.6 61.2294C109.38 61.2294 107.58 59.1094 107.58 55.9894C107.58 52.8894 109.62 50.8094 112.62 50.8094C114.34 50.8094 116.1 51.5094 116.98 53.3494L114.6 54.2094C114.26 53.3894 113.56 53.0294 112.76 53.0294C111.6 53.0294 110.48 53.8294 110.48 55.9894C110.48 58.2094 111.62 59.0094 112.76 59.0094C113.64 59.0094 114.26 58.6094 114.62 58.0094L116.96 58.8494C115.98 60.5694 114.2 61.2294 112.6 61.2294ZM122.462 61.2294C119.782 61.2294 117.282 59.6094 117.282 56.0094C117.282 52.4294 119.782 50.8094 122.462 50.8094C125.162 50.8094 127.642 52.4294 127.642 56.0094C127.642 59.6094 125.162 61.2294 122.462 61.2294ZM122.462 59.0094C123.722 59.0094 124.762 58.2094 124.762 56.0094C124.762 53.8294 123.722 53.0294 122.462 53.0294C121.222 53.0294 120.182 53.8294 120.182 56.0094C120.182 58.2094 121.222 59.0094 122.462 59.0094ZM129.165 60.9894V51.0694H131.605L131.985 52.4094C132.445 51.6494 133.525 50.8094 135.065 50.8094C137.605 50.8094 138.405 52.2894 138.405 54.9094V60.9894H135.585V55.6294C135.585 54.2094 135.485 53.0294 133.945 53.0294C132.625 53.0294 131.985 53.9894 131.985 55.8494V60.9894H129.165ZM144.471 61.2494C142.211 61.2494 140.371 60.3494 139.651 58.7094L142.091 57.8294C142.331 58.6894 143.371 59.1694 144.511 59.1694C145.511 59.1694 146.411 58.8094 146.411 58.1094C146.411 57.6294 146.011 57.3294 144.811 57.1094L143.191 56.8294C141.311 56.4694 140.011 55.5694 140.011 53.9294C140.011 51.8894 142.131 50.8094 144.451 50.8094C146.331 50.8094 148.091 51.4294 148.831 53.0694L146.411 53.9494C146.111 53.2094 145.371 52.8694 144.371 52.8694C143.311 52.8694 142.711 53.2494 142.711 53.7894C142.711 54.2694 143.071 54.5094 143.991 54.6694L145.671 54.9894C148.011 55.4294 149.131 56.1694 149.131 57.9294C149.131 60.1094 147.031 61.2494 144.471 61.2494ZM155.265 61.2294C152.065 61.2294 149.905 59.2094 149.905 55.9894C149.905 52.8294 152.285 50.8094 155.145 50.8094C158.405 50.8094 160.405 53.3494 160.165 56.7694H152.705C152.985 58.3894 154.105 59.0094 155.185 59.0094C156.165 59.0094 156.845 58.6894 157.245 58.2294L159.545 59.0494C158.545 60.5094 156.925 61.2294 155.265 61.2294ZM157.505 55.0094C157.425 53.7294 156.485 52.9494 155.225 52.9494C154.045 52.9494 152.985 53.4894 152.685 55.0094H157.505ZM161.534 60.9894V51.0694H163.754L164.294 52.8894C164.914 51.3494 165.994 50.7494 167.534 50.8094V53.6494C165.374 53.4294 164.354 54.1694 164.354 56.1094V60.9894H161.534ZM171.63 60.9894L168.09 51.0694H171.03L173.21 57.9694L175.41 51.0694H178.35L174.79 60.9894H171.63ZM181.922 61.2294C180.022 61.2294 178.482 60.1294 178.482 58.3294C178.482 55.9894 181.122 55.0694 185.182 54.7694V54.4694C185.182 53.3094 184.542 52.7494 183.342 52.7494C182.442 52.7494 181.742 53.1694 181.542 53.9894L179.142 53.1494C179.762 51.7894 181.322 50.8094 183.482 50.8094C186.322 50.8094 187.882 51.9694 187.882 54.9294V57.1294C187.882 58.4894 188.042 60.1094 188.222 60.9894H185.602L185.242 59.7694C184.522 60.7894 183.382 61.2294 181.922 61.2294ZM182.942 59.2694C184.222 59.2694 185.182 58.7294 185.182 56.9094V56.5094C182.802 56.6694 181.422 57.0894 181.422 58.1294C181.422 58.8094 182.042 59.2694 182.942 59.2694ZM189.977 60.9894V51.0694H192.417L192.797 52.4094C193.257 51.6494 194.337 50.8094 195.877 50.8094C198.417 50.8094 199.217 52.2894 199.217 54.9094V60.9894H196.397V55.6294C196.397 54.2094 196.297 53.0294 194.757 53.0294C193.437 53.0294 192.797 53.9894 192.797 55.8494V60.9894H189.977ZM205.702 61.2294C202.482 61.2294 200.682 59.1094 200.682 55.9894C200.682 52.8894 202.722 50.8094 205.722 50.8094C207.442 50.8094 209.202 51.5094 210.082 53.3494L207.702 54.2094C207.362 53.3894 206.662 53.0294 205.862 53.0294C204.702 53.0294 203.582 53.8294 203.582 55.9894C203.582 58.2094 204.722 59.0094 205.862 59.0094C206.742 59.0094 207.362 58.6094 207.722 58.0094L210.062 58.8494C209.082 60.5694 207.302 61.2294 205.702 61.2294ZM211.437 64.2294V62.1494H212.157C213.357 62.1494 213.677 62.0494 213.977 61.2094L214.077 60.9494L210.317 51.0694H213.357L215.397 57.4894L217.357 51.0694H220.397L216.657 61.0494C215.717 63.5094 215.017 64.2294 212.597 64.2294H211.437Z" fill="#292A2E"/>
<path fill-rule="evenodd" clip-rule="evenodd" d="M48.2989 0.99028C43.7059 1.04221 39.8974 4.15056 39.5793 8.25201C39.5446 8.70008 39.5583 9.13822 39.6068 9.57233C38.1024 9.09048 36.4792 8.76996 34.7657 8.6371C27.3041 8.05853 20.8136 11.3204 19.3345 16.1189C14.3998 17.717 10.4826 20.8253 8.5519 24.811C4.16969 24.5829 0.366737 27.9112 0.0248642 32.3202C-0.322432 36.7993 3.00899 40.7207 7.47914 41.0673C8.89374 41.177 10.261 40.9015 11.4676 40.3522C14.9588 44.0277 20.3397 46.6125 26.5137 47.0913C32.0754 47.5225 37.239 46.1579 41.1472 43.6254C42.6912 46.1781 45.5587 48.0664 48.9865 48.5766V48.6591C49.0889 48.6491 49.1877 48.6166 49.2891 48.6041C49.3926 48.6169 49.4873 48.6488 49.5917 48.6591V48.5766C53.0249 48.0691 55.8853 46.181 57.4311 43.6254C61.3393 46.1579 66.5303 47.5225 72.0921 47.0913C78.266 46.6126 83.6195 44.0277 87.1106 40.3522C88.3173 40.9015 89.6845 41.177 91.0991 41.0673C95.5692 40.7207 98.9282 36.7993 98.5809 32.3202C98.239 27.9112 94.4361 24.5829 90.0538 24.811C88.1231 20.8253 84.1784 17.717 79.2438 16.1189C77.7647 11.3204 71.3016 8.05853 63.8401 8.6371C62.1266 8.76996 60.5033 9.09048 58.9989 9.57233C59.0474 9.13822 59.0613 8.70008 59.0264 8.25201C58.7084 4.15056 54.8723 1.04224 50.2793 0.99028C49.9731 0.986758 49.6563 0.993795 49.3441 1.01774C49.3256 1.01952 49.3074 1.01595 49.2891 1.01774C49.2708 1.01595 49.2525 1.01952 49.2341 1.01774C48.9218 0.99354 48.6051 0.986671 48.2989 0.99028ZM49.1791 6.49159H49.3167C50.0961 6.49159 50.8026 6.71083 51.3246 7.09673C51.8467 7.48263 52.1774 8.03234 52.1774 8.6371C52.1774 8.8156 52.1221 8.99154 52.0673 9.15972L54.3779 10.8651C54.8586 10.5957 55.4164 10.425 56.0558 10.425C56.8349 10.425 57.5416 10.6463 58.0638 11.0302C58.5859 11.414 58.944 11.9658 58.944 12.5705C58.944 12.9685 58.7525 13.3245 58.5039 13.6433L61.7496 16.0089C62.1607 15.8369 62.6224 15.7338 63.125 15.7338C63.9044 15.7338 64.6384 15.953 65.1604 16.3389C65.6825 16.7248 66.0132 17.2745 66.0132 17.8793C66.0132 18.2208 65.8696 18.5311 65.6831 18.8145L68.7638 21.0426C69.1797 20.8656 69.6568 20.74 70.1666 20.74C70.946 20.74 71.6525 20.9592 72.1746 21.3451C72.6967 21.731 73.0273 22.2808 73.0273 22.8855C73.0273 23.4903 72.6967 24.04 72.1746 24.4259C71.6525 24.8118 70.946 25.031 70.1666 25.031C69.3873 25.031 68.6808 24.8118 68.1587 24.4259C67.6366 24.04 67.2785 23.4903 67.2785 22.8855C67.2785 22.4187 67.525 21.9966 67.8561 21.6477L64.9679 19.5297C64.4676 19.8455 63.8231 20.0523 63.125 20.0523C62.4884 20.0523 61.926 19.8792 61.4471 19.6122L59.1365 21.2901C59.3358 21.5333 59.5074 21.7962 59.5766 22.0878C59.5997 22.185 59.6041 22.2871 59.6041 22.3904C59.6041 22.9951 59.2735 23.5448 58.7514 23.9307C58.4903 24.1237 58.183 24.2953 57.8437 24.3984C57.674 24.4498 57.505 24.4818 57.321 24.5084C57.137 24.535 56.9382 24.5358 56.7434 24.5358C56.1305 24.5358 55.5617 24.3998 55.093 24.1508L51.8472 26.5438C52.1818 26.8259 52.4306 27.1972 52.5349 27.5891C52.5697 27.7197 52.5899 27.836 52.5899 27.9742C52.5899 28.5789 52.2593 29.1011 51.7372 29.487C51.6067 29.5835 51.4764 29.6847 51.3246 29.7621C51.0209 29.9169 50.6749 30.0339 50.3069 30.0922C50.1229 30.1213 49.9241 30.1196 49.7292 30.1196C48.9498 30.1196 48.2433 29.8729 47.7212 29.487C47.4602 29.294 47.2365 29.0812 47.0886 28.8268C47.0147 28.6996 46.9627 28.5543 46.9235 28.4142C46.8844 28.2742 46.8685 28.1253 46.8685 27.9741C46.8685 27.3694 47.1992 26.8197 47.7212 26.4338C48.2433 26.0479 48.9498 25.8011 49.7292 25.8011C50.1183 25.8011 50.4906 25.8872 50.8295 25.9937L54.3228 23.463C54.198 23.304 54.0991 23.1464 54.0202 22.9679C53.9414 22.7894 53.8827 22.59 53.8827 22.3903C53.8827 21.7855 54.2133 21.2338 54.7354 20.8499C54.866 20.754 54.9962 20.6771 55.148 20.6024C55.6036 20.3782 56.159 20.2448 56.7434 20.2448C57.3293 20.2448 57.8537 20.4004 58.3113 20.6299L60.6768 18.9245C60.5615 18.7703 60.4486 18.6043 60.3743 18.4293C60.3 18.2544 60.2642 18.0707 60.2642 17.8792C60.2642 17.4062 60.5302 16.9935 60.8694 16.6414L57.6786 14.3034C57.2127 14.5463 56.66 14.716 56.0557 14.716C55.3699 14.716 54.7641 14.5266 54.2678 14.2208L51.5997 16.1738C51.8381 16.4313 52.0146 16.7298 52.0948 17.054C52.1215 17.1621 52.1498 17.2699 52.1498 17.3841C52.1498 17.9888 51.8192 18.5386 51.2971 18.9245C51.1666 19.0209 51.0114 19.1247 50.857 19.1995C50.5482 19.3492 50.2124 19.4489 49.8392 19.5021C49.6527 19.5287 49.4565 19.5296 49.2616 19.5296C48.4822 19.5296 47.7757 19.3103 47.2536 18.9244C46.7316 18.5385 46.4009 17.9888 46.4009 17.384C46.4009 16.7793 46.7315 16.2275 47.2536 15.8437C47.7758 15.4598 48.4825 15.2385 49.2616 15.2385C49.7988 15.2385 50.3154 15.3461 50.747 15.5411L53.5251 13.5056C53.3374 13.2209 53.195 12.9127 53.195 12.5704C53.195 12.4772 53.2039 12.3848 53.2225 12.2953C53.2795 12.0269 53.4157 11.7775 53.5801 11.5527L51.4896 10.0123C50.9585 10.4886 50.1944 10.81 49.3166 10.81C48.5858 10.81 47.9293 10.5483 47.4186 10.2048L45.3556 11.6352C45.5379 11.9167 45.6582 12.2339 45.6582 12.5704C45.6582 13.1752 45.3276 13.6974 44.8055 14.0833C44.2834 14.4692 43.5769 14.7159 42.7975 14.7159C42.2772 14.7159 41.7896 14.5973 41.3672 14.4133L38.1214 16.6139C38.4829 16.972 38.7816 17.3889 38.7816 17.8792C38.7816 17.9778 38.7763 18.0875 38.7541 18.1817C38.6876 18.4646 38.5249 18.7141 38.3415 18.9519L40.7071 20.6573C41.0566 20.5424 41.4296 20.4648 41.8348 20.4648C42.6142 20.4648 43.3207 20.7115 43.8428 21.0974C44.3649 21.4833 44.6955 22.0055 44.6955 22.6103C44.6955 23.2151 44.3649 23.7648 43.8428 24.1507C43.3207 24.5366 42.6142 24.7833 41.8348 24.7833C41.0555 24.7833 40.347 24.5367 39.8269 24.1507C39.3067 23.7647 38.9742 23.2147 38.9742 22.6103C38.9742 22.3332 39.0372 22.0744 39.1667 21.8401C39.2315 21.723 39.3236 21.6159 39.4143 21.51C39.5049 21.4041 39.6046 21.3018 39.7168 21.2075L37.5438 19.6121C37.0765 19.8582 36.5297 20.0522 35.9209 20.0522C35.1665 20.0522 34.4838 19.7832 33.968 19.4195L30.9422 21.51C31.3077 21.7963 31.5945 22.1728 31.7124 22.5828C31.7517 22.7195 31.7674 22.8501 31.7674 22.9954C31.7674 23.2582 31.6618 23.4803 31.5474 23.7106L34.2155 25.636C34.5745 25.5144 34.9533 25.4435 35.3708 25.4435C36.1502 25.4435 36.8842 25.6627 37.4063 26.0486C37.9284 26.4345 38.259 26.9843 38.259 27.589C38.259 28.1937 37.9284 28.7455 37.4063 29.1294C36.8841 29.5132 36.1499 29.7345 35.3708 29.7345C34.9812 29.7345 34.6099 29.7003 34.2705 29.597C34.1009 29.5453 33.9273 29.4791 33.7754 29.4044C33.6236 29.3297 33.4934 29.2253 33.3628 29.1294C32.8407 28.7455 32.5101 28.1937 32.5101 27.589C32.5101 27.05 32.8523 26.5883 33.2803 26.2137L30.8597 24.4807C30.3387 24.8653 29.6573 25.1409 28.8792 25.1409C27.9891 25.1409 27.209 24.831 26.6787 24.3432L23.818 26.3237C23.9565 26.4883 24.0865 26.6859 24.1756 26.8738C24.2202 26.9678 24.2608 27.049 24.2857 27.1489C24.3105 27.2487 24.3131 27.3457 24.3131 27.4515C24.3131 28.0562 23.9826 28.608 23.4604 28.9918C23.3299 29.0878 23.1997 29.1922 23.0478 29.2669C22.7441 29.4163 22.398 29.516 22.0301 29.5695C21.8461 29.5962 21.6472 29.5969 21.4524 29.5969C20.6733 29.5969 19.9391 29.3756 19.4169 28.9918C18.8948 28.6079 18.5642 28.0562 18.5642 27.4514C18.5642 26.8467 18.8949 26.2969 19.4169 25.911C19.939 25.5251 20.673 25.3059 21.4524 25.3059C21.9955 25.3059 22.4747 25.4367 22.9103 25.636L26.1285 23.4354C26.0829 23.2895 26.0185 23.1571 26.0185 22.9953C26.0185 22.3906 26.3491 21.8409 26.8712 21.455C27.3933 21.0691 28.0998 20.8223 28.8792 20.8223C29.2115 20.8223 29.5434 20.881 29.8419 20.9599L30.282 20.6298L30.3371 20.6023L33.2528 18.6219C33.1371 18.3887 33.0327 18.1432 33.0327 17.8792C33.0327 17.2744 33.3633 16.7247 33.8854 16.3388C34.4075 15.9529 35.1415 15.7337 35.9209 15.7337C36.3632 15.7337 36.7554 15.8181 37.1312 15.9537L37.5163 15.7062L40.432 13.6982C40.1509 13.3672 39.9093 12.9968 39.9093 12.5704C39.9093 11.9656 40.2674 11.4139 40.7895 11.03C41.3117 10.6462 42.0184 10.4249 42.7975 10.4249C43.466 10.4249 44.0658 10.6002 44.5579 10.8925L46.6759 9.46217C46.5376 9.21069 46.4284 8.92744 46.4284 8.63697C46.4284 8.03224 46.759 7.48251 47.2811 7.0966C47.7688 6.73607 48.4598 6.54748 49.179 6.51896L49.1791 6.49159ZM49.3167 7.39931C48.7835 7.39931 48.2916 7.57248 47.9688 7.81191C47.7257 7.99225 47.5645 8.19721 47.5012 8.41705C47.4801 8.49037 47.4738 8.55867 47.4738 8.6371C47.4738 8.87246 47.564 9.09716 47.7488 9.29726C47.8105 9.36398 47.8878 9.42968 47.9689 9.4898C48.211 9.66935 48.5532 9.81496 48.9316 9.87489C49.0578 9.89488 49.1834 9.90236 49.3167 9.90236C49.8499 9.90236 50.3117 9.72983 50.637 9.48976C50.9638 9.24858 51.1321 8.94856 51.1321 8.63705C51.1321 8.32564 50.9638 8.05299 50.637 7.81186C50.3117 7.57176 49.8499 7.39931 49.3167 7.39931ZM42.7976 11.3327C42.2642 11.3327 41.7728 11.4799 41.4498 11.7178C41.2064 11.8972 41.0651 12.1226 41.0097 12.3505C40.9912 12.4264 40.9822 12.4921 40.9822 12.5705C40.9822 12.8058 41.0526 13.0306 41.2298 13.2307C41.2888 13.2974 41.3688 13.3631 41.4498 13.4232C41.7726 13.6627 42.2645 13.8083 42.7977 13.8083C43.3309 13.8083 43.7927 13.6633 44.118 13.4232C44.4447 13.1821 44.6131 12.882 44.6131 12.5705C44.6131 12.2591 44.4451 11.9576 44.118 11.7178C43.7924 11.4792 43.3311 11.3327 42.7976 11.3327ZM56.0558 11.3327C55.5223 11.3327 55.0585 11.4799 54.7355 11.7178C54.4921 11.8972 54.331 12.1226 54.2678 12.3505C54.2468 12.4264 54.2404 12.4921 54.2404 12.5705C54.2404 12.8058 54.3306 13.0306 54.5155 13.2307C54.5771 13.2974 54.6545 13.3631 54.7355 13.4232C55.0583 13.6627 55.5226 13.8083 56.0558 13.8083C56.5891 13.8083 57.0783 13.6633 57.4036 13.4232C57.7304 13.1821 57.8988 12.882 57.8988 12.5705C57.8988 12.2591 57.7307 11.9576 57.4036 11.7178C57.0781 11.4792 56.5893 11.3327 56.0558 11.3327ZM49.2617 16.1464C48.7282 16.1464 48.2669 16.3204 47.9413 16.559C47.696 16.7388 47.5363 16.9444 47.4737 17.1641C47.4529 17.2374 47.4463 17.3063 47.4463 17.3842C47.4463 17.6178 47.5361 17.8436 47.7213 18.0443C47.783 18.1112 47.8597 18.1766 47.9414 18.2369C48.1854 18.417 48.5065 18.5622 48.8766 18.622C49 18.6419 49.1284 18.6494 49.2617 18.6494C49.7949 18.6494 50.2868 18.4763 50.6095 18.2368C50.9337 17.9964 51.1046 17.6979 51.1046 17.3841C51.1046 17.0705 50.934 16.798 50.6095 16.5589C50.2865 16.321 49.7951 16.1464 49.2617 16.1464ZM35.921 16.6415C35.3875 16.6415 34.8961 16.8161 34.5732 17.0541C34.3298 17.2334 34.1687 17.4588 34.1055 17.6868C34.0845 17.7627 34.0781 17.8284 34.0781 17.9068C34.0781 18.1421 34.1683 18.3746 34.3531 18.567C34.4148 18.6311 34.4922 18.6719 34.5732 18.732C34.8153 18.9116 35.1575 19.0572 35.5359 19.1171C35.6621 19.1371 35.7877 19.1446 35.921 19.1446C36.4542 19.1446 36.916 18.9721 37.2413 18.732C37.5681 18.4908 37.7365 18.2182 37.7365 17.9068C37.7365 17.5954 37.5684 17.2938 37.2413 17.0541C36.9158 16.8155 36.4545 16.6415 35.921 16.6415ZM63.125 16.6415C62.5915 16.6415 62.1302 16.8155 61.8047 17.0541C61.5593 17.2339 61.3996 17.4593 61.337 17.6868C61.3162 17.7625 61.3096 17.829 61.3096 17.9068C61.3096 18.1404 61.3994 18.374 61.5846 18.567C61.6463 18.6313 61.723 18.6717 61.8047 18.732C62.0487 18.9121 62.3698 19.0573 62.7399 19.1171C62.8633 19.137 62.9917 19.1446 63.125 19.1446C63.6582 19.1446 64.1501 18.9714 64.4728 18.732C64.797 18.4915 64.9679 18.2205 64.9679 17.9068C64.9679 17.593 64.7973 17.2931 64.4728 17.0541C64.1498 16.8161 63.6584 16.6415 63.125 16.6415ZM56.7434 21.1526C56.21 21.1526 55.7186 21.3272 55.3956 21.5652C55.1522 21.7445 55.011 21.9502 54.9555 22.1703C54.937 22.2437 54.9281 22.3119 54.9281 22.3904C54.9281 22.6257 54.9985 22.8504 55.1756 23.0505C55.2347 23.1173 55.3146 23.183 55.3957 23.2431C55.6377 23.4226 55.98 23.5682 56.3584 23.6282C56.4845 23.6482 56.6102 23.6556 56.7435 23.6556C57.2767 23.6556 57.766 23.4831 58.0913 23.243C58.4181 23.0019 58.5589 22.7018 58.5589 22.3903C58.5589 22.0789 58.4184 21.8049 58.0913 21.5651C57.7658 21.3265 57.2769 21.1526 56.7434 21.1526ZM41.8349 21.3726C41.3017 21.3726 40.8373 21.5458 40.5146 21.7852C40.2714 21.9656 40.1102 22.1903 40.047 22.4179C40.0258 22.4938 40.0195 22.5595 40.0195 22.6379C40.0195 22.9517 40.1904 23.2502 40.5146 23.4906C40.7567 23.6702 41.0792 23.796 41.4498 23.8482C41.5734 23.8657 41.7016 23.8757 41.8349 23.8757C42.3682 23.8757 42.8574 23.7307 43.1827 23.4906C43.5095 23.2495 43.6779 22.9493 43.6779 22.6379C43.6779 22.3264 43.5095 22.0264 43.1827 21.7852C42.8574 21.5451 42.3681 21.3726 41.8349 21.3726ZM70.1666 21.6477C69.6332 21.6477 69.1418 21.8224 68.8188 22.0603C68.5754 22.2396 68.4342 22.4453 68.3787 22.6654C68.3602 22.7389 68.3512 22.8071 68.3512 22.8855C68.3512 23.1209 68.4217 23.3455 68.5988 23.5457C68.6579 23.6124 68.7378 23.6781 68.8189 23.7382C69.0609 23.9177 69.4032 24.0634 69.7816 24.1233C69.9077 24.1433 70.0334 24.1508 70.1667 24.1508C70.6999 24.1508 71.1642 23.9776 71.487 23.7382C71.8112 23.4976 71.9821 23.1993 71.9821 22.8855C71.9821 22.5718 71.8115 22.2994 71.487 22.0603C71.164 21.8223 70.7001 21.6477 70.1666 21.6477ZM28.8793 21.7302C28.3461 21.7302 27.8817 21.9033 27.559 22.1428C27.3158 22.3231 27.1546 22.5479 27.0914 22.7754C27.0702 22.8513 27.0639 22.917 27.0639 22.9955C27.0639 23.2308 27.1541 23.4635 27.339 23.6556C27.4006 23.7197 27.4779 23.7609 27.559 23.8207C27.8013 23.9992 28.1236 24.1455 28.4942 24.2058C28.6178 24.2258 28.746 24.2332 28.8793 24.2332C29.4128 24.2332 29.9042 24.0586 30.2272 23.8206C30.5517 23.5816 30.7223 23.3091 30.7223 22.9954C30.7223 22.6817 30.5514 22.3832 30.2272 22.1427C29.9044 21.9033 29.4125 21.7302 28.8793 21.7302ZM21.4525 26.2138C20.9193 26.2138 20.4275 26.387 20.1047 26.6264C19.8616 26.8067 19.7004 27.0314 19.6371 27.259C19.616 27.3349 19.6096 27.4006 19.6096 27.479C19.6096 27.7143 19.6998 27.947 19.8847 28.1392C19.9463 28.2033 20.0236 28.2445 20.1047 28.3042C20.347 28.4827 20.6891 28.6291 21.0675 28.6893C21.1936 28.7094 21.3192 28.7168 21.4526 28.7168C21.986 28.7168 22.4499 28.5421 22.7729 28.3042C23.0974 28.0651 23.268 27.7926 23.268 27.479C23.268 27.1652 23.0971 26.8668 22.7729 26.6263C22.4501 26.3869 21.9857 26.2138 21.4525 26.2138ZM35.3708 26.3513C34.8377 26.3513 34.3733 26.5244 34.0505 26.7639C33.8074 26.9442 33.6462 27.1492 33.5829 27.369C33.5618 27.4423 33.5555 27.5106 33.5555 27.5891C33.5555 27.746 33.6098 27.9126 33.693 28.0567C33.7346 28.1287 33.7689 28.1826 33.8305 28.2492C33.8921 28.3159 33.9694 28.382 34.0506 28.4418C34.2928 28.6203 34.6151 28.7666 34.9858 28.8269C35.1093 28.8469 35.2375 28.8543 35.3709 28.8543C35.9044 28.8543 36.3932 28.6804 36.7187 28.4417C37.0458 28.202 37.2138 27.9005 37.2138 27.589C37.2138 27.2776 37.0455 27.005 36.7187 26.7638C36.3934 26.5237 35.9041 26.3513 35.3708 26.3513ZM49.7293 26.7364C49.1958 26.7364 48.7345 26.8829 48.409 27.1215C48.1637 27.3012 48.0039 27.5267 47.9413 27.7541C47.9205 27.8299 47.9139 27.8963 47.9139 27.9742C47.9139 28.2078 48.0037 28.4336 48.1889 28.6343C48.2507 28.7012 48.3273 28.7666 48.409 28.8269C48.7343 29.067 49.1961 29.212 49.7293 29.212C50.2625 29.212 50.7544 29.0663 51.0771 28.8269C51.4013 28.5864 51.5447 28.2879 51.5447 27.9742C51.5447 27.6605 51.4017 27.3606 51.0771 27.1215C50.7542 26.8835 50.2627 26.7364 49.7293 26.7364Z" fill="#BCE68F"/>
<path d="M35.0518 31.423L42.6209 37.3491L35.7776 37.3889L31.9811 34.4778L28.2405 34.4538L34.9721 39.7338L35.0518 39.678V39.694L45.54 39.6381L45.7474 39.7976L41.903 60.8777L56.6982 60.9894L52.6066 40.005L53.0612 39.6461L63.5574 39.7019V39.686L63.6292 39.7418L70.3608 34.4618L66.6201 34.4857L62.8236 37.3969L55.9804 37.357L63.5574 31.431L59.4977 31.4789L52.0722 37.2693L51.5378 34.5097L46.7204 34.4618L46.2499 37.038L39.1115 31.4709L35.0518 31.423Z" fill="#5E9622"/>
</svg>
