<?xml version="1.0" encoding="utf-8"?>
<!-- Generator: Adobe Illustrator 23.0.4, SVG Export Plug-In . SVG Version: 6.00 Build 0)  -->
<svg version="1.1" id="Layer_1" xmlns="http://www.w3.org/2000/svg" xmlns:xlink="http://www.w3.org/1999/xlink" x="0px" y="0px"
	 viewBox="0 0 348.3 193.8" style="enable-background:new 0 0 348.3 193.8;" xml:space="preserve">
<style type="text/css">
	.st0{fill:#3C3C3B;}
	.st1{fill:#9D9D9C;}
	.st2{fill:#E84610;}
	.st3{fill:#FFFFFF;}
</style>
<g>
	<g>
		<path class="st0" d="M171.7,28.8c-1.7-2.1-3.2-3.2-5.3-3.2c-2.4,0-3.8,1.6-3.8,4c0,5.7,18.7,5.5,18.7,19.8c0,7.6-6.2,14-14.3,14
			c-6.3,0-11.5-3.4-13.7-9.3L159,50h0.6c1.7,4.1,4.2,5.8,7.3,5.8c3.7,0,6.2-2.6,6.2-6.4c0-8.2-18.7-7.7-18.7-19.8
			c0-6.6,5.2-11.6,11.9-11.6c5.1,0,8.7,2.5,11.4,6.7l-5.5,4.1H171.7z"/>
		<path class="st0" d="M217.7,18.9l0.3,0.3v6.7l-0.3,0.3h-13.5v35.9l-0.3,0.3h-6.6l-0.3-0.3V26.2h-13.5l-0.3-0.3v-6.7l0.3-0.3H217.7
			z"/>
		<path class="st0" d="M255.4,30.9c-4-3.4-9.1-5.3-14.6-5.3c-8.2,0-14.8,6.7-14.8,15.1s6.6,15.1,14.8,15.1c5.5,0,10.6-1.9,14.6-5.3
			l0.3,0.3V59c-4,2.9-9,4.4-14.9,4.4c-12.7,0-23-10.3-23-22.7c0-12.4,10.3-22.7,23-22.7c5.9,0,10.9,1.5,14.9,4.4v8.2L255.4,30.9z"/>
	</g>
	<g>
		<path class="st0" d="M166.6,114.1l0.2,0.2v2.1l-0.2,0.2h-10.1v6.2h7.6l0.2,0.2v2.1l-0.2,0.2h-7.6v8.4h11.1l0.2,0.2v2.1l-0.2,0.2
			h-13.3l-0.2-0.2v-21.5l0.2-0.2H166.6z"/>
		<path class="st0" d="M178.4,114.1c6.7,0,11.5,4.8,11.5,10.9c0,6.1-4.8,10.9-11.5,10.9h-6.6l-0.2-0.2v-21.5l0.2-0.2H178.4z
			 M174,133.6h4.4c5.1,0,8.8-3.7,8.8-8.5c0-4.8-3.7-8.5-8.8-8.5H174V133.6z"/>
		<path class="st0" d="M196.5,114.1l0.2,0.2v11.6c0,5.2,3,8.1,6.9,8.1c4,0,6.9-2.9,6.9-8.1v-11.6l0.2-0.2h2.1l0.2,0.2v12
			c0,6.4-4,10.1-9.3,10.1s-9.3-3.7-9.3-10.1v-12l0.2-0.2H196.5z"/>
		<path class="st0" d="M236.2,118.9c-2.1-1.7-4.7-2.7-7.3-2.7c-4.8,0-8.8,3.9-8.8,8.9c0,4.9,4,8.9,8.8,8.9c2.7,0,5.2-1,7.3-2.7
			l0.2,0.2v2.7c-2,1.5-4.5,2.3-7.5,2.3c-6.4,0-11.5-5.2-11.5-11.4c0-6.2,5.1-11.4,11.5-11.4c3,0,5.5,0.9,7.5,2.3v2.7L236.2,118.9z"
			/>
		<path class="st0" d="M249.9,114.1l0.2,0.2l8.7,21.5l-0.2,0.2h-2.3l-0.2-0.2l-2.3-5.7h-10l-2.3,5.7l-0.2,0.2h-2.3l-0.2-0.2
			l8.7-21.5l0.2-0.2H249.9z M244.8,127.7h8.1l-4.1-10.3L244.8,127.7z"/>
		<path class="st0" d="M273.8,114.1l0.2,0.2v2.1l-0.2,0.2h-7.4v19.3l-0.2,0.2h-2.1l-0.2-0.2v-19.3h-7.4l-0.2-0.2v-2.1l0.2-0.2H273.8
			z"/>
		<path class="st0" d="M279.8,114.1l0.2,0.2v21.5l-0.2,0.2h-2.1l-0.2-0.2v-21.5l0.2-0.2H279.8z"/>
		<path class="st0" d="M307.5,125c0,6.3-5.2,11.4-11.5,11.4s-11.5-5.1-11.5-11.4c0-6.3,5.2-11.4,11.5-11.4S307.5,118.8,307.5,125z
			 M287.2,125c0,4.9,4,8.9,8.8,8.9c4.8,0,8.8-4,8.8-8.9c0-4.9-3.9-8.9-8.8-8.9C291.1,116.2,287.2,120.1,287.2,125z"/>
		<path class="st0" d="M314.3,114.1l0.3,0.2l13.5,17.9v-17.9l0.2-0.2h2.1l0.2,0.2v21.5l-0.2,0.2h-2.2l-0.3-0.2L314.3,118v17.9
			l-0.2,0.2h-2.1l-0.2-0.2v-21.5l0.2-0.2H314.3z"/>
	</g>
	<g>
		<path class="st0" d="M156.1,83.6l0.2,0.2v8.5h12.6v-8.5l0.2-0.2h2.1l0.2,0.2v21.5l-0.2,0.2H169l-0.2-0.2V94.6h-12.6v10.6l-0.2,0.2
			H154l-0.2-0.2V83.7l0.2-0.2H156.1z"/>
		<path class="st0" d="M180.2,83.6l0.2,0.2v21.5l-0.2,0.2h-2.1l-0.2-0.2V83.7l0.2-0.2H180.2z"/>
		<path class="st0" d="M205.6,88c-2.1-1.8-5-2.4-7.6-2.4c-5.2,0-9.1,3.9-9.1,8.9c0,5,4,8.9,9.3,8.9c1.8,0,3.9-0.4,5.6-1.4v-6.1h-4.9
			l-0.2-0.2v-2.1l0.2-0.2h7.2l0.2,0.2v9.8c-2.3,1.7-5.2,2.5-8,2.5c-6.7,0-12-5-12-11.4c0-6.2,5.1-11.4,11.9-11.4c3,0,5.8,0.5,7.8,2
			v2.7L205.6,88z"/>
		<path class="st0" d="M214.7,83.6l0.2,0.2v8.5h12.6v-8.5l0.2-0.2h2.1l0.2,0.2v21.5l-0.2,0.2h-2.1l-0.2-0.2V94.6h-12.6v10.6
			l-0.2,0.2h-2.1l-0.2-0.2V83.7l0.2-0.2H214.7z"/>
		<path class="st0" d="M249.1,83.6l0.2,0.2v2.1l-0.2,0.2H239v6.2h7.6l0.2,0.2v2.1l-0.2,0.2H239v8.4h11.1l0.2,0.2v2.1l-0.2,0.2h-13.3
			l-0.2-0.2V83.7l0.2-0.2H249.1z"/>
		<path class="st0" d="M261.4,83.6c4.3,0,7,2.5,7,6.1c0,2.8-1.8,4.8-4.2,5.6l7.4,10l-0.2,0.2h-2.8l-0.2-0.2l-7.2-9.6h-3.3v9.6
			l-0.2,0.2h-2.1l-0.2-0.2V83.7l0.2-0.2H261.4z M257.9,93.3h3.3c2.5,0,4.4-1.2,4.4-3.7c0-2.3-1.5-3.7-4.2-3.7h-3.5V93.3z"/>
	</g>
	<g>
		<g>
			<path class="st1" d="M154.2,160.8L154.2,160.8l0.1,8.6h4.5l0.1,0.1v0.9l-0.1,0.1h-5.5l-0.1-0.1v-9.6l0.1-0.1H154.2z"/>
			<path class="st1" d="M166.1,160.8L166.1,160.8l0.1,1l-0.1,0.1h-4.5v2.8h3.4l0.1,0.1v0.9l-0.1,0.1h-3.4v3.7h4.9l0.1,0.1v0.9
				l-0.1,0.1h-5.9l-0.1-0.1v-9.6l0.1-0.1H166.1z"/>
			<path class="st1" d="M172.2,160.8L172.2,160.8l3.9,9.6l-0.1,0.1h-1l-0.1-0.1l-1-2.5h-4.4l-1,2.5l-0.1,0.1h-1l-0.1-0.1l3.9-9.6
				l0.1-0.1H172.2z M170,166.8h3.6l-1.8-4.6L170,166.8z"/>
			<path class="st1" d="M180.2,160.8c1.9,0,3.1,1.1,3.1,2.7c0,1.2-0.8,2.1-1.9,2.5l3.3,4.5l-0.1,0.1h-1.2l-0.1-0.1l-3.2-4.2h-1.5
				v4.2l-0.1,0.1h-0.9l-0.1-0.1v-9.6l0.1-0.1H180.2z M178.7,165.1h1.5c1.1,0,2-0.6,2-1.6c0-1-0.7-1.6-1.9-1.6h-1.5V165.1z"/>
			<path class="st1" d="M187.2,160.8l0.1,0.1l6,7.9v-7.9l0.1-0.1h0.9l0.1,0.1v9.6l-0.1,0.1h-1l-0.1-0.1l-6-7.9v7.9l-0.1,0.1h-0.9
				l-0.1-0.1v-9.6l0.1-0.1H187.2z"/>
		</g>
		<g>
			<path class="st1" d="M215.5,160.8L215.5,160.8l3.9,9.6l-0.1,0.1h-1l-0.1-0.1l-1-2.5h-4.4l-1,2.5l-0.1,0.1h-1l-0.1-0.1l3.9-9.6
				l0.1-0.1H215.5z M213.2,166.8h3.6l-1.8-4.6L213.2,166.8z"/>
			<path class="st1" d="M228.2,162.9c-0.9-0.8-2.1-1.2-3.3-1.2c-2.2,0-3.9,1.7-3.9,3.9s1.8,3.9,3.9,3.9c1.2,0,2.3-0.4,3.3-1.2
				l0.1,0.1v1.2c-0.9,0.7-2,1-3.3,1c-2.8,0-5.1-2.3-5.1-5.1s2.3-5.1,5.1-5.1c1.3,0,2.4,0.4,3.3,1L228.2,162.9L228.2,162.9z"/>
			<path class="st1" d="M231.4,160.8L231.4,160.8l0.1,3.8h5.6v-3.8l0.1-0.1h0.9l0.1,0.1v9.6l-0.1,0.1h-0.9l-0.1-0.1v-4.7h-5.6v4.7
				l-0.1,0.1h-0.9l-0.1-0.1v-9.6l0.1-0.1H231.4z"/>
			<path class="st1" d="M241.5,160.8L241.5,160.8l0.1,9.6l-0.1,0.1h-0.9l-0.1-0.1v-9.6l0.1-0.1H241.5z"/>
			<path class="st1" d="M249.6,160.8L249.6,160.8l0.1,1l-0.1,0.1h-4.5v2.8h3.4l0.1,0.1v0.9l-0.1,0.1h-3.4v3.7h4.9l0.1,0.1v0.9
				l-0.1,0.1h-5.9l-0.1-0.1v-9.6l0.1-0.1H249.6z"/>
			<path class="st1" d="M251.9,160.8L251.9,160.8l3.2,8.2l3.1-8.1l0.1-0.1h1l0.1,0.1l-3.7,9.6l-0.1,0.1h-1l-0.1-0.1l-3.7-9.6
				l0.1-0.1H251.9z"/>
			<path class="st1" d="M266.4,160.8L266.4,160.8l0.1,1l-0.1,0.1h-4.5v2.8h3.4l0.1,0.1v0.9l-0.1,0.1h-3.4v3.7h4.9l0.1,0.1v0.9
				l-0.1,0.1h-5.9l-0.1-0.1v-9.6l0.1-0.1H266.4z"/>
		</g>
		<g>
			<path class="st1" d="M284,160.8L284,160.8l0.1,9.6l-0.1,0.1h-0.9l-0.1-0.1v-9.6l0.1-0.1H284z"/>
			<path class="st1" d="M287.5,160.8l0.1,0.1l6,7.9v-7.9l0.1-0.1h0.9l0.1,0.1v9.6l-0.1,0.1h-1l-0.1-0.1l-6-7.9v7.9l-0.1,0.1h-0.9
				l-0.1-0.1v-9.6l0.1-0.1H287.5z"/>
			<path class="st1" d="M300.8,162.6c-0.4-0.6-0.8-0.9-1.5-0.9c-0.7,0-1.3,0.5-1.3,1.3c0,1.7,4.4,1.6,4.4,4.7c0,1.7-1.4,3-3,3
				c-1.4,0-2.4-0.8-2.9-2l0.8-0.6h0.1c0.4,1,1.1,1.5,2,1.5c1,0,1.8-0.8,1.8-1.9c0-2.1-4.5-2-4.5-4.7c0-1.3,1.1-2.4,2.5-2.4
				c1.1,0,1.9,0.6,2.4,1.5l-0.8,0.6H300.8z"/>
			<path class="st1" d="M307.1,160.8c2.1,0,3.4,1.2,3.4,2.9c0,1.7-1.3,2.9-3.4,2.9h-1.7v3.8l-0.1,0.1h-0.9l-0.1-0.1v-9.6l0.1-0.1
				H307.1z M305.5,165.5h1.7c1.3,0,2.1-0.7,2.1-1.8c0-1.1-0.8-1.8-2.1-1.8h-1.7V165.5z"/>
			<path class="st1" d="M313.2,160.8L313.2,160.8l0.1,9.6l-0.1,0.1h-0.9l-0.1-0.1v-9.6l0.1-0.1H313.2z"/>
			<path class="st1" d="M318.2,160.8c1.9,0,3.1,1.1,3.1,2.7c0,1.2-0.8,2.1-1.9,2.5l3.3,4.5l-0.1,0.1h-1.2l-0.1-0.1l-3.2-4.2h-1.5
				v4.2l-0.1,0.1h-0.9l-0.1-0.1v-9.6l0.1-0.1H318.2z M316.7,165.1h1.5c1.1,0,2-0.6,2-1.6c0-1-0.7-1.6-1.9-1.6h-1.5V165.1z"/>
			<path class="st1" d="M329.8,160.8L329.8,160.8l0.1,1l-0.1,0.1h-4.5v2.8h3.4l0.1,0.1v0.9l-0.1,0.1h-3.4v3.7h4.9l0.1,0.1v0.9
				l-0.1,0.1h-5.9l-0.1-0.1v-9.6l0.1-0.1H329.8z"/>
		</g>
		<rect x="274" y="160.8" class="st1" width="1" height="9.7"/>
		<rect x="203.6" y="160.8" class="st1" width="1" height="9.7"/>
	</g>
	<g>
		<g>
			<path class="st2" d="M77.7,171.7L77.7,171.7h0.1c8.8-4.1,38.6-19.4,50.1-43.3c2.5-5.3,3.9-11.4,3.9-17.6V22.2H23.6v88.6
				c0,6.3,1.3,12.4,3.9,17.6C39,152.2,68.8,167.6,77.7,171.7z"/>
			<path class="st2" d="M18.7,16.9v95.1c0,6.8,1.5,13.4,4.3,19.1c12.6,25.7,45.2,42.2,54.9,46.6l0.1,0l0.1,0
				c9.7-4.4,42.2-20.7,54.9-46.6c2.8-5.7,4.3-12.3,4.3-19.1V16.9H18.7z M134.5,19.5v92.4c0,6.4-1.4,12.6-4,17.9
				c-12,24.5-43.2,40.5-52.6,44.8c-9.4-4.4-40.6-20.5-52.6-44.8c-2.6-5.3-4-11.5-4-17.9V19.5H134.5z"/>
			<g>
				<path class="st3" d="M120.9,52.2l0.2,0v0c0.3-0.1,0.6-0.4,0.7-0.8l1.6-5.7c0.1-0.4,0-0.7-0.2-1c-0.2-0.3-0.6-0.5-0.9-0.5H33.8
					c-0.4,0-0.7,0.2-0.9,0.5c-0.2,0.3-0.3,0.7-0.2,1l1.6,5.7c0.1,0.3,0.3,0.6,0.7,0.8v0l0.2,0c5,0.1,9.1,5.7,9.1,12.4v1.3H42
					c-0.5,0-0.9,0.4-0.9,0.9v5.1c0,0.5,0.4,0.9,0.9,0.9h2.2v26.7c0,0.5,0.4,0.9,0.9,0.9c0.5,0,0.9-0.4,0.9-0.9V72.8h2.2v26.7
					c0,0.5,0.4,0.7,1,0.7c0,0,0,0,0,0l0,0.2c0.5,0,1-0.4,1-1V72.8h2.5v26.7c0,0.5,0.4,0.9,0.9,0.9s0.9-0.4,0.9-0.9V72.8h1.9
					c0.5,0,0.9-0.4,0.9-0.9v-5.1c0-0.5-0.4-0.9-0.9-0.9h-1.9v-1.3c0-6.8,4.1-12.2,9.2-12.2c5,0,9.2,5.5,9.2,12.2v1.3h-2
					c-0.5,0-0.9,0.4-0.9,0.9v5.1c0,0.5,0.4,0.9,0.9,0.9h2v26.7c0,0.5,0.4,0.9,0.9,0.9s0.9-0.4,0.9-0.9V72.8H77v26.7
					c0,0.5,0.4,0.7,1,0.7c0,0,0,0.2,0,0.2l0.1,0c0.5,0,1-0.4,1-1V72.8h2.3v26.7c0,0.5,0.4,0.9,0.9,0.9c0.5,0,0.9-0.4,0.9-0.9V72.8h2
					c0.5,0,0.9-0.4,0.9-0.9v-5.1c0-0.5-0.4-0.9-0.9-0.9h-2v-1.3c0-6.8,4.1-12.2,9.2-12.2c5,0,9.2,5.5,9.2,12.2v1.3h-2.1
					c-0.5,0-0.9,0.4-0.9,0.9v5.1c0,0.5,0.4,0.9,0.9,0.9h2.1v26.7c0,0.5,0.4,0.9,0.9,0.9c0.5,0,0.9-0.4,0.9-0.9V72.8h2.3v26.7
					c0,0.5,0.4,1,1,1c0,0,0,0,0,0l0.1,0c0.5,0,1-0.4,1-1V72.8h2.4v26.7c0,0.5,0.4,0.9,0.9,0.9c0.5,0,0.9-0.4,0.9-0.9V72.8h2
					c0.5,0,0.9-0.4,0.9-0.9v-5.1c0-0.5-0.4-0.9-0.9-0.9h-2v-1.3C111.8,57.9,115.9,52.2,120.9,52.2z M75.4,52.3h5.4
					c-1.1,1.4-2.1,3.1-2.7,4.9C77.4,55.4,76.5,53.7,75.4,52.3z M81.4,64.6v1.3H79V63c0-4.3,1.6-8.3,4.3-10.8H87
					C83.5,54.8,81.4,59.4,81.4,64.6z M69,52.3h3.7C75.4,54.7,77,58.7,77,63v2.8h-2.3v-1.3C74.7,59.4,72.5,54.8,69,52.3z M71.8,70.9
					v-3.2h12.6v3.2H71.8z M46.6,52.3h5.4c-1.1,1.4-2.1,3.1-2.7,4.9C48.6,55.4,47.7,53.7,46.6,52.3z M52.7,64.6v1.3h-2.5V63
					c0-4.3,1.6-8.3,4.3-10.8h3.9C54.9,54.8,52.7,59.4,52.7,64.6z M40.4,52.3h3.6c2.7,2.4,4.3,6.4,4.3,10.8v2.8h-2.2v-1.3
					C46.1,59.4,43.9,54.8,40.4,52.3z M55.5,67.7v3.2H43v-3.2H55.5z M120.7,46.6l-0.9,3.3H36.3l-0.9-3.3H120.7z M115.7,52.3
					c-3.5,2.5-5.7,7.2-5.7,12.3v1.3h-2.4V63c0-4.3,1.6-8.3,4.3-10.8H115.7z M109.3,52.3c-1.1,1.4-2.1,3.1-2.7,4.9
					c-0.6-1.8-1.5-3.5-2.7-4.9H109.3z M97.6,52.3h3.6c2.7,2.4,4.3,6.4,4.3,10.8v2.8h-2.3v-1.3C103.3,59.4,101.2,54.8,97.6,52.3z
					 M112.9,67.7v3.2h-12.6v-3.2H112.9z"/>
				<path class="st3" d="M111.8,107.3v-2.9c0-0.3-0.3-0.6-0.6-0.6H44.9c-0.3,0-0.6,0.3-0.6,0.6v2.9c0,0.3,0.3,0.6,0.6,0.6h66.3
					C111.5,107.9,111.8,107.6,111.8,107.3z"/>
				<path class="st3" d="M100.1,115v-2.7c0-0.3-0.3-0.6-0.6-0.6H56.3c-0.3,0-0.6,0.3-0.6,0.6v2.7c0,0.3,0.3,0.6,0.6,0.6h43.2
					C99.9,115.6,100.1,115.3,100.1,115z"/>
			</g>
			<path class="st3" d="M70.9,35.7l0.1,0.2l6.4-2.6l-2.7,6.5l0.2,0c0,0,0.1,0,0.1,0l2.8-1.9l2.8,1.9l0.1,0.1l0.2-0.1l-2.6-6.4L85,36
				l0-0.2c0-0.1,0-0.1,0-0.1c-0.6-0.9-1.3-1.9-1.9-2.8l1.9-2.8l0.1-0.1l-0.1-0.1l-0.1-0.1l-6.4,2.6l2.7-6.5l-0.2,0
				c-0.1,0-0.1,0-0.1,0l-2.8,1.9c-0.9-0.6-1.9-1.3-2.8-1.9L75,25.8l-0.2,0.1l2.6,6.4l-6.5-2.7l0,0.2c0,0.1,0,0.1,0,0.1l1.9,2.8
				L71,35.6L70.9,35.7z"/>
			<g>
				<g>
					<path class="st3" d="M81.3,135c0.1,0,0.3,0,0.4-0.1l10.2-5.7c0.2-0.1,0.3-0.3,0.4-0.5c0.1-0.2,0-0.5-0.1-0.7
						c-0.1-0.2-0.3-0.3-0.5-0.4c-0.2-0.1-0.5,0-0.7,0.1l-10.2,5.7c-0.2,0.1-0.3,0.3-0.4,0.5c-0.1,0.2,0,0.5,0.1,0.7
						C80.7,134.8,81,135,81.3,135z"/>
					<path class="st3" d="M81.9,139.6l10.2-6.1c0.2-0.1,0.3-0.3,0.4-0.5c0.1-0.2,0-0.5-0.1-0.6c-0.1-0.2-0.3-0.3-0.5-0.4
						c-0.2-0.1-0.5,0-0.7,0.1L81,138.2c-0.4,0.2-0.5,0.8-0.3,1.2c0.2,0.3,0.4,0.4,0.7,0.4C81.6,139.8,81.7,139.7,81.9,139.6z"/>
					<path class="st3" d="M91.5,136.4l-10.3,6.2c-0.4,0.2-0.5,0.8-0.3,1.2c0.2,0.3,0.4,0.4,0.7,0.4c0.2,0,0.3,0,0.4-0.1l10.3-6.2
						c0.4-0.2,0.5-0.8,0.3-1.2C92.5,136.3,91.9,136.2,91.5,136.4z"/>
				</g>
				<g>
					<path class="st3" d="M74.7,134.8c-0.1,0-0.3,0-0.4-0.1l-10.2-5.7c-0.2-0.1-0.3-0.3-0.4-0.5c-0.1-0.2,0-0.5,0.1-0.7
						c0.1-0.2,0.3-0.3,0.5-0.4c0.2-0.1,0.5,0,0.7,0.1l10.2,5.7c0.2,0.1,0.3,0.3,0.4,0.5c0.1,0.2,0,0.5-0.1,0.7
						C75.3,134.6,75,134.8,74.7,134.8z"/>
					<path class="st3" d="M74.1,139.4l-10.2-6.1c-0.2-0.1-0.3-0.3-0.4-0.5c-0.1-0.2,0-0.5,0.1-0.6c0.1-0.2,0.3-0.3,0.5-0.4
						c0.2-0.1,0.5,0,0.7,0.1L75,138c0.4,0.2,0.5,0.8,0.3,1.2c-0.2,0.3-0.4,0.4-0.7,0.4C74.4,139.6,74.3,139.5,74.1,139.4z"/>
					<path class="st3" d="M64.5,136.2l10.3,6.2c0.4,0.2,0.5,0.8,0.3,1.2c-0.2,0.3-0.4,0.4-0.7,0.4c-0.2,0-0.3,0-0.4-0.1l-10.3-6.2
						c-0.4-0.2-0.5-0.8-0.3-1.2C63.5,136.1,64,136,64.5,136.2z"/>
				</g>
				<path class="st3" d="M100.1,121.2c0-0.3-0.2-0.6-0.5-0.8c-0.3-0.1-0.7-0.1-0.9,0.1l-2.8,2.3l0-1.4c0-0.3-0.2-0.6-0.4-0.7
					c-0.3-0.2-0.6-0.2-0.9,0l-16.8,9.9l-16.7-9.9c-0.3-0.2-0.6-0.2-0.9,0c-0.3,0.2-0.4,0.4-0.4,0.7l0,1.4l-2.7-2.2
					c-0.3-0.2-0.6-0.3-0.9-0.1c-0.3,0.1-0.5,0.4-0.5,0.8l-0.3,20.1c0,0.2,0.1,0.4,0.2,0.5l0.1,5.5c0,0.4,0.3,0.7,0.6,0.8
					c0.6,0.2,3.6,0.9,5.5,1.4c1.9,0.4,13.3,4.3,15.6,5.1l0.3,0.1l0.1,0l0.3-0.1c3.2-1,13.7-4.6,15.6-5c2.1-0.5,5.5-1.4,5.6-1.4
					c0.4-0.1,0.6-0.4,0.6-0.8l0.1-5.4c0.2-0.2,0.3-0.4,0.3-0.6L100.1,121.2z M61.6,122.9L77,132l0.1,16.4l-15.4-8.8L61.6,122.9z
					 M78.8,148.4l0-16.4l15.4-9.1l-0.1,16.6L78.8,148.4z M60,140c0,0.3,0.2,0.6,0.4,0.7l17.1,10.1l0,0c0.1,0.1,0.3,0.1,0.4,0.1
					c0.2,0,0.3,0,0.4-0.1l17.1-10.1c0.3-0.2,0.4-0.4,0.4-0.7l0.1-15l2.5-2l0.2,17.8c-0.9,0.5-2.9,1.7-3.8,2.2
					c-4.2,2.3-14.6,8.3-16.9,9.5c-2.3-1.2-12.6-7.2-16.8-9.5c-1-0.5-2.8-1.6-3.8-2.2l0.2-17.8l2.4,2L60,140z M60.3,144.5
					c2.5,1.4,7.1,4.2,11,6.3c-3.7-1.2-7.8-2.7-8.9-3c-1.6-0.4-3.9-1-4.9-1.2l-0.1-3.7C58.4,143.5,59.5,144.1,60.3,144.5z
					 M84.7,150.8c3.8-2.1,8.5-4.9,11-6.3c0.7-0.3,1.8-1,2.8-1.6l0,3.7c-1,0.3-3.4,0.9-4.9,1.2C92.4,148.1,88.4,149.7,84.7,150.8z"/>
			</g>
			<path class="st3" d="M52.8,125.3h-14c-0.3,0-0.6,0.2-0.7,0.5c-0.1,0.3-0.1,0.6,0.1,0.9l3,3.9l-3,3.9c-0.2,0.2-0.2,0.6-0.1,0.9
				c0.1,0.3,0.4,0.5,0.7,0.5h14c0.5,0,0.8-0.4,0.8-0.8v-8.9C53.7,125.7,53.3,125.3,52.8,125.3z M43,131.1c0.2-0.3,0.2-0.7,0-1
				l-2.4-3.1H52v7.2H40.6L43,131.1z"/>
			<g>
				<g>
					<path class="st3" d="M38.6,29.4L38.6,29.4l0.1,1.2l-0.1,0.1h-3.6v1.6h2.7l0.1,0.1v1.2l-0.1,0.1h-2.7v2.2h3.9l0.1,0.1v1.2
						l-0.1,0.1h-5.1l-0.1-0.1v-7.6l0.1-0.1H38.6z"/>
					<path class="st3" d="M44,31.2c-0.3-0.4-0.6-0.6-0.9-0.6c-0.4,0-0.7,0.3-0.7,0.7c0,1,3.3,1,3.3,3.5c0,1.4-1.1,2.5-2.5,2.5
						c-1.1,0-2-0.6-2.4-1.6l1-0.7h0.1c0.3,0.7,0.7,1,1.3,1c0.7,0,1.1-0.5,1.1-1.1c0-1.5-3.3-1.4-3.3-3.5c0-1.2,0.9-2.1,2.1-2.1
						c0.9,0,1.5,0.5,2,1.2l-1,0.7H44z"/>
					<path class="st3" d="M53.3,29.4L53.3,29.4l0.1,1.2l-0.1,0.1h-2.4v6.4l-0.1,0.1h-1.2l-0.1-0.1v-6.4h-2.4l-0.1-0.1v-1.2l0.1-0.1
						H53.3z"/>
					<path class="st3" d="M55.5,35.9L55.5,35.9l0.1,1.2l-0.1,0.1h-1.2l-0.1-0.1v-1.2l0.1-0.1H55.5z"/>
				</g>
			</g>
			<path class="st3" d="M102.2,126.1v8.9c0,0.5,0.4,0.8,0.8,0.8h14c0.3,0,0.6-0.2,0.7-0.5c0.1-0.3,0.1-0.6-0.1-0.9l-3-3.9l3-3.9
				c0.2-0.2,0.2-0.6,0.1-0.9c-0.1-0.3-0.4-0.5-0.7-0.5h-14C102.6,125.3,102.2,125.7,102.2,126.1z M115.3,134.2h-11.5v-7.2h11.5
				l-2.4,3.1c-0.2,0.3-0.2,0.7,0,1L115.3,134.2z"/>
		</g>
		<g>
			<path class="st3" d="M101.8,29.5v7.6l-0.1,0.1h-1.2l-0.1-0.1v-6.6l0.1-0.1L101.8,29.5L101.8,29.5z"/>
			<path class="st3" d="M104.9,37.2c0.9-0.7,2-1.9,2.5-3.1c-0.3,0.1-0.6,0.2-0.9,0.2c-1.4,0-2.4-1.1-2.4-2.4c0-1.4,1-2.5,2.5-2.5
				c1.3,0,2.6,0.9,2.6,3.1c0,1.9-1.5,4-2.6,4.7L104.9,37.2L104.9,37.2z M106.5,30.6c-0.7,0-1.1,0.5-1.1,1.2c0,0.7,0.5,1.1,1.1,1.1
				c0.6,0,0.9-0.1,1.3-0.5C107.8,31.1,107.2,30.6,106.5,30.6z"/>
			<path class="st3" d="M112,37.2c0.9-0.7,2-1.9,2.5-3.1c-0.3,0.1-0.6,0.2-0.9,0.2c-1.4,0-2.4-1.1-2.4-2.4c0-1.4,1-2.5,2.5-2.5
				c1.3,0,2.6,0.9,2.6,3.1c0,1.9-1.5,4-2.6,4.7L112,37.2L112,37.2z M113.6,30.6c-0.7,0-1.1,0.5-1.1,1.2c0,0.7,0.5,1.1,1.1,1.1
				c0.6,0,0.9-0.1,1.3-0.5C114.9,31.1,114.2,30.6,113.6,30.6z"/>
			<path class="st3" d="M123.2,29.5L123.2,29.5l-3.7,7.6l-0.1,0.1H118l-0.1-0.1l3.2-6.4h-3.2l-0.1-0.1v-1.2l0.1-0.1H123.2z"/>
		</g>
	</g>
</g>
</svg>
