<svg viewBox="0 0 131 30" fill="none" xmlns="http://www.w3.org/2000/svg">
<g clip-path="url(#clip0_1838_1058)">
<path d="M34.7332 26.139V7.53904H28.0531V3.36304H46.3451V7.56304H39.6212V26.163L34.7332 26.139Z" fill="white"/>
<path d="M42.3488 26.139V9.822H47.1783V12.474H47.2075C48.0846 11.088 49.6077 9.396 52.6071 9.396H52.7562V13.8C52.5779 13.767 51.736 13.707 51.4378 13.707C50.6063 13.7155 49.7883 13.923 49.0488 14.3131C48.3094 14.7032 47.6689 15.2651 47.1783 15.954V26.154L42.3488 26.139Z" fill="white"/>
<path d="M54.2822 7.49999V3.51599H59.141V7.49999H54.2822ZM54.3144 26.151V9.73199H59.1118V26.139L54.3144 26.151Z" fill="white"/>
<path d="M61.0004 26.139V9.732H65.827V12.318C66.7888 11.025 68.5575 9.396 71.0892 9.396C73.7583 9.396 75.0183 10.533 75.4744 12.318C76.4333 11.058 78.2341 9.396 80.7366 9.396C83.9758 9.396 85.4141 11.496 85.4141 14.412V26.139H80.5846V15.735C80.5846 14.259 80.2542 13.488 78.8451 13.488C77.6465 13.488 76.6847 14.166 75.6293 15.12V26.139H70.8085V15.735C70.8085 14.259 70.4782 13.488 69.0545 13.488C67.8559 13.488 66.897 14.166 65.8153 15.12V26.139H61.0004Z" fill="white"/>
<path d="M92.0766 24.198V26.139H87.2383V3.36304H92.0766V12.258C93.1261 10.758 94.6258 9.39604 96.9938 9.39604C100.625 9.39604 103.133 12.258 103.133 17.919C103.133 23.58 100.587 26.4 96.9266 26.4C94.7662 26.4 93.2664 25.584 92.0766 24.198ZM98.3152 17.952C98.3152 15.213 97.3856 13.488 95.2251 13.488C93.9944 13.488 92.8864 14.259 92.0766 15.09V21.153C93.1261 22.167 93.9944 22.653 95.2924 22.653C97.2862 22.659 98.3065 20.937 98.3065 17.952H98.3152Z" fill="white"/>
<path d="M104.63 26.139V3.36304H109.427V26.139H104.63Z" fill="white"/>
<path d="M110.924 17.952C110.924 11.58 115.663 9.396 118.961 9.396C122.258 9.396 126.31 11.1 126.31 18.537V19.275H115.722C115.964 21.975 117.432 23.028 119.443 23.028C121.201 22.9745 122.883 22.2763 124.182 21.06L126.041 24.015C124.182 25.647 121.873 26.478 119.084 26.478C114.912 26.478 110.924 24.3 110.924 17.952ZM121.992 16.35C121.753 14.043 120.732 12.933 118.932 12.933C117.432 12.933 116.143 13.95 115.783 16.35H121.992Z" fill="white"/>
<path d="M127.222 24.3C127.22 24.0526 127.265 23.8071 127.356 23.578C127.447 23.3489 127.582 23.1407 127.752 22.9658C127.923 22.7908 128.126 22.6526 128.349 22.5592C128.572 22.4658 128.811 22.4192 129.052 22.422C129.414 22.422 129.768 22.5321 130.069 22.7385C130.37 22.9449 130.605 23.2382 130.743 23.5813C130.882 23.9245 130.918 24.3021 130.847 24.6664C130.777 25.0307 130.602 25.3653 130.347 25.6279C130.091 25.8906 129.765 26.0694 129.41 26.1419C129.055 26.2144 128.687 26.1772 128.352 26.035C128.018 25.8929 127.732 25.6522 127.531 25.3434C127.33 25.0345 127.222 24.6714 127.222 24.3ZM130.549 24.3C130.544 23.996 130.451 23.7003 130.283 23.4502C130.114 23.2 129.878 23.0066 129.602 22.8942C129.327 22.7818 129.025 22.7555 128.736 22.8185C128.446 22.8815 128.18 23.031 127.973 23.2483C127.766 23.4656 127.626 23.7409 127.571 24.0397C127.515 24.3384 127.547 24.6472 127.663 24.9273C127.778 25.2074 127.972 25.4462 128.219 25.6138C128.466 25.7813 128.756 25.8701 129.052 25.869C129.252 25.869 129.449 25.8282 129.633 25.749C129.817 25.6698 129.983 25.5537 130.122 25.4075C130.262 25.2614 130.371 25.0881 130.445 24.8979C130.518 24.7078 130.554 24.5045 130.549 24.3ZM128.342 23.232H129.09C129.564 23.232 129.839 23.442 129.839 23.862C129.85 23.9907 129.817 24.1195 129.746 24.2258C129.674 24.3322 129.569 24.4094 129.447 24.444L129.88 25.287H129.462L129.058 24.501H128.743V25.287H128.342V23.232ZM129.067 24.186C129.313 24.186 129.447 24.105 129.447 23.886C129.447 23.667 129.313 23.586 129.058 23.586H128.743V24.186H129.067Z" fill="white"/>
<path d="M2.67456 22.923V30L8.67348 26.448C6.36724 25.9365 4.27175 24.7052 2.67456 22.923Z" fill="white"/>
<path d="M8.62963 3.522L2.67456 0V7.035C4.26439 5.26868 6.34216 4.04297 8.62963 3.522Z" fill="white"/>
<path d="M27.9946 15L21.9986 11.448C22.7077 13.7651 22.7016 16.2506 21.9811 18.564L27.9946 15Z" fill="white"/>
<path d="M6.62415 5.37601C7.48364 5.18101 9.26987 5.37601 10.2141 5.64301C11.1015 4.99559 12.1573 4.63516 13.2458 4.60801C11.0121 4.21857 8.71672 4.4848 6.62415 5.37601Z" fill="white"/>
<path d="M18.0519 18.2519C17.904 16.9033 17.5886 15.5795 17.1135 14.3129C15.0671 15.2669 12.5178 14.6519 10.8193 13.1429C9.5716 14.4803 8.45258 15.938 7.47778 17.4959C10.3574 19.9049 15.0934 20.5379 18.0519 18.2519Z" fill="white"/>
<path d="M5.902 17.727C3.36444 15.057 2.47863 11.166 3.29135 8.17505C1.62508 10.1889 0.759837 12.7734 0.868208 15.413C0.976579 18.0525 2.0506 20.5531 3.87604 22.416C4.34195 20.7663 5.02346 19.189 5.902 17.727Z" fill="white"/>
<path d="M16.6516 13.182C16.1164 12.0132 15.4279 10.9252 14.6052 9.948C13.5728 10.6452 12.5953 11.4246 11.6818 12.279C13.2195 13.59 15.2308 13.848 16.6516 13.182Z" fill="white"/>
<path d="M14.7426 8.31595C15.4328 7.80275 16.1807 7.37669 16.9702 7.04695C15.3448 5.36095 12.7312 5.40595 11.594 6.14695C12.7593 6.67498 13.825 7.40916 14.7426 8.31595Z" fill="white"/>
<path d="M6.82884 18.6C5.56591 20.841 5.10401 22.5 4.93445 23.361C6.76384 24.7726 9.00165 25.5141 11.2901 25.4668C13.5785 25.4194 15.7854 24.5861 17.5579 23.1C17.9647 22.0163 18.1632 20.8621 18.1426 19.701C14.6462 21.837 9.8283 21.021 6.82884 18.6Z" fill="white"/>
<path d="M17.6456 12.435C18.7652 11.235 18.5401 9.18298 17.6894 8.00098C16.9409 8.31689 16.2392 8.739 15.605 9.25498C16.4075 10.2268 17.0926 11.2945 17.6456 12.435Z" fill="white"/>
<path d="M19.5751 9.85498C19.6656 10.5557 19.5835 11.2686 19.3363 11.9284C19.0891 12.5882 18.6848 13.1739 18.1602 13.632C18.6062 14.7691 18.9325 15.9518 19.1337 17.16C20.6685 15.114 20.6217 12.192 19.5751 9.85498Z" fill="white"/>
<path d="M10.8515 11.37C11.7516 10.5178 12.7133 9.73653 13.7282 9.03303C12.8073 8.1716 11.7334 7.50036 10.565 7.05603C9.61195 8.36703 9.90429 10.059 10.8515 11.37Z" fill="white"/>
<path d="M19.3178 18.807C19.354 19.697 19.3119 20.5887 19.1921 21.471C20.7727 19.3801 21.5348 16.7587 21.3292 14.121C21.1739 15.8661 20.4677 17.5114 19.3178 18.807Z" fill="white"/>
<path d="M9.37225 6.68403C8.03642 6.34772 6.64013 6.357 5.30865 6.71103C3.29439 9.64203 4.2299 13.935 6.57451 16.611C7.57553 15.0481 8.71569 13.5838 9.98033 12.237C8.78756 10.716 8.31396 8.36703 9.37225 6.68403Z" fill="white"/>
</g>
<defs>
<clipPath id="clip0_1838_1058">
<rect width="130" height="30" fill="white" transform="translate(0.86499)"/>
</clipPath>
</defs>
</svg>
