<svg viewBox="0 0 140 48" fill="none" xmlns="http://www.w3.org/2000/svg">
<path fill-rule="evenodd" clip-rule="evenodd" d="M12.6103 13.1862H6.89997V7H0V22.9979C0 26.6711 0.483904 28.5188 1.39258 30.2178C2.30125 31.9169 3.63468 33.2504 5.33375 34.159C7.03282 35.0677 8.88052 35.5516 12.5537 35.5516H12.6103V28.6516H12.5537C10.1822 28.6516 9.34152 28.4777 8.58777 28.0745C8.09115 27.8089 7.74265 27.4605 7.47706 26.9638C7.07395 26.2101 6.89997 25.3694 6.89997 22.9979V20.0862H12.6103V13.1862ZM23.3828 23.4747V13.1863H16.4829V23.4747C16.4829 27.1482 16.9667 28.9956 17.8753 30.6944C18.3296 31.5439 18.89 32.3019 19.5491 32.9613C21.5933 35.0055 24.2726 36.0276 26.9518 36.0276C29.631 36.0276 32.3102 35.0055 34.3544 32.9613C35.0135 32.3019 35.574 31.5439 36.0283 30.6944C36.9369 28.9956 37.4207 27.1482 37.4207 23.4747V13.1863H30.5207V23.4747C30.5207 25.8464 30.3468 26.6868 29.9438 27.4404C29.8077 27.6949 29.6522 27.9054 29.4744 28.0833C28.7927 28.765 27.8986 29.1276 26.9518 29.1276C26.005 29.1276 25.1109 28.765 24.4282 28.0823C24.2513 27.9054 24.0959 27.6949 23.9598 27.4404C23.5568 26.6868 23.3828 25.8464 23.3828 23.4747ZM61.2095 17.3524L55.6986 21.5051C54.83 20.3543 53.4509 19.6105 51.898 19.6105C49.2699 19.6105 47.1394 21.741 47.1394 24.3691C47.1394 26.9972 49.2699 29.1277 51.898 29.1277C53.4509 29.1277 54.83 28.3838 55.6986 27.233L61.2095 31.3858C59.0815 34.2053 55.7026 36.0277 51.898 36.0277C45.4592 36.0277 40.2394 30.8079 40.2394 24.3691C40.2394 17.9302 45.4592 12.7105 51.898 12.7105C55.7026 12.7105 59.0815 14.5329 61.2095 17.3524ZM62.6595 24.3691C62.6595 30.8079 67.8792 36.0277 74.3181 36.0277C80.7569 36.0277 85.9767 30.8079 85.9767 24.3691C85.9767 17.9302 80.7569 12.7105 74.3181 12.7105C67.8792 12.7105 62.6595 17.9302 62.6595 24.3691ZM79.0767 24.3691C79.0767 26.9972 76.9462 29.1277 74.3181 29.1277C71.69 29.1277 69.5595 26.9972 69.5595 24.3691C69.5595 21.741 71.69 19.6105 74.3181 19.6105C76.9462 19.6105 79.0767 21.741 79.0767 24.3691ZM106.222 29.3656L115.563 13.1863H123.53L110.205 36.2656L106.222 29.3656ZM93.6114 29.3656L102.952 13.1863H110.92L97.5951 36.2656L93.6114 29.3656ZM92.102 22.4656C89.4738 22.4656 87.3434 20.3351 87.3434 17.707C87.3434 15.0789 89.4738 12.9484 92.102 12.9484C94.73 12.9484 96.8606 15.0789 96.8606 17.707C96.8606 20.3351 94.73 22.4656 92.102 22.4656ZM137.577 23.6749C136.473 22.7175 135.08 22.0514 132.556 21.4206C132.342 21.367 132.126 21.3174 131.914 21.2686C130.651 20.9776 129.52 20.7171 129.52 19.8204C129.52 19.174 130.442 18.6754 131.569 18.6754C133.075 18.6754 134.758 19.3209 137.147 21.0831L139.934 16.2725C137.231 14.1186 135.107 12.7105 131.569 12.7105C127.052 12.7105 123.506 15.9044 123.506 19.8715C123.506 21.8085 124.254 23.5115 125.793 24.8452C126.897 25.8027 128.188 26.4294 130.686 27.1127C130.812 27.147 130.939 27.1809 131.065 27.2149C132.454 27.5866 133.854 27.9613 133.854 28.9195C133.854 29.7193 132.949 30.0579 131.823 30.0579C130.098 30.0579 128.156 29.0463 125.746 27.3305L122.906 32.243C125.96 34.8812 128.031 36.0277 131.569 36.0277C136.087 36.0277 139.999 32.8337 139.999 28.8667C139.999 26.9296 139.115 25.0085 137.577 23.6749Z" fill="#FFFFFF"></path>
</svg>