<svg id="Layer_7" data-name="Layer 7" xmlns="http://www.w3.org/2000/svg" xmlns:xlink="http://www.w3.org/1999/xlink" viewBox="0 0 474.85 84.26"><defs><style>.cls-1,.cls-2{fill:none;stroke:#000;}.cls-1{stroke-miterlimit:11.34;}.cls-2{stroke-miterlimit:10;}.cls-3{fill:url(#linear-gradient);}.cls-4{fill:url(#radial-gradient);}.cls-5{fill:url(#radial-gradient-8);}.cls-6{fill:url(#radial-gradient-15);}</style><linearGradient id="linear-gradient" x1="251.03" y1="13.72" x2="251.03" y2="94.34" gradientUnits="userSpaceOnUse"><stop offset="0" stop-color="red"/><stop offset="1"/></linearGradient><radialGradient id="radial-gradient" cx="48.71" cy="72.56" r="191.18" gradientUnits="userSpaceOnUse"><stop offset="0" stop-color="red"/><stop offset="1" stop-opacity="0"/></radialGradient><radialGradient id="radial-gradient-8" cx="234" cy="43.14" r="141.29" xlink:href="#radial-gradient"/><radialGradient id="radial-gradient-15" cx="437.68" cy="82.32" r="199.41" xlink:href="#radial-gradient"/></defs><path class="cls-1" d="M405.34,13.38V96.5H420V28.23H488V13.38Z" transform="translate(-13.6 -12.88)"/><path class="cls-2" d="M375.65,28.23V47.52H322.23V28.23ZM307.53,13.38V96.49h83.12V81.65H322.23V62.37h68.42v-49Z" transform="translate(-13.6 -12.88)"/><polygon class="cls-1" points="210.81 0.5 210.81 58.26 268.71 0.5 279.23 0.5 279.23 10.96 206.44 83.76 196.12 83.62 196.12 0.5 210.81 0.5"/><polygon class="cls-1" points="225.51 0.5 225.51 15.35 238.58 15.35 253.44 0.5 225.51 0.5"/><path class="cls-2" d="M195,13.38V96.49H111.91V13.38ZM126.61,28.23V81.65H180V28.23Z" transform="translate(-13.6 -12.88)"/><path class="cls-2" d="M96.72,13.38V28.22H28.8V96.49H14.1V13.38Z" transform="translate(-13.6 -12.88)"/><rect class="cls-2" x="30.19" y="68.77" width="52.92" height="14.84"/><path class="cls-2" d="M405.34,13.38V96.5H420V28.23H488V13.38Z" transform="translate(-13.6 -12.88)"/><path class="cls-2" d="M375.65,28.23V47.52H322.23V28.23ZM307.53,13.38V96.49h83.12V81.65H322.23V62.37h68.42v-49Z" transform="translate(-13.6 -12.88)"/><polygon class="cls-2" points="210.81 0.5 210.81 58.26 268.71 0.5 279.23 0.5 279.23 10.96 206.44 83.76 196.12 83.62 196.12 0.5 210.81 0.5"/><polygon class="cls-2" points="225.51 0.5 225.51 15.35 238.58 15.35 253.44 0.5 225.51 0.5"/><path class="cls-2" d="M195,13.38V96.49H111.91V13.38ZM126.61,28.23V81.65H180V28.23Z" transform="translate(-13.6 -12.88)"/><path class="cls-2" d="M96.72,13.38V28.22H28.8V96.49H14.1V13.38Z" transform="translate(-13.6 -12.88)"/><rect class="cls-2" x="30.19" y="68.77" width="52.92" height="14.84"/><path d="M405.34,13.38V96.5H420V28.23H488V13.38Z" transform="translate(-13.6 -12.88)"/><path d="M375.65,28.23V47.52H322.23V28.23ZM307.53,13.38V96.49h83.12V81.65H322.23V62.37h68.42v-49Z" transform="translate(-13.6 -12.88)"/><polygon points="210.81 0.5 210.81 58.26 268.71 0.5 279.23 0.5 279.23 10.96 206.44 83.76 196.12 83.62 196.12 0.5 210.81 0.5"/><polygon points="225.51 0.5 225.51 15.35 238.58 15.35 253.44 0.5 225.51 0.5"/><path d="M195,13.38V96.49H111.91V13.38ZM126.61,28.23V81.65H180V28.23Z" transform="translate(-13.6 -12.88)"/><path d="M96.72,13.38V28.22H28.8V96.49H14.1V13.38Z" transform="translate(-13.6 -12.88)"/><rect x="30.19" y="68.77" width="52.92" height="14.84"/><path class="cls-3" d="M405.34,13.38V96.5H420V28.23H488V13.38Z" transform="translate(-13.6 -12.88)"/><path class="cls-3" d="M375.65,28.23V47.52H322.23V28.23ZM307.53,13.38V96.49h83.12V81.65H322.23V62.37h68.42v-49Z" transform="translate(-13.6 -12.88)"/><polygon class="cls-3" points="210.81 0.5 210.81 58.26 268.71 0.5 279.23 0.5 279.23 10.96 206.44 83.76 196.12 83.62 196.12 0.5 210.81 0.5"/><polygon class="cls-3" points="225.51 0.5 225.51 15.35 238.58 15.35 253.44 0.5 225.51 0.5"/><path class="cls-3" d="M195,13.38V96.49H111.91V13.38ZM126.61,28.23V81.65H180V28.23Z" transform="translate(-13.6 -12.88)"/><path class="cls-3" d="M96.72,13.38V28.22H28.8V96.49H14.1V13.38Z" transform="translate(-13.6 -12.88)"/><rect class="cls-3" x="30.19" y="68.77" width="52.92" height="14.84"/><path class="cls-4" d="M405.34,13.38V96.5H420V28.23H488V13.38Z" transform="translate(-13.6 -12.88)"/><path class="cls-4" d="M375.65,28.23V47.52H322.23V28.23ZM307.53,13.38V96.49h83.12V81.65H322.23V62.37h68.42v-49Z" transform="translate(-13.6 -12.88)"/><polygon class="cls-4" points="210.81 0.5 210.81 58.26 268.71 0.5 279.23 0.5 279.23 10.96 206.44 83.76 196.12 83.62 196.12 0.5 210.81 0.5"/><polygon class="cls-4" points="225.51 0.5 225.51 15.35 238.58 15.35 253.44 0.5 225.51 0.5"/><path class="cls-4" d="M195,13.38V96.49H111.91V13.38ZM126.61,28.23V81.65H180V28.23Z" transform="translate(-13.6 -12.88)"/><path class="cls-4" d="M96.72,13.38V28.22H28.8V96.49H14.1V13.38Z" transform="translate(-13.6 -12.88)"/><rect class="cls-4" x="30.19" y="68.77" width="52.92" height="14.84"/><path class="cls-5" d="M405.34,13.38V96.5H420V28.23H488V13.38Z" transform="translate(-13.6 -12.88)"/><path class="cls-5" d="M375.65,28.23V47.52H322.23V28.23ZM307.53,13.38V96.49h83.12V81.65H322.23V62.37h68.42v-49Z" transform="translate(-13.6 -12.88)"/><polygon class="cls-5" points="210.81 0.5 210.81 58.26 268.71 0.5 279.23 0.5 279.23 10.96 206.44 83.76 196.12 83.62 196.12 0.5 210.81 0.5"/><polygon class="cls-5" points="225.51 0.5 225.51 15.35 238.58 15.35 253.44 0.5 225.51 0.5"/><path class="cls-5" d="M195,13.38V96.49H111.91V13.38ZM126.61,28.23V81.65H180V28.23Z" transform="translate(-13.6 -12.88)"/><path class="cls-5" d="M96.72,13.38V28.22H28.8V96.49H14.1V13.38Z" transform="translate(-13.6 -12.88)"/><rect class="cls-5" x="30.19" y="68.77" width="52.92" height="14.84"/><path class="cls-6" d="M405.34,13.38V96.5H420V28.23H488V13.38Z" transform="translate(-13.6 -12.88)"/><path class="cls-6" d="M375.65,28.23V47.52H322.23V28.23ZM307.53,13.38V96.49h83.12V81.65H322.23V62.37h68.42v-49Z" transform="translate(-13.6 -12.88)"/><polygon class="cls-6" points="210.81 0.5 210.81 58.26 268.71 0.5 279.23 0.5 279.23 10.96 206.44 83.76 196.12 83.62 196.12 0.5 210.81 0.5"/><polygon class="cls-6" points="225.51 0.5 225.51 15.35 238.58 15.35 253.44 0.5 225.51 0.5"/><path class="cls-6" d="M195,13.38V96.49H111.91V13.38ZM126.61,28.23V81.65H180V28.23Z" transform="translate(-13.6 -12.88)"/><path class="cls-6" d="M96.72,13.38V28.22H28.8V96.49H14.1V13.38Z" transform="translate(-13.6 -12.88)"/><rect class="cls-6" x="30.19" y="68.77" width="52.92" height="14.84"/></svg>