<svg xmlns="http://www.w3.org/2000/svg" xmlns:xlink="http://www.w3.org/1999/xlink" viewBox="0 0 474.85 84.26"><defs><style>.cls-1{fill:#965e5e;stroke-width:0.5px;}.cls-1,.cls-2,.cls-3{stroke:#000;}.cls-1,.cls-3{stroke-miterlimit:10;}.cls-2,.cls-3{fill:none;}.cls-2{stroke-miterlimit:11.34;}.cls-4{fill:url(#linear-gradient);}.cls-5{fill:url(#radial-gradient);}.cls-6{fill:url(#radial-gradient-6);}.cls-7{fill:url(#radial-gradient-11);}</style><linearGradient id="linear-gradient" x1="251.03" y1="13.72" x2="251.03" y2="94.34" gradientUnits="userSpaceOnUse"><stop offset="0" stop-color="red"/><stop offset="1"/></linearGradient><radialGradient id="radial-gradient" cx="48.71" cy="72.56" r="191.18" gradientUnits="userSpaceOnUse"><stop offset="0" stop-color="red"/><stop offset="1" stop-opacity="0"/></radialGradient><radialGradient id="radial-gradient-6" cx="234" cy="43.14" r="141.29" xlink:href="#radial-gradient"/><radialGradient id="radial-gradient-11" cx="437.68" cy="82.32" r="199.41" xlink:href="#radial-gradient"/></defs><g id="Layer_10" data-name="Layer 10"><rect class="cls-1" x="0.5" y="68.77" width="82.61" height="14.99"/><path class="cls-1" d="M209.73,13.31v15h75.36a7.73,7.73,0,0,0,7.73-7.73V13.31Z" transform="translate(-13.6 -12.88)"/></g><g id="Layer_7" data-name="Layer 7"><path class="cls-2" d="M405.34,13.38V96.5H420V28.23H488V13.38Z" transform="translate(-13.6 -12.88)"/><path class="cls-3" d="M375.65,28.23V47.52H322.23V28.23ZM307.53,13.38V96.49h83.12V81.65H322.23V62.37h68.42v-49Z" transform="translate(-13.6 -12.88)"/><polygon class="cls-2" points="210.81 0.5 210.81 58.26 268.71 0.5 279.23 0.5 279.23 10.96 206.44 83.76 196.12 83.62 196.12 0.5 210.81 0.5"/><path class="cls-3" d="M195,13.38V96.49H111.91V13.38ZM126.61,28.23V81.65H180V28.23Z" transform="translate(-13.6 -12.88)"/><path class="cls-3" d="M96.72,13.38V28.22H28.8V96.49H14.1V13.38Z" transform="translate(-13.6 -12.88)"/><path class="cls-3" d="M405.34,13.38V96.5H420V28.23H488V13.38Z" transform="translate(-13.6 -12.88)"/><path class="cls-3" d="M375.65,28.23V47.52H322.23V28.23ZM307.53,13.38V96.49h83.12V81.65H322.23V62.37h68.42v-49Z" transform="translate(-13.6 -12.88)"/><polygon class="cls-3" points="210.81 0.5 210.81 58.26 268.71 0.5 279.23 0.5 279.23 10.96 206.44 83.76 196.12 83.62 196.12 0.5 210.81 0.5"/><path class="cls-3" d="M195,13.38V96.49H111.91V13.38ZM126.61,28.23V81.65H180V28.23Z" transform="translate(-13.6 -12.88)"/><path class="cls-3" d="M96.72,13.38V28.22H28.8V96.49H14.1V13.38Z" transform="translate(-13.6 -12.88)"/><path d="M405.34,13.38V96.5H420V28.23H488V13.38Z" transform="translate(-13.6 -12.88)"/><path d="M375.65,28.23V47.52H322.23V28.23ZM307.53,13.38V96.49h83.12V81.65H322.23V62.37h68.42v-49Z" transform="translate(-13.6 -12.88)"/><polygon points="210.81 0.5 210.81 58.26 268.71 0.5 279.23 0.5 279.23 10.96 206.44 83.76 196.12 83.62 196.12 0.5 210.81 0.5"/><path d="M195,13.38V96.49H111.91V13.38ZM126.61,28.23V81.65H180V28.23Z" transform="translate(-13.6 -12.88)"/><path d="M96.72,13.38V28.22H28.8V96.49H14.1V13.38Z" transform="translate(-13.6 -12.88)"/><path class="cls-4" d="M405.34,13.38V96.5H420V28.23H488V13.38Z" transform="translate(-13.6 -12.88)"/><path class="cls-4" d="M375.65,28.23V47.52H322.23V28.23ZM307.53,13.38V96.49h83.12V81.65H322.23V62.37h68.42v-49Z" transform="translate(-13.6 -12.88)"/><polygon class="cls-4" points="210.81 0.5 210.81 58.26 268.71 0.5 279.23 0.5 279.23 10.96 206.44 83.76 196.12 83.62 196.12 0.5 210.81 0.5"/><path class="cls-4" d="M195,13.38V96.49H111.91V13.38ZM126.61,28.23V81.65H180V28.23Z" transform="translate(-13.6 -12.88)"/><path class="cls-4" d="M96.72,13.38V28.22H28.8V96.49H14.1V13.38Z" transform="translate(-13.6 -12.88)"/><path class="cls-5" d="M405.34,13.38V96.5H420V28.23H488V13.38Z" transform="translate(-13.6 -12.88)"/><path class="cls-5" d="M375.65,28.23V47.52H322.23V28.23ZM307.53,13.38V96.49h83.12V81.65H322.23V62.37h68.42v-49Z" transform="translate(-13.6 -12.88)"/><polygon class="cls-5" points="210.81 0.5 210.81 58.26 268.71 0.5 279.23 0.5 279.23 10.96 206.44 83.76 196.12 83.62 196.12 0.5 210.81 0.5"/><path class="cls-5" d="M195,13.38V96.49H111.91V13.38ZM126.61,28.23V81.65H180V28.23Z" transform="translate(-13.6 -12.88)"/><path class="cls-5" d="M96.72,13.38V28.22H28.8V96.49H14.1V13.38Z" transform="translate(-13.6 -12.88)"/><path class="cls-6" d="M405.34,13.38V96.5H420V28.23H488V13.38Z" transform="translate(-13.6 -12.88)"/><path class="cls-6" d="M375.65,28.23V47.52H322.23V28.23ZM307.53,13.38V96.49h83.12V81.65H322.23V62.37h68.42v-49Z" transform="translate(-13.6 -12.88)"/><polygon class="cls-6" points="210.81 0.5 210.81 58.26 268.71 0.5 279.23 0.5 279.23 10.96 206.44 83.76 196.12 83.62 196.12 0.5 210.81 0.5"/><path class="cls-6" d="M195,13.38V96.49H111.91V13.38ZM126.61,28.23V81.65H180V28.23Z" transform="translate(-13.6 -12.88)"/><path class="cls-6" d="M96.72,13.38V28.22H28.8V96.49H14.1V13.38Z" transform="translate(-13.6 -12.88)"/><path class="cls-7" d="M405.34,13.38V96.5H420V28.23H488V13.38Z" transform="translate(-13.6 -12.88)"/><path class="cls-7" d="M375.65,28.23V47.52H322.23V28.23ZM307.53,13.38V96.49h83.12V81.65H322.23V62.37h68.42v-49Z" transform="translate(-13.6 -12.88)"/><polygon class="cls-7" points="210.81 0.5 210.81 58.26 268.71 0.5 279.23 0.5 279.23 10.96 206.44 83.76 196.12 83.62 196.12 0.5 210.81 0.5"/><path class="cls-7" d="M195,13.38V96.49H111.91V13.38ZM126.61,28.23V81.65H180V28.23Z" transform="translate(-13.6 -12.88)"/><path class="cls-7" d="M96.72,13.38V28.22H28.8V96.49H14.1V13.38Z" transform="translate(-13.6 -12.88)"/></g></svg>