<svg id="Layer_7" data-name="Layer 7" xmlns="http://www.w3.org/2000/svg" viewBox="0 0 474.85 84.26"><defs><style>.cls-1,.cls-2{fill:none;stroke:#000;}.cls-1{stroke-miterlimit:11.34;}.cls-2{stroke-miterlimit:10;}</style></defs><path class="cls-1" d="M405.34,13.38V96.5H420V28.23H488V13.38Z" transform="translate(-13.6 -12.88)"/><path class="cls-2" d="M375.65,28.23V47.52H322.23V28.23ZM307.53,13.38V96.49h83.12V81.65H322.23V62.37h68.42v-49Z" transform="translate(-13.6 -12.88)"/><polygon class="cls-1" points="210.81 0.5 210.81 58.26 268.71 0.5 279.23 0.5 279.23 10.96 206.44 83.76 196.12 83.62 196.12 0.5 210.81 0.5"/><polygon class="cls-1" points="225.51 0.5 225.51 15.35 238.58 15.35 253.44 0.5 225.51 0.5"/><path class="cls-2" d="M195,13.38V96.49H111.91V13.38ZM126.61,28.23V81.65H180V28.23Z" transform="translate(-13.6 -12.88)"/><path class="cls-2" d="M96.72,13.38V28.22H28.8V96.49H14.1V13.38Z" transform="translate(-13.6 -12.88)"/><rect class="cls-2" x="30.19" y="68.77" width="52.92" height="14.84"/><path class="cls-2" d="M405.34,13.38V96.5H420V28.23H488V13.38Z" transform="translate(-13.6 -12.88)"/><path class="cls-2" d="M375.65,28.23V47.52H322.23V28.23ZM307.53,13.38V96.49h83.12V81.65H322.23V62.37h68.42v-49Z" transform="translate(-13.6 -12.88)"/><polygon class="cls-2" points="210.81 0.5 210.81 58.26 268.71 0.5 279.23 0.5 279.23 10.96 206.44 83.76 196.12 83.62 196.12 0.5 210.81 0.5"/><polygon class="cls-2" points="225.51 0.5 225.51 15.35 238.58 15.35 253.44 0.5 225.51 0.5"/><path class="cls-2" d="M195,13.38V96.49H111.91V13.38ZM126.61,28.23V81.65H180V28.23Z" transform="translate(-13.6 -12.88)"/><path class="cls-2" d="M96.72,13.38V28.22H28.8V96.49H14.1V13.38Z" transform="translate(-13.6 -12.88)"/><rect class="cls-2" x="30.19" y="68.77" width="52.92" height="14.84"/><path d="M405.34,13.38V96.5H420V28.23H488V13.38Z" transform="translate(-13.6 -12.88)"/><path d="M375.65,28.23V47.52H322.23V28.23ZM307.53,13.38V96.49h83.12V81.65H322.23V62.37h68.42v-49Z" transform="translate(-13.6 -12.88)"/><polygon points="210.81 0.5 210.81 58.26 268.71 0.5 279.23 0.5 279.23 10.96 206.44 83.76 196.12 83.62 196.12 0.5 210.81 0.5"/><polygon points="225.51 0.5 225.51 15.35 238.58 15.35 253.44 0.5 225.51 0.5"/><path d="M195,13.38V96.49H111.91V13.38ZM126.61,28.23V81.65H180V28.23Z" transform="translate(-13.6 -12.88)"/><path d="M96.72,13.38V28.22H28.8V96.49H14.1V13.38Z" transform="translate(-13.6 -12.88)"/><rect x="30.19" y="68.77" width="52.92" height="14.84"/></svg>